<svg width="335" height="45" viewBox="0 0 335 45" fill="none" xmlns="http://www.w3.org/2000/svg">
<rect width="335" height="45" rx="5" fill="#00759F"/>
<path d="M86.3896 31L94.3576 12.64H94.5496L102.518 31H98.4856L93.3976 18.088L95.9176 16.36L89.8216 31H86.3896ZM91.8376 24.616H97.1416L98.3656 27.544H90.7576L91.8376 24.616ZM113.093 30.064C112.629 30.432 112.045 30.728 111.341 30.952C110.653 31.176 109.973 31.288 109.301 31.288C108.101 31.288 107.053 31.072 106.157 30.64C105.277 30.192 104.589 29.56 104.093 28.744C103.613 27.912 103.373 26.912 103.373 25.744C103.373 24.576 103.637 23.584 104.165 22.768C104.693 21.936 105.381 21.304 106.229 20.872C107.093 20.44 107.997 20.224 108.941 20.224C109.885 20.224 110.701 20.352 111.389 20.608C112.093 20.864 112.693 21.2 113.189 21.616L111.557 23.776C111.333 23.6 111.021 23.424 110.621 23.248C110.237 23.056 109.781 22.96 109.253 22.96C108.789 22.96 108.365 23.08 107.981 23.32C107.597 23.56 107.293 23.888 107.069 24.304C106.845 24.72 106.733 25.2 106.733 25.744C106.733 26.256 106.853 26.728 107.093 27.16C107.333 27.592 107.661 27.936 108.077 28.192C108.509 28.432 109.013 28.552 109.589 28.552C109.957 28.552 110.293 28.504 110.597 28.408C110.917 28.296 111.189 28.144 111.413 27.952L113.093 30.064ZM120.833 31.288C119.553 31.288 118.465 31.048 117.569 30.568C116.689 30.088 116.017 29.424 115.553 28.576C115.089 27.728 114.857 26.752 114.857 25.648C114.857 24.592 115.129 23.64 115.673 22.792C116.217 21.944 116.945 21.272 117.857 20.776C118.769 20.264 119.785 20.008 120.905 20.008C122.409 20.008 123.641 20.448 124.601 21.328C125.577 22.192 126.209 23.448 126.497 25.096L118.337 27.688L117.593 25.864L123.497 23.872L122.801 24.184C122.673 23.768 122.441 23.408 122.105 23.104C121.785 22.784 121.297 22.624 120.641 22.624C120.145 22.624 119.705 22.744 119.321 22.984C118.953 23.208 118.665 23.536 118.457 23.968C118.265 24.384 118.169 24.88 118.169 25.456C118.169 26.112 118.289 26.664 118.529 27.112C118.769 27.544 119.097 27.872 119.513 28.096C119.929 28.32 120.393 28.432 120.905 28.432C121.273 28.432 121.625 28.368 121.961 28.24C122.313 28.112 122.657 27.944 122.993 27.736L124.481 30.232C123.921 30.552 123.313 30.808 122.657 31C122.017 31.192 121.409 31.288 120.833 31.288ZM132.347 31.216C131.483 31.216 130.675 31.064 129.923 30.76C129.187 30.456 128.563 30.032 128.051 29.488L129.443 27.64C129.955 28.104 130.427 28.44 130.859 28.648C131.307 28.84 131.707 28.936 132.059 28.936C132.331 28.936 132.571 28.912 132.779 28.864C133.003 28.8 133.179 28.712 133.307 28.6C133.435 28.472 133.499 28.312 133.499 28.12C133.499 27.848 133.387 27.632 133.163 27.472C132.955 27.312 132.683 27.184 132.347 27.088C132.011 26.976 131.651 26.864 131.267 26.752C130.307 26.448 129.611 26.008 129.179 25.432C128.763 24.84 128.555 24.2 128.555 23.512C128.555 22.984 128.691 22.456 128.963 21.928C129.251 21.384 129.699 20.936 130.307 20.584C130.931 20.216 131.731 20.032 132.707 20.032C133.587 20.032 134.331 20.12 134.939 20.296C135.547 20.472 136.123 20.76 136.667 21.16L135.395 23.128C135.091 22.888 134.747 22.688 134.363 22.528C133.995 22.352 133.651 22.256 133.331 22.24C133.043 22.224 132.795 22.256 132.587 22.336C132.395 22.416 132.243 22.52 132.131 22.648C132.019 22.776 131.963 22.912 131.963 23.056C131.947 23.36 132.059 23.6 132.299 23.776C132.555 23.952 132.875 24.088 133.259 24.184C133.643 24.28 134.019 24.392 134.387 24.52C134.899 24.68 135.339 24.896 135.707 25.168C136.075 25.44 136.355 25.768 136.547 26.152C136.755 26.52 136.859 26.968 136.859 27.496C136.859 28.136 136.691 28.744 136.355 29.32C136.035 29.88 135.539 30.336 134.867 30.688C134.211 31.04 133.371 31.216 132.347 31.216ZM143.081 31.216C142.217 31.216 141.409 31.064 140.657 30.76C139.921 30.456 139.297 30.032 138.785 29.488L140.177 27.64C140.689 28.104 141.161 28.44 141.593 28.648C142.041 28.84 142.441 28.936 142.793 28.936C143.065 28.936 143.305 28.912 143.513 28.864C143.737 28.8 143.913 28.712 144.041 28.6C144.169 28.472 144.233 28.312 144.233 28.12C144.233 27.848 144.121 27.632 143.897 27.472C143.689 27.312 143.417 27.184 143.081 27.088C142.745 26.976 142.385 26.864 142.001 26.752C141.041 26.448 140.345 26.008 139.913 25.432C139.497 24.84 139.289 24.2 139.289 23.512C139.289 22.984 139.425 22.456 139.697 21.928C139.985 21.384 140.433 20.936 141.041 20.584C141.665 20.216 142.465 20.032 143.441 20.032C144.321 20.032 145.065 20.12 145.673 20.296C146.281 20.472 146.857 20.76 147.401 21.16L146.129 23.128C145.825 22.888 145.481 22.688 145.097 22.528C144.729 22.352 144.385 22.256 144.065 22.24C143.777 22.224 143.529 22.256 143.321 22.336C143.129 22.416 142.977 22.52 142.865 22.648C142.753 22.776 142.697 22.912 142.697 23.056C142.681 23.36 142.793 23.6 143.033 23.776C143.289 23.952 143.609 24.088 143.993 24.184C144.377 24.28 144.753 24.392 145.121 24.52C145.633 24.68 146.073 24.896 146.441 25.168C146.809 25.44 147.089 25.768 147.281 26.152C147.489 26.52 147.593 26.968 147.593 27.496C147.593 28.136 147.425 28.744 147.089 29.32C146.769 29.88 146.273 30.336 145.601 30.688C144.945 31.04 144.105 31.216 143.081 31.216ZM150.408 20.512H153.768V31H150.408V20.512ZM150.336 16.792C150.336 16.296 150.528 15.888 150.912 15.568C151.312 15.248 151.736 15.088 152.184 15.088C152.632 15.088 153.04 15.248 153.408 15.568C153.792 15.888 153.984 16.296 153.984 16.792C153.984 17.288 153.792 17.696 153.408 18.016C153.04 18.32 152.632 18.472 152.184 18.472C151.736 18.472 151.312 18.32 150.912 18.016C150.528 17.696 150.336 17.288 150.336 16.792ZM164.116 31.288C163.236 31.288 162.492 31.144 161.884 30.856C161.292 30.552 160.772 30.16 160.324 29.68L160.588 28.96V31H157.228V12.064H160.564V22.312V21.232C160.98 20.88 161.532 20.584 162.22 20.344C162.908 20.104 163.692 19.984 164.572 19.984C165.484 19.984 166.316 20.2 167.068 20.632C167.82 21.064 168.42 21.696 168.868 22.528C169.332 23.344 169.564 24.344 169.564 25.528C169.564 26.712 169.308 27.736 168.796 28.6C168.3 29.464 167.636 30.128 166.804 30.592C165.972 31.056 165.076 31.288 164.116 31.288ZM163.372 28.456C163.868 28.456 164.324 28.328 164.74 28.072C165.172 27.816 165.516 27.464 165.772 27.016C166.028 26.568 166.156 26.064 166.156 25.504C166.156 24.944 166.028 24.448 165.772 24.016C165.516 23.584 165.172 23.248 164.74 23.008C164.324 22.752 163.868 22.624 163.372 22.624C162.94 22.624 162.532 22.696 162.148 22.84C161.78 22.968 161.46 23.16 161.188 23.416C160.932 23.656 160.732 23.952 160.588 24.304V26.872C160.78 27.224 161.004 27.52 161.26 27.76C161.532 27.984 161.844 28.16 162.196 28.288C162.548 28.4 162.94 28.456 163.372 28.456ZM172.205 20.512H175.565V31H172.205V20.512ZM172.133 16.792C172.133 16.296 172.325 15.888 172.709 15.568C173.109 15.248 173.533 15.088 173.981 15.088C174.429 15.088 174.837 15.248 175.205 15.568C175.589 15.888 175.781 16.296 175.781 16.792C175.781 17.288 175.589 17.696 175.205 18.016C174.837 18.32 174.429 18.472 173.981 18.472C173.533 18.472 173.109 18.32 172.709 18.016C172.325 17.696 172.133 17.288 172.133 16.792ZM179.025 12.064H182.385V31H179.025V12.064ZM185.845 20.512H189.205V31H185.845V20.512ZM185.773 16.792C185.773 16.296 185.965 15.888 186.349 15.568C186.749 15.248 187.173 15.088 187.621 15.088C188.069 15.088 188.477 15.248 188.845 15.568C189.229 15.888 189.421 16.296 189.421 16.792C189.421 17.288 189.229 17.696 188.845 18.016C188.477 18.32 188.069 18.472 187.621 18.472C187.173 18.472 186.749 18.32 186.349 18.016C185.965 17.696 185.773 17.288 185.773 16.792ZM196.938 31.288C195.962 31.288 195.09 31.064 194.322 30.616C193.554 30.152 192.946 29.488 192.498 28.624C192.066 27.76 191.85 26.736 191.85 25.552C191.85 24.368 192.09 23.36 192.57 22.528C193.05 21.696 193.706 21.064 194.538 20.632C195.37 20.2 196.314 19.984 197.37 19.984C198.042 19.984 198.682 20.088 199.29 20.296C199.914 20.504 200.434 20.824 200.85 21.256V22.312V12.064H204.186V31H200.826V28.96L201.09 29.68C200.546 30.128 199.938 30.512 199.266 30.832C198.594 31.136 197.818 31.288 196.938 31.288ZM198.042 28.456C198.49 28.456 198.882 28.4 199.218 28.288C199.57 28.16 199.874 27.984 200.13 27.76C200.402 27.52 200.634 27.224 200.826 26.872V24.304C200.698 23.952 200.498 23.656 200.226 23.416C199.97 23.16 199.65 22.968 199.266 22.84C198.898 22.696 198.49 22.624 198.042 22.624C197.546 22.624 197.082 22.752 196.65 23.008C196.234 23.248 195.898 23.584 195.642 24.016C195.386 24.448 195.258 24.944 195.258 25.504C195.258 26.064 195.386 26.568 195.642 27.016C195.898 27.464 196.234 27.816 196.65 28.072C197.082 28.328 197.546 28.456 198.042 28.456ZM212.058 31.288C211.082 31.288 210.194 31.096 209.394 30.712C208.61 30.312 207.986 29.704 207.522 28.888C207.058 28.072 206.826 27.032 206.826 25.768C206.826 24.584 207.066 23.56 207.546 22.696C208.026 21.832 208.658 21.168 209.442 20.704C210.226 20.224 211.058 19.984 211.938 19.984C212.978 19.984 213.762 20.16 214.29 20.512C214.834 20.848 215.282 21.224 215.634 21.64L215.49 22.048L215.802 20.512H218.922V31H215.562V28.72L215.826 29.44C215.794 29.44 215.698 29.536 215.538 29.728C215.378 29.904 215.138 30.12 214.818 30.376C214.514 30.616 214.13 30.824 213.666 31C213.218 31.192 212.682 31.288 212.058 31.288ZM213.018 28.552C213.418 28.552 213.778 28.496 214.098 28.384C214.418 28.256 214.698 28.08 214.938 27.856C215.178 27.616 215.386 27.32 215.562 26.968V24.4C215.434 24.048 215.242 23.752 214.986 23.512C214.73 23.256 214.426 23.064 214.074 22.936C213.722 22.792 213.33 22.72 212.898 22.72C212.418 22.72 211.97 22.848 211.554 23.104C211.154 23.344 210.834 23.68 210.594 24.112C210.354 24.544 210.234 25.04 210.234 25.6C210.234 26.16 210.362 26.664 210.618 27.112C210.874 27.56 211.21 27.912 211.626 28.168C212.058 28.424 212.522 28.552 213.018 28.552ZM226.656 31.288C225.68 31.288 224.808 31.064 224.04 30.616C223.272 30.152 222.664 29.488 222.216 28.624C221.784 27.76 221.568 26.736 221.568 25.552C221.568 24.368 221.808 23.36 222.288 22.528C222.768 21.696 223.424 21.064 224.256 20.632C225.088 20.2 226.032 19.984 227.088 19.984C227.76 19.984 228.4 20.088 229.008 20.296C229.632 20.504 230.152 20.824 230.568 21.256V22.312V12.064H233.904V31H230.544V28.96L230.808 29.68C230.264 30.128 229.656 30.512 228.984 30.832C228.312 31.136 227.536 31.288 226.656 31.288ZM227.76 28.456C228.208 28.456 228.6 28.4 228.936 28.288C229.288 28.16 229.592 27.984 229.848 27.76C230.12 27.52 230.352 27.224 230.544 26.872V24.304C230.416 23.952 230.216 23.656 229.944 23.416C229.688 23.16 229.368 22.968 228.984 22.84C228.616 22.696 228.208 22.624 227.76 22.624C227.264 22.624 226.8 22.752 226.368 23.008C225.952 23.248 225.616 23.584 225.36 24.016C225.104 24.448 224.976 24.944 224.976 25.504C224.976 26.064 225.104 26.568 225.36 27.016C225.616 27.464 225.952 27.816 226.368 28.072C226.8 28.328 227.264 28.456 227.76 28.456ZM242.521 31.288C241.241 31.288 240.153 31.048 239.257 30.568C238.377 30.088 237.705 29.424 237.241 28.576C236.777 27.728 236.545 26.752 236.545 25.648C236.545 24.592 236.817 23.64 237.361 22.792C237.905 21.944 238.633 21.272 239.545 20.776C240.457 20.264 241.473 20.008 242.593 20.008C244.097 20.008 245.329 20.448 246.289 21.328C247.265 22.192 247.897 23.448 248.185 25.096L240.025 27.688L239.281 25.864L245.185 23.872L244.489 24.184C244.361 23.768 244.129 23.408 243.793 23.104C243.473 22.784 242.985 22.624 242.329 22.624C241.833 22.624 241.393 22.744 241.009 22.984C240.641 23.208 240.353 23.536 240.145 23.968C239.953 24.384 239.857 24.88 239.857 25.456C239.857 26.112 239.977 26.664 240.217 27.112C240.457 27.544 240.785 27.872 241.201 28.096C241.617 28.32 242.081 28.432 242.593 28.432C242.961 28.432 243.313 28.368 243.649 28.24C244.001 28.112 244.345 27.944 244.681 27.736L246.169 30.232C245.609 30.552 245.001 30.808 244.345 31C243.705 31.192 243.097 31.288 242.521 31.288Z" fill="white"/>
</svg>
