<svg width="180" height="60" viewBox="0 0 180 60" fill="none" xmlns="http://www.w3.org/2000/svg">
<rect width="180" height="60" rx="15" fill="#ED8038"/>
<path d="M37.528 34.536C37.336 34.696 36.976 34.912 36.448 35.184C35.936 35.456 35.304 35.696 34.552 35.904C33.8 36.112 32.968 36.208 32.056 36.192C30.664 36.16 29.416 35.912 28.312 35.448C27.224 34.968 26.296 34.32 25.528 33.504C24.776 32.688 24.2 31.752 23.8 30.696C23.4 29.64 23.2 28.512 23.2 27.312C23.2 25.968 23.4 24.736 23.8 23.616C24.216 22.496 24.8 21.528 25.552 20.712C26.32 19.896 27.232 19.264 28.288 18.816C29.344 18.368 30.512 18.144 31.792 18.144C32.976 18.144 34.024 18.304 34.936 18.624C35.848 18.944 36.592 19.288 37.168 19.656L35.8 22.944C35.4 22.64 34.864 22.328 34.192 22.008C33.536 21.672 32.776 21.504 31.912 21.504C31.24 21.504 30.592 21.648 29.968 21.936C29.36 22.208 28.816 22.6 28.336 23.112C27.872 23.624 27.504 24.224 27.232 24.912C26.96 25.584 26.824 26.32 26.824 27.12C26.824 27.968 26.944 28.744 27.184 29.448C27.44 30.152 27.8 30.76 28.264 31.272C28.728 31.768 29.28 32.152 29.92 32.424C30.576 32.696 31.312 32.832 32.128 32.832C33.072 32.832 33.88 32.68 34.552 32.376C35.224 32.072 35.736 31.752 36.088 31.416L37.528 34.536ZM44.8784 36.288C43.9024 36.288 43.0144 36.096 42.2144 35.712C41.4304 35.312 40.8064 34.704 40.3424 33.888C39.8784 33.072 39.6464 32.032 39.6464 30.768C39.6464 29.584 39.8864 28.56 40.3664 27.696C40.8464 26.832 41.4784 26.168 42.2624 25.704C43.0464 25.224 43.8784 24.984 44.7584 24.984C45.7984 24.984 46.5824 25.16 47.1104 25.512C47.6544 25.848 48.1024 26.224 48.4544 26.64L48.3104 27.048L48.6224 25.512H51.7424V36H48.3824V33.72L48.6464 34.44C48.6144 34.44 48.5184 34.536 48.3584 34.728C48.1984 34.904 47.9584 35.12 47.6384 35.376C47.3344 35.616 46.9504 35.824 46.4864 36C46.0384 36.192 45.5024 36.288 44.8784 36.288ZM45.8384 33.552C46.2384 33.552 46.5984 33.496 46.9184 33.384C47.2384 33.256 47.5184 33.08 47.7584 32.856C47.9984 32.616 48.2064 32.32 48.3824 31.968V29.4C48.2544 29.048 48.0624 28.752 47.8064 28.512C47.5504 28.256 47.2464 28.064 46.8944 27.936C46.5424 27.792 46.1504 27.72 45.7184 27.72C45.2384 27.72 44.7904 27.848 44.3744 28.104C43.9744 28.344 43.6544 28.68 43.4144 29.112C43.1744 29.544 43.0544 30.04 43.0544 30.6C43.0544 31.16 43.1824 31.664 43.4384 32.112C43.6944 32.56 44.0304 32.912 44.4464 33.168C44.8784 33.424 45.3424 33.552 45.8384 33.552ZM59.4766 36.288C58.5006 36.288 57.6286 36.064 56.8606 35.616C56.0926 35.152 55.4846 34.488 55.0366 33.624C54.6046 32.76 54.3886 31.736 54.3886 30.552C54.3886 29.368 54.6286 28.36 55.1086 27.528C55.5886 26.696 56.2446 26.064 57.0766 25.632C57.9086 25.2 58.8526 24.984 59.9086 24.984C60.5806 24.984 61.2206 25.088 61.8286 25.296C62.4526 25.504 62.9726 25.824 63.3886 26.256V27.312V17.064H66.7246V36H63.3646V33.96L63.6286 34.68C63.0846 35.128 62.4766 35.512 61.8046 35.832C61.1326 36.136 60.3566 36.288 59.4766 36.288ZM60.5806 33.456C61.0286 33.456 61.4206 33.4 61.7566 33.288C62.1086 33.16 62.4126 32.984 62.6686 32.76C62.9406 32.52 63.1726 32.224 63.3646 31.872V29.304C63.2366 28.952 63.0366 28.656 62.7646 28.416C62.5086 28.16 62.1886 27.968 61.8046 27.84C61.4366 27.696 61.0286 27.624 60.5806 27.624C60.0846 27.624 59.6206 27.752 59.1886 28.008C58.7726 28.248 58.4366 28.584 58.1806 29.016C57.9246 29.448 57.7966 29.944 57.7966 30.504C57.7966 31.064 57.9246 31.568 58.1806 32.016C58.4366 32.464 58.7726 32.816 59.1886 33.072C59.6206 33.328 60.0846 33.456 60.5806 33.456ZM74.5971 36.288C73.6211 36.288 72.7331 36.096 71.9331 35.712C71.1491 35.312 70.5251 34.704 70.0611 33.888C69.5971 33.072 69.3651 32.032 69.3651 30.768C69.3651 29.584 69.6051 28.56 70.0851 27.696C70.5651 26.832 71.1971 26.168 71.9811 25.704C72.7651 25.224 73.5971 24.984 74.4771 24.984C75.5171 24.984 76.3011 25.16 76.8291 25.512C77.3731 25.848 77.8211 26.224 78.1731 26.64L78.0291 27.048L78.3411 25.512H81.4611V36H78.1011V33.72L78.3651 34.44C78.3331 34.44 78.2371 34.536 78.0771 34.728C77.9171 34.904 77.6771 35.12 77.3571 35.376C77.0531 35.616 76.6691 35.824 76.2051 36C75.7571 36.192 75.2211 36.288 74.5971 36.288ZM75.5571 33.552C75.9571 33.552 76.3171 33.496 76.6371 33.384C76.9571 33.256 77.2371 33.08 77.4771 32.856C77.7171 32.616 77.9251 32.32 78.1011 31.968V29.4C77.9731 29.048 77.7811 28.752 77.5251 28.512C77.2691 28.256 76.9651 28.064 76.6131 27.936C76.2611 27.792 75.8691 27.72 75.4371 27.72C74.9571 27.72 74.5091 27.848 74.0931 28.104C73.6931 28.344 73.3731 28.68 73.1331 29.112C72.8931 29.544 72.7731 30.04 72.7731 30.6C72.7731 31.16 72.9011 31.664 73.1571 32.112C73.4131 32.56 73.7491 32.912 74.1651 33.168C74.5971 33.424 75.0611 33.552 75.5571 33.552ZM88.3313 36.216C87.4673 36.216 86.6593 36.064 85.9073 35.76C85.1713 35.456 84.5473 35.032 84.0353 34.488L85.4273 32.64C85.9393 33.104 86.4113 33.44 86.8433 33.648C87.2913 33.84 87.6913 33.936 88.0433 33.936C88.3153 33.936 88.5553 33.912 88.7633 33.864C88.9873 33.8 89.1633 33.712 89.2913 33.6C89.4193 33.472 89.4833 33.312 89.4833 33.12C89.4833 32.848 89.3713 32.632 89.1473 32.472C88.9393 32.312 88.6673 32.184 88.3313 32.088C87.9953 31.976 87.6353 31.864 87.2513 31.752C86.2913 31.448 85.5953 31.008 85.1633 30.432C84.7473 29.84 84.5393 29.2 84.5393 28.512C84.5393 27.984 84.6753 27.456 84.9473 26.928C85.2353 26.384 85.6833 25.936 86.2913 25.584C86.9153 25.216 87.7153 25.032 88.6913 25.032C89.5713 25.032 90.3153 25.12 90.9233 25.296C91.5313 25.472 92.1073 25.76 92.6513 26.16L91.3793 28.128C91.0753 27.888 90.7313 27.688 90.3473 27.528C89.9793 27.352 89.6353 27.256 89.3153 27.24C89.0273 27.224 88.7793 27.256 88.5713 27.336C88.3793 27.416 88.2273 27.52 88.1153 27.648C88.0033 27.776 87.9473 27.912 87.9473 28.056C87.9313 28.36 88.0433 28.6 88.2833 28.776C88.5393 28.952 88.8593 29.088 89.2433 29.184C89.6273 29.28 90.0033 29.392 90.3713 29.52C90.8833 29.68 91.3233 29.896 91.6913 30.168C92.0593 30.44 92.3393 30.768 92.5313 31.152C92.7393 31.52 92.8433 31.968 92.8433 32.496C92.8433 33.136 92.6753 33.744 92.3393 34.32C92.0193 34.88 91.5233 35.336 90.8513 35.688C90.1953 36.04 89.3553 36.216 88.3313 36.216ZM96.6417 20.904H100.002V25.464H102.546V28.08H100.002V36H96.6417V28.08H95.0097V25.464H96.6417V20.904ZM108.127 25.512L108.439 28.392L108.367 27.96C108.671 27.336 109.087 26.808 109.615 26.376C110.143 25.928 110.663 25.584 111.175 25.344C111.703 25.104 112.103 24.984 112.375 24.984L112.207 28.344C111.423 28.248 110.751 28.376 110.191 28.728C109.631 29.08 109.199 29.544 108.895 30.12C108.591 30.696 108.439 31.288 108.439 31.896V36H105.103V25.512H108.127ZM119.638 36.288C118.358 36.288 117.27 36.048 116.374 35.568C115.494 35.088 114.822 34.424 114.358 33.576C113.894 32.728 113.662 31.752 113.662 30.648C113.662 29.592 113.934 28.64 114.478 27.792C115.022 26.944 115.75 26.272 116.662 25.776C117.574 25.264 118.59 25.008 119.71 25.008C121.214 25.008 122.446 25.448 123.406 26.328C124.382 27.192 125.014 28.448 125.302 30.096L117.142 32.688L116.398 30.864L122.302 28.872L121.606 29.184C121.478 28.768 121.246 28.408 120.91 28.104C120.59 27.784 120.102 27.624 119.446 27.624C118.95 27.624 118.51 27.744 118.126 27.984C117.758 28.208 117.47 28.536 117.262 28.968C117.07 29.384 116.974 29.88 116.974 30.456C116.974 31.112 117.094 31.664 117.334 32.112C117.574 32.544 117.902 32.872 118.318 33.096C118.734 33.32 119.198 33.432 119.71 33.432C120.078 33.432 120.43 33.368 120.766 33.24C121.118 33.112 121.462 32.944 121.798 32.736L123.286 35.232C122.726 35.552 122.118 35.808 121.462 36C120.822 36.192 120.214 36.288 119.638 36.288ZM127.312 29.04H131.824V31.968H127.312V29.04ZM138.488 36.216C137.624 36.216 136.816 36.064 136.064 35.76C135.328 35.456 134.704 35.032 134.192 34.488L135.584 32.64C136.096 33.104 136.568 33.44 137 33.648C137.448 33.84 137.848 33.936 138.2 33.936C138.472 33.936 138.712 33.912 138.92 33.864C139.144 33.8 139.32 33.712 139.448 33.6C139.576 33.472 139.64 33.312 139.64 33.12C139.64 32.848 139.528 32.632 139.304 32.472C139.096 32.312 138.824 32.184 138.488 32.088C138.152 31.976 137.792 31.864 137.408 31.752C136.448 31.448 135.752 31.008 135.32 30.432C134.904 29.84 134.696 29.2 134.696 28.512C134.696 27.984 134.832 27.456 135.104 26.928C135.392 26.384 135.84 25.936 136.448 25.584C137.072 25.216 137.872 25.032 138.848 25.032C139.728 25.032 140.472 25.12 141.08 25.296C141.688 25.472 142.264 25.76 142.808 26.16L141.536 28.128C141.232 27.888 140.888 27.688 140.504 27.528C140.136 27.352 139.792 27.256 139.472 27.24C139.184 27.224 138.936 27.256 138.728 27.336C138.536 27.416 138.384 27.52 138.272 27.648C138.16 27.776 138.104 27.912 138.104 28.056C138.088 28.36 138.2 28.6 138.44 28.776C138.696 28.952 139.016 29.088 139.4 29.184C139.784 29.28 140.16 29.392 140.528 29.52C141.04 29.68 141.48 29.896 141.848 30.168C142.216 30.44 142.496 30.768 142.688 31.152C142.896 31.52 143 31.968 143 32.496C143 33.136 142.832 33.744 142.496 34.32C142.176 34.88 141.68 35.336 141.008 35.688C140.352 36.04 139.512 36.216 138.488 36.216ZM150.974 36.288C149.694 36.288 148.606 36.048 147.71 35.568C146.83 35.088 146.158 34.424 145.694 33.576C145.23 32.728 144.998 31.752 144.998 30.648C144.998 29.592 145.27 28.64 145.814 27.792C146.358 26.944 147.086 26.272 147.998 25.776C148.91 25.264 149.926 25.008 151.046 25.008C152.55 25.008 153.782 25.448 154.742 26.328C155.718 27.192 156.35 28.448 156.638 30.096L148.478 32.688L147.734 30.864L153.638 28.872L152.942 29.184C152.814 28.768 152.582 28.408 152.246 28.104C151.926 27.784 151.438 27.624 150.782 27.624C150.286 27.624 149.846 27.744 149.462 27.984C149.094 28.208 148.806 28.536 148.598 28.968C148.406 29.384 148.31 29.88 148.31 30.456C148.31 31.112 148.43 31.664 148.67 32.112C148.91 32.544 149.238 32.872 149.654 33.096C150.07 33.32 150.534 33.432 151.046 33.432C151.414 33.432 151.766 33.368 152.102 33.24C152.454 33.112 152.798 32.944 153.134 32.736L154.622 35.232C154.062 35.552 153.454 35.808 152.798 36C152.158 36.192 151.55 36.288 150.974 36.288Z" fill="white"/>
</svg>
