<svg width="300" height="125" viewBox="0 0 300 125" fill="none" xmlns="http://www.w3.org/2000/svg">
<rect width="300" height="125" rx="10" fill="#A2DD28"/>
<path d="M88.144 47.288C87.168 47.288 86.28 47.096 85.48 46.712C84.696 46.312 84.072 45.704 83.608 44.888C83.144 44.072 82.912 43.032 82.912 41.768C82.912 40.584 83.152 39.56 83.632 38.696C84.112 37.832 84.744 37.168 85.528 36.704C86.312 36.224 87.144 35.984 88.024 35.984C89.064 35.984 89.848 36.16 90.376 36.512C90.92 36.848 91.368 37.224 91.72 37.64L91.576 38.048L91.888 36.512H95.008V47H91.648V44.72L91.912 45.44C91.88 45.44 91.784 45.536 91.624 45.728C91.464 45.904 91.224 46.12 90.904 46.376C90.6 46.616 90.216 46.824 89.752 47C89.304 47.192 88.768 47.288 88.144 47.288ZM89.104 44.552C89.504 44.552 89.864 44.496 90.184 44.384C90.504 44.256 90.784 44.08 91.024 43.856C91.264 43.616 91.472 43.32 91.648 42.968V40.4C91.52 40.048 91.328 39.752 91.072 39.512C90.816 39.256 90.512 39.064 90.16 38.936C89.808 38.792 89.416 38.72 88.984 38.72C88.504 38.72 88.056 38.848 87.64 39.104C87.24 39.344 86.92 39.68 86.68 40.112C86.44 40.544 86.32 41.04 86.32 41.6C86.32 42.16 86.448 42.664 86.704 43.112C86.96 43.56 87.296 43.912 87.712 44.168C88.144 44.424 88.608 44.552 89.104 44.552ZM105.358 47.288C104.478 47.288 103.734 47.144 103.126 46.856C102.534 46.552 102.014 46.16 101.566 45.68L101.83 44.96V47H98.4702V28.064H101.806V38.312V37.232C102.222 36.88 102.774 36.584 103.462 36.344C104.15 36.104 104.934 35.984 105.814 35.984C106.726 35.984 107.558 36.2 108.31 36.632C109.062 37.064 109.662 37.696 110.11 38.528C110.574 39.344 110.806 40.344 110.806 41.528C110.806 42.712 110.55 43.736 110.038 44.6C109.542 45.464 108.878 46.128 108.046 46.592C107.214 47.056 106.318 47.288 105.358 47.288ZM104.614 44.456C105.11 44.456 105.566 44.328 105.982 44.072C106.414 43.816 106.758 43.464 107.014 43.016C107.27 42.568 107.398 42.064 107.398 41.504C107.398 40.944 107.27 40.448 107.014 40.016C106.758 39.584 106.414 39.248 105.982 39.008C105.566 38.752 105.11 38.624 104.614 38.624C104.182 38.624 103.774 38.696 103.39 38.84C103.022 38.968 102.702 39.16 102.43 39.416C102.174 39.656 101.974 39.952 101.83 40.304V42.872C102.022 43.224 102.246 43.52 102.502 43.76C102.774 43.984 103.086 44.16 103.438 44.288C103.79 44.4 104.182 44.456 104.614 44.456ZM118.607 47.288C117.327 47.288 116.239 47.048 115.343 46.568C114.463 46.088 113.791 45.424 113.327 44.576C112.863 43.728 112.631 42.752 112.631 41.648C112.631 40.592 112.903 39.64 113.447 38.792C113.991 37.944 114.719 37.272 115.631 36.776C116.543 36.264 117.559 36.008 118.679 36.008C120.183 36.008 121.415 36.448 122.375 37.328C123.351 38.192 123.983 39.448 124.271 41.096L116.111 43.688L115.367 41.864L121.271 39.872L120.575 40.184C120.447 39.768 120.215 39.408 119.879 39.104C119.559 38.784 119.071 38.624 118.415 38.624C117.919 38.624 117.479 38.744 117.095 38.984C116.727 39.208 116.439 39.536 116.231 39.968C116.039 40.384 115.943 40.88 115.943 41.456C115.943 42.112 116.063 42.664 116.303 43.112C116.543 43.544 116.871 43.872 117.287 44.096C117.703 44.32 118.167 44.432 118.679 44.432C119.047 44.432 119.399 44.368 119.735 44.24C120.087 44.112 120.431 43.944 120.767 43.736L122.255 46.232C121.695 46.552 121.087 46.808 120.431 47C119.791 47.192 119.183 47.288 118.607 47.288ZM129.736 36.512L130.048 39.392L129.976 38.96C130.28 38.336 130.696 37.808 131.224 37.376C131.752 36.928 132.272 36.584 132.784 36.344C133.312 36.104 133.712 35.984 133.984 35.984L133.816 39.344C133.032 39.248 132.36 39.376 131.8 39.728C131.24 40.08 130.808 40.544 130.504 41.12C130.2 41.696 130.048 42.288 130.048 42.896V47H126.712V36.512H129.736ZM137.54 31.904H140.9V36.464H143.444V39.08H140.9V47H137.54V39.08H135.908V36.464H137.54V31.904ZM150.417 47.288C149.441 47.288 148.553 47.096 147.753 46.712C146.969 46.312 146.345 45.704 145.881 44.888C145.417 44.072 145.185 43.032 145.185 41.768C145.185 40.584 145.425 39.56 145.905 38.696C146.385 37.832 147.017 37.168 147.801 36.704C148.585 36.224 149.417 35.984 150.297 35.984C151.337 35.984 152.121 36.16 152.649 36.512C153.193 36.848 153.641 37.224 153.993 37.64L153.849 38.048L154.161 36.512H157.281V47H153.921V44.72L154.185 45.44C154.153 45.44 154.057 45.536 153.897 45.728C153.737 45.904 153.497 46.12 153.177 46.376C152.873 46.616 152.489 46.824 152.025 47C151.577 47.192 151.041 47.288 150.417 47.288ZM151.377 44.552C151.777 44.552 152.137 44.496 152.457 44.384C152.777 44.256 153.057 44.08 153.297 43.856C153.537 43.616 153.745 43.32 153.921 42.968V40.4C153.793 40.048 153.601 39.752 153.345 39.512C153.089 39.256 152.785 39.064 152.433 38.936C152.081 38.792 151.689 38.72 151.257 38.72C150.777 38.72 150.329 38.848 149.913 39.104C149.513 39.344 149.193 39.68 148.953 40.112C148.713 40.544 148.593 41.04 148.593 41.6C148.593 42.16 148.721 42.664 148.977 43.112C149.233 43.56 149.569 43.912 149.985 44.168C150.417 44.424 150.881 44.552 151.377 44.552ZM161.296 29.336H173.344V32.696H164.776V36.464H172.36V39.824H164.776V43.64H173.68V47H161.296V29.336ZM179.944 29.336L185.104 42.056L183.088 41.648L187.768 29.336H191.896L183.832 47.816L175.768 29.336H179.944ZM194.952 29.336H207V32.696H198.432V36.464H206.016V39.824H198.432V43.64H207.336V47H194.952V29.336ZM226.752 47.72L213.36 35.624L214.392 36.2L214.464 47H210.936V28.64H211.08L224.184 40.688L223.416 40.352L223.344 29.336H226.848V47.72H226.752ZM230.197 29.336H242.101V32.696H237.805V47H234.325V32.696H230.197V29.336ZM243.77 38.192C243.77 36.976 244.002 35.824 244.466 34.736C244.93 33.648 245.57 32.688 246.386 31.856C247.218 31.008 248.178 30.344 249.266 29.864C250.354 29.384 251.522 29.144 252.77 29.144C254.002 29.144 255.162 29.384 256.25 29.864C257.338 30.344 258.298 31.008 259.13 31.856C259.978 32.688 260.634 33.648 261.098 34.736C261.578 35.824 261.818 36.976 261.818 38.192C261.818 39.44 261.578 40.608 261.098 41.696C260.634 42.784 259.978 43.744 259.13 44.576C258.298 45.392 257.338 46.032 256.25 46.496C255.162 46.96 254.002 47.192 252.77 47.192C251.522 47.192 250.354 46.96 249.266 46.496C248.178 46.032 247.218 45.392 246.386 44.576C245.57 43.744 244.93 42.784 244.466 41.696C244.002 40.608 243.77 39.44 243.77 38.192ZM247.37 38.192C247.37 38.976 247.506 39.712 247.778 40.4C248.066 41.072 248.458 41.672 248.954 42.2C249.466 42.712 250.05 43.112 250.706 43.4C251.378 43.688 252.106 43.832 252.89 43.832C253.642 43.832 254.338 43.688 254.978 43.4C255.634 43.112 256.202 42.712 256.682 42.2C257.162 41.672 257.538 41.072 257.81 40.4C258.082 39.712 258.218 38.976 258.218 38.192C258.218 37.392 258.074 36.648 257.786 35.96C257.514 35.272 257.13 34.672 256.634 34.16C256.154 33.632 255.586 33.224 254.93 32.936C254.274 32.648 253.562 32.504 252.794 32.504C252.026 32.504 251.314 32.648 250.658 32.936C250.002 33.224 249.426 33.632 248.93 34.16C248.434 34.672 248.05 35.272 247.778 35.96C247.506 36.648 247.37 37.392 247.37 38.192ZM274.72 33.608C274.048 33.24 273.36 32.936 272.656 32.696C271.968 32.456 271.32 32.336 270.712 32.336C269.96 32.336 269.368 32.488 268.936 32.792C268.504 33.096 268.288 33.552 268.288 34.16C268.288 34.576 268.448 34.952 268.768 35.288C269.104 35.608 269.528 35.896 270.04 36.152C270.568 36.408 271.112 36.64 271.672 36.848C272.184 37.04 272.688 37.272 273.184 37.544C273.696 37.8 274.152 38.128 274.552 38.528C274.952 38.912 275.272 39.4 275.512 39.992C275.752 40.568 275.872 41.28 275.872 42.128C275.872 43.024 275.64 43.856 275.176 44.624C274.712 45.392 274.032 46.016 273.136 46.496C272.24 46.96 271.136 47.192 269.824 47.192C269.152 47.192 268.464 47.128 267.76 47C267.072 46.856 266.392 46.648 265.72 46.376C265.048 46.088 264.4 45.728 263.776 45.296L265.312 42.584C265.728 42.888 266.176 43.16 266.656 43.4C267.152 43.624 267.648 43.8 268.144 43.928C268.64 44.056 269.096 44.12 269.512 44.12C269.928 44.12 270.344 44.064 270.76 43.952C271.192 43.824 271.544 43.616 271.816 43.328C272.104 43.04 272.248 42.64 272.248 42.128C272.248 41.776 272.128 41.456 271.888 41.168C271.664 40.88 271.352 40.616 270.952 40.376C270.568 40.136 270.144 39.928 269.68 39.752C269.136 39.544 268.576 39.304 268 39.032C267.424 38.76 266.88 38.432 266.368 38.048C265.872 37.648 265.464 37.16 265.144 36.584C264.84 35.992 264.688 35.272 264.688 34.424C264.688 33.4 264.912 32.512 265.36 31.76C265.824 31.008 266.472 30.416 267.304 29.984C268.136 29.536 269.096 29.288 270.184 29.24C271.608 29.24 272.76 29.408 273.64 29.744C274.536 30.08 275.336 30.48 276.04 30.944L274.72 33.608Z" fill="white"/>
<path d="M95.2812 66.432H102.801V67.92H96.8332V71.44H102.161V72.928H96.8332V76.512H103.025V78H95.2812V66.432ZM108.039 78.192L104.359 71.376H106.119L108.615 76.64L107.703 76.608L109.991 71.376H111.655L108.119 78.192H108.039ZM116.173 78.16C115.415 78.16 114.765 78.0107 114.221 77.712C113.677 77.4027 113.255 76.9867 112.957 76.464C112.669 75.9307 112.525 75.3227 112.525 74.64C112.525 73.9893 112.69 73.3973 113.021 72.864C113.351 72.3307 113.794 71.904 114.349 71.584C114.903 71.264 115.522 71.104 116.205 71.104C117.079 71.104 117.805 71.36 118.381 71.872C118.957 72.384 119.346 73.088 119.549 73.984L114.093 75.904L113.741 75.024L118.221 73.392L117.901 73.6C117.773 73.248 117.559 72.944 117.261 72.688C116.962 72.4213 116.573 72.288 116.093 72.288C115.687 72.288 115.325 72.3893 115.005 72.592C114.685 72.784 114.434 73.0507 114.253 73.392C114.071 73.7333 113.981 74.1227 113.981 74.56C113.981 75.0187 114.077 75.424 114.269 75.776C114.461 76.1173 114.722 76.3893 115.053 76.592C115.394 76.784 115.778 76.88 116.205 76.88C116.493 76.88 116.77 76.8267 117.037 76.72C117.314 76.6133 117.57 76.4747 117.805 76.304L118.493 77.408C118.162 77.632 117.789 77.8133 117.373 77.952C116.967 78.0907 116.567 78.16 116.173 78.16ZM122.741 71.376L122.869 72.992L122.805 72.736C123.019 72.2453 123.365 71.856 123.845 71.568C124.325 71.2693 124.88 71.12 125.509 71.12C126.139 71.12 126.651 71.3067 127.045 71.68C127.451 72.0427 127.659 72.5173 127.669 73.104V78H126.165V73.632C126.155 73.2693 126.048 72.976 125.845 72.752C125.653 72.5173 125.349 72.4 124.933 72.4C124.549 72.4 124.203 72.5067 123.893 72.72C123.584 72.9333 123.339 73.2267 123.157 73.6C122.987 73.9733 122.901 74.4053 122.901 74.896V78H121.413V71.376H122.741ZM130.897 68.464H132.385V71.408H134.209V72.576H132.385V78H130.897V72.576H129.681V71.408H130.897V68.464ZM135.431 74.624C135.431 73.9627 135.586 73.3653 135.895 72.832C136.215 72.2987 136.652 71.8773 137.207 71.568C137.762 71.2587 138.391 71.104 139.095 71.104C139.82 71.104 140.455 71.2587 140.999 71.568C141.543 71.8773 141.964 72.2987 142.263 72.832C142.562 73.3653 142.711 73.9627 142.711 74.624C142.711 75.2853 142.562 75.888 142.263 76.432C141.964 76.9653 141.538 77.3867 140.983 77.696C140.439 78.0053 139.804 78.16 139.079 78.16C138.375 78.16 137.746 78.016 137.191 77.728C136.647 77.4293 136.215 77.0187 135.895 76.496C135.586 75.9627 135.431 75.3387 135.431 74.624ZM136.919 74.64C136.919 75.0667 137.015 75.456 137.207 75.808C137.399 76.1493 137.655 76.4213 137.975 76.624C138.306 76.8267 138.668 76.928 139.063 76.928C139.479 76.928 139.847 76.8267 140.167 76.624C140.498 76.4213 140.754 76.1493 140.935 75.808C141.116 75.456 141.207 75.0667 141.207 74.64C141.207 74.2133 141.116 73.8293 140.935 73.488C140.754 73.136 140.498 72.8587 140.167 72.656C139.847 72.4427 139.479 72.336 139.063 72.336C138.658 72.336 138.29 72.4427 137.959 72.656C137.639 72.8693 137.383 73.152 137.191 73.504C137.01 73.8453 136.919 74.224 136.919 74.64ZM146.582 78.128C146.112 78.128 145.654 78.048 145.206 77.888C144.768 77.7173 144.406 77.4667 144.118 77.136L144.742 76.272C145.019 76.5387 145.302 76.7413 145.59 76.88C145.888 77.008 146.182 77.072 146.47 77.072C146.683 77.072 146.88 77.0453 147.062 76.992C147.243 76.9387 147.387 76.8533 147.494 76.736C147.611 76.608 147.67 76.4373 147.67 76.224C147.67 75.9893 147.59 75.8027 147.43 75.664C147.28 75.5253 147.083 75.4133 146.838 75.328C146.603 75.2427 146.352 75.1627 146.086 75.088C145.542 74.9067 145.126 74.656 144.838 74.336C144.55 74.016 144.406 73.6267 144.406 73.168C144.406 72.816 144.491 72.4907 144.662 72.192C144.843 71.8827 145.104 71.632 145.446 71.44C145.798 71.248 146.23 71.152 146.742 71.152C147.2 71.152 147.611 71.2107 147.974 71.328C148.336 71.4347 148.678 71.616 148.998 71.872L148.406 72.8C148.214 72.5973 147.984 72.448 147.718 72.352C147.451 72.256 147.211 72.2027 146.998 72.192C146.816 72.1813 146.64 72.208 146.47 72.272C146.31 72.336 146.176 72.4267 146.07 72.544C145.963 72.6613 145.91 72.8 145.91 72.96C145.91 73.184 145.984 73.3653 146.134 73.504C146.283 73.6427 146.475 73.7547 146.71 73.84C146.955 73.9147 147.195 73.9947 147.43 74.08C147.76 74.176 148.054 74.304 148.31 74.464C148.566 74.624 148.768 74.8213 148.918 75.056C149.078 75.2907 149.158 75.584 149.158 75.936C149.158 76.3307 149.062 76.6987 148.87 77.04C148.688 77.3707 148.406 77.6373 148.022 77.84C147.648 78.032 147.168 78.128 146.582 78.128ZM155.728 74.624C155.728 73.9627 155.882 73.3653 156.192 72.832C156.512 72.2987 156.949 71.8773 157.504 71.568C158.058 71.2587 158.688 71.104 159.392 71.104C160.117 71.104 160.752 71.2587 161.296 71.568C161.84 71.8773 162.261 72.2987 162.56 72.832C162.858 73.3653 163.008 73.9627 163.008 74.624C163.008 75.2853 162.858 75.888 162.56 76.432C162.261 76.9653 161.834 77.3867 161.28 77.696C160.736 78.0053 160.101 78.16 159.376 78.16C158.672 78.16 158.042 78.016 157.488 77.728C156.944 77.4293 156.512 77.0187 156.192 76.496C155.882 75.9627 155.728 75.3387 155.728 74.624ZM157.216 74.64C157.216 75.0667 157.312 75.456 157.504 75.808C157.696 76.1493 157.952 76.4213 158.272 76.624C158.602 76.8267 158.965 76.928 159.36 76.928C159.776 76.928 160.144 76.8267 160.464 76.624C160.794 76.4213 161.05 76.1493 161.232 75.808C161.413 75.456 161.504 75.0667 161.504 74.64C161.504 74.2133 161.413 73.8293 161.232 73.488C161.05 73.136 160.794 72.8587 160.464 72.656C160.144 72.4427 159.776 72.336 159.36 72.336C158.954 72.336 158.586 72.4427 158.256 72.656C157.936 72.8693 157.68 73.152 157.488 73.504C157.306 73.8453 157.216 74.224 157.216 74.64ZM166.351 71.376L166.479 72.992L166.415 72.736C166.628 72.2453 166.975 71.856 167.455 71.568C167.935 71.2693 168.489 71.12 169.119 71.12C169.748 71.12 170.26 71.3067 170.655 71.68C171.06 72.0427 171.268 72.5173 171.279 73.104V78H169.775V73.632C169.764 73.2693 169.657 72.976 169.455 72.752C169.263 72.5173 168.959 72.4 168.543 72.4C168.159 72.4 167.812 72.5067 167.503 72.72C167.193 72.9333 166.948 73.2267 166.767 73.6C166.596 73.9733 166.511 74.4053 166.511 74.896V78H165.023V71.376H166.351ZM173.866 65.616H175.354V78H173.866V65.616ZM177.929 71.376H179.417V78H177.929V71.376ZM177.817 68.976C177.817 68.7413 177.907 68.544 178.089 68.384C178.281 68.224 178.489 68.144 178.713 68.144C178.937 68.144 179.134 68.224 179.305 68.384C179.486 68.544 179.577 68.7413 179.577 68.976C179.577 69.2213 179.486 69.424 179.305 69.584C179.134 69.7333 178.937 69.808 178.713 69.808C178.489 69.808 178.281 69.728 178.089 69.568C177.907 69.408 177.817 69.2107 177.817 68.976ZM183.319 71.376L183.447 72.992L183.383 72.736C183.597 72.2453 183.943 71.856 184.423 71.568C184.903 71.2693 185.458 71.12 186.087 71.12C186.717 71.12 187.229 71.3067 187.623 71.68C188.029 72.0427 188.237 72.5173 188.247 73.104V78H186.743V73.632C186.733 73.2693 186.626 72.976 186.423 72.752C186.231 72.5173 185.927 72.4 185.511 72.4C185.127 72.4 184.781 72.5067 184.471 72.72C184.162 72.9333 183.917 73.2267 183.735 73.6C183.565 73.9733 183.479 74.4053 183.479 74.896V78H181.991V71.376H183.319ZM193.907 78.16C193.15 78.16 192.499 78.0107 191.955 77.712C191.411 77.4027 190.99 76.9867 190.691 76.464C190.403 75.9307 190.259 75.3227 190.259 74.64C190.259 73.9893 190.424 73.3973 190.755 72.864C191.086 72.3307 191.528 71.904 192.083 71.584C192.638 71.264 193.256 71.104 193.939 71.104C194.814 71.104 195.539 71.36 196.115 71.872C196.691 72.384 197.08 73.088 197.283 73.984L191.827 75.904L191.475 75.024L195.955 73.392L195.635 73.6C195.507 73.248 195.294 72.944 194.995 72.688C194.696 72.4213 194.307 72.288 193.827 72.288C193.422 72.288 193.059 72.3893 192.739 72.592C192.419 72.784 192.168 73.0507 191.987 73.392C191.806 73.7333 191.715 74.1227 191.715 74.56C191.715 75.0187 191.811 75.424 192.003 75.776C192.195 76.1173 192.456 76.3893 192.787 76.592C193.128 76.784 193.512 76.88 193.939 76.88C194.227 76.88 194.504 76.8267 194.771 76.72C195.048 76.6133 195.304 76.4747 195.539 76.304L196.227 77.408C195.896 77.632 195.523 77.8133 195.107 77.952C194.702 78.0907 194.302 78.16 193.907 78.16ZM205.538 71.376L205.666 72.992L205.602 72.736C205.815 72.2453 206.162 71.856 206.642 71.568C207.122 71.2693 207.677 71.12 208.306 71.12C208.935 71.12 209.447 71.3067 209.842 71.68C210.247 72.0427 210.455 72.5173 210.466 73.104V78H208.962V73.632C208.951 73.2693 208.845 72.976 208.642 72.752C208.45 72.5173 208.146 72.4 207.73 72.4C207.346 72.4 206.999 72.5067 206.69 72.72C206.381 72.9333 206.135 73.2267 205.954 73.6C205.783 73.9733 205.698 74.4053 205.698 74.896V78H204.21V71.376H205.538ZM215.806 78.16C215.187 78.16 214.622 78.0267 214.11 77.76C213.608 77.4933 213.208 77.104 212.91 76.592C212.622 76.0693 212.478 75.4347 212.478 74.688C212.478 73.952 212.632 73.3173 212.942 72.784C213.251 72.24 213.662 71.824 214.174 71.536C214.696 71.248 215.267 71.104 215.886 71.104C216.504 71.104 217.027 71.248 217.454 71.536C217.88 71.8133 218.206 72.144 218.43 72.528L218.334 72.784L218.478 71.376H219.854V78H218.366V76.272L218.526 76.656C218.483 76.7627 218.387 76.9013 218.238 77.072C218.099 77.232 217.907 77.3973 217.662 77.568C217.427 77.7387 217.155 77.8827 216.846 78C216.536 78.1067 216.19 78.16 215.806 78.16ZM216.206 76.928C216.579 76.928 216.915 76.8587 217.214 76.72C217.512 76.5813 217.758 76.3893 217.95 76.144C218.152 75.888 218.291 75.584 218.366 75.232V73.936C218.28 73.616 218.131 73.3387 217.918 73.104C217.704 72.8587 217.448 72.672 217.15 72.544C216.851 72.4053 216.52 72.336 216.158 72.336C215.763 72.336 215.4 72.432 215.07 72.624C214.739 72.816 214.472 73.0827 214.27 73.424C214.078 73.7653 213.982 74.1653 213.982 74.624C213.982 75.0507 214.083 75.44 214.286 75.792C214.488 76.144 214.76 76.4213 215.102 76.624C215.443 76.8267 215.811 76.928 216.206 76.928ZM229.251 73.904C229.251 74.4267 229.374 74.896 229.619 75.312C229.875 75.7173 230.211 76.0373 230.627 76.272C231.043 76.5067 231.513 76.624 232.035 76.624C232.579 76.624 233.065 76.5067 233.491 76.272C233.918 76.0373 234.254 75.7173 234.499 75.312C234.745 74.896 234.867 74.4267 234.867 73.904V66.432H236.387V73.952C236.387 74.7947 236.19 75.5307 235.795 76.16C235.411 76.7893 234.889 77.2747 234.227 77.616C233.577 77.9573 232.846 78.128 232.035 78.128C231.225 78.128 230.494 77.9573 229.843 77.616C229.193 77.2747 228.675 76.7893 228.291 76.16C227.907 75.5307 227.715 74.7947 227.715 73.952V66.432H229.251V73.904ZM239.562 66.432H246.426V67.92H241.114V71.616H245.77V73.088H241.114V78H239.562V66.432ZM252.072 66.432C252.915 66.432 253.635 66.576 254.232 66.864C254.83 67.1413 255.288 67.5467 255.608 68.08C255.939 68.6133 256.104 69.2587 256.104 70.016C256.104 70.4747 256.035 70.928 255.896 71.376C255.758 71.8133 255.534 72.2133 255.224 72.576C254.926 72.928 254.531 73.2107 254.04 73.424C253.55 73.6373 252.952 73.744 252.248 73.744H250.536V78H248.984V66.432H252.072ZM252.232 72.256C252.691 72.256 253.07 72.1813 253.368 72.032C253.667 71.8827 253.902 71.696 254.072 71.472C254.243 71.2373 254.366 70.992 254.44 70.736C254.515 70.48 254.552 70.2507 254.552 70.048C254.552 69.8133 254.515 69.5733 254.44 69.328C254.366 69.072 254.238 68.8427 254.056 68.64C253.886 68.4267 253.656 68.256 253.368 68.128C253.091 67.9893 252.744 67.92 252.328 67.92H250.536V72.256H252.232ZM261.572 66.432C262.159 66.432 262.697 66.512 263.188 66.672C263.689 66.8213 264.121 67.0507 264.484 67.36C264.857 67.6587 265.145 68.032 265.348 68.48C265.561 68.9173 265.668 69.4293 265.668 70.016C265.668 70.4747 265.599 70.9227 265.46 71.36C265.332 71.7973 265.113 72.1973 264.804 72.56C264.495 72.912 264.089 73.2 263.588 73.424C263.097 73.6373 262.489 73.744 261.764 73.744H260.052V78H258.5V66.432H261.572ZM261.732 72.256C262.191 72.256 262.569 72.1867 262.868 72.048C263.177 71.9093 263.417 71.7333 263.588 71.52C263.759 71.296 263.881 71.056 263.956 70.8C264.031 70.544 264.068 70.304 264.068 70.08C264.068 69.8453 264.025 69.6053 263.94 69.36C263.865 69.104 263.737 68.8693 263.556 68.656C263.385 68.4427 263.156 68.2667 262.868 68.128C262.591 67.9893 262.249 67.92 261.844 67.92H260.052V72.256H261.732ZM263.636 73.136L266.66 78H264.868L261.796 73.184L263.636 73.136ZM154.59 94L159.646 81.952H159.742L164.782 94H163.006L159.23 84.384L160.334 83.664L156.11 94H154.59ZM157.55 89.616H161.854L162.366 90.96H157.102L157.55 89.616ZM170.625 94.16C170.017 94.16 169.478 94.0267 169.009 93.76C168.55 93.4933 168.182 93.1573 167.905 92.752L168.081 92.288V94H166.593V81.616H168.065V88.896L168.017 88.336C168.284 87.9733 168.662 87.68 169.153 87.456C169.654 87.2213 170.209 87.104 170.817 87.104C171.414 87.104 171.958 87.248 172.449 87.536C172.94 87.824 173.329 88.2293 173.617 88.752C173.916 89.264 174.065 89.8773 174.065 90.592C174.065 91.3387 173.905 91.9787 173.585 92.512C173.276 93.0453 172.86 93.456 172.337 93.744C171.814 94.0213 171.244 94.16 170.625 94.16ZM170.321 92.896C170.748 92.896 171.132 92.7947 171.473 92.592C171.814 92.3893 172.081 92.1173 172.273 91.776C172.465 91.424 172.561 91.024 172.561 90.576C172.561 90.1493 172.46 89.7653 172.257 89.424C172.065 89.072 171.798 88.7947 171.457 88.592C171.126 88.3893 170.748 88.288 170.321 88.288C169.958 88.288 169.622 88.3573 169.313 88.496C169.004 88.6347 168.742 88.8267 168.529 89.072C168.316 89.3067 168.166 89.584 168.081 89.904V91.232C168.166 91.552 168.31 91.84 168.513 92.096C168.716 92.3413 168.972 92.5387 169.281 92.688C169.59 92.8267 169.937 92.896 170.321 92.896ZM179.149 94.16C178.392 94.16 177.741 94.0107 177.197 93.712C176.653 93.4027 176.232 92.9867 175.933 92.464C175.645 91.9307 175.501 91.3227 175.501 90.64C175.501 89.9893 175.667 89.3973 175.997 88.864C176.328 88.3307 176.771 87.904 177.325 87.584C177.88 87.264 178.499 87.104 179.181 87.104C180.056 87.104 180.781 87.36 181.357 87.872C181.933 88.384 182.323 89.088 182.525 89.984L177.069 91.904L176.717 91.024L181.197 89.392L180.877 89.6C180.749 89.248 180.536 88.944 180.237 88.688C179.939 88.4213 179.549 88.288 179.069 88.288C178.664 88.288 178.301 88.3893 177.981 88.592C177.661 88.784 177.411 89.0507 177.229 89.392C177.048 89.7333 176.957 90.1227 176.957 90.56C176.957 91.0187 177.053 91.424 177.245 91.776C177.437 92.1173 177.699 92.3893 178.029 92.592C178.371 92.784 178.755 92.88 179.181 92.88C179.469 92.88 179.747 92.8267 180.013 92.72C180.291 92.6133 180.547 92.4747 180.781 92.304L181.469 93.408C181.139 93.632 180.765 93.8133 180.349 93.952C179.944 94.0907 179.544 94.16 179.149 94.16ZM185.718 87.376L185.862 89.296L185.782 89.04C185.952 88.6347 186.198 88.2933 186.518 88.016C186.848 87.728 187.19 87.5093 187.542 87.36C187.904 87.2 188.219 87.12 188.486 87.12L188.406 88.592C187.904 88.56 187.462 88.656 187.078 88.88C186.704 89.104 186.406 89.4027 186.182 89.776C185.968 90.1493 185.862 90.5493 185.862 90.976V94H184.39V87.376H185.718ZM191.045 84.464H192.533V87.408H194.357V88.576H192.533V94H191.045V88.576H189.829V87.408H191.045V84.464ZM198.907 94.16C198.289 94.16 197.723 94.0267 197.211 93.76C196.71 93.4933 196.31 93.104 196.011 92.592C195.723 92.0693 195.579 91.4347 195.579 90.688C195.579 89.952 195.734 89.3173 196.043 88.784C196.353 88.24 196.763 87.824 197.275 87.536C197.798 87.248 198.369 87.104 198.987 87.104C199.606 87.104 200.129 87.248 200.555 87.536C200.982 87.8133 201.307 88.144 201.531 88.528L201.435 88.784L201.579 87.376H202.955V94H201.467V92.272L201.627 92.656C201.585 92.7627 201.489 92.9013 201.339 93.072C201.201 93.232 201.009 93.3973 200.763 93.568C200.529 93.7387 200.257 93.8827 199.947 94C199.638 94.1067 199.291 94.16 198.907 94.16ZM199.307 92.928C199.681 92.928 200.017 92.8587 200.315 92.72C200.614 92.5813 200.859 92.3893 201.051 92.144C201.254 91.888 201.393 91.584 201.467 91.232V89.936C201.382 89.616 201.233 89.3387 201.019 89.104C200.806 88.8587 200.55 88.672 200.251 88.544C199.953 88.4053 199.622 88.336 199.259 88.336C198.865 88.336 198.502 88.432 198.171 88.624C197.841 88.816 197.574 89.0827 197.371 89.424C197.179 89.7653 197.083 90.1653 197.083 90.624C197.083 91.0507 197.185 91.44 197.387 91.792C197.59 92.144 197.862 92.4213 198.203 92.624C198.545 92.8267 198.913 92.928 199.307 92.928ZM204.778 93.152C204.778 92.9173 204.864 92.72 205.034 92.56C205.216 92.3893 205.413 92.304 205.626 92.304C205.818 92.304 206 92.3893 206.17 92.56C206.352 92.72 206.442 92.9173 206.442 93.152C206.442 93.408 206.352 93.616 206.17 93.776C206 93.9253 205.818 94 205.626 94C205.413 94 205.216 93.9253 205.034 93.776C204.864 93.616 204.778 93.408 204.778 93.152Z" fill="white"/>
<g clip-path="url(#clip0_0_1)">
<path d="M63.7149 52.8118C64.2145 52.8118 64.646 52.9263 65.0321 53.2011C64.6233 53.0637 64.1691 52.995 63.7149 52.995C63.2379 52.995 62.8064 53.0637 62.3749 53.2011C62.7837 52.9263 63.1925 52.8118 63.7149 52.8118Z" fill="#FBFBFB"/>
<path d="M65.2376 53.2696L65.1922 53.315C65.1922 53.315 65.124 53.2468 65.0786 53.2241C65.1467 53.2241 65.1922 53.2241 65.2376 53.2696Z" fill="#FBFBFB"/>
<path d="M44.1374 30.482C43.5696 30.3904 43.0927 30.2759 42.7747 30.1385C42.4113 29.9781 42.2296 29.8178 42.2296 29.6117C42.2296 29.4285 42.4113 29.2682 42.7747 29.1079C43.1381 28.9475 43.6377 28.833 44.3191 28.7414C44.955 28.6269 45.7272 28.604 46.6129 28.604C47.4987 28.604 48.2709 28.604 48.9295 28.7414C49.5881 28.833 50.0878 28.9475 50.4512 29.1079C50.8146 29.2682 50.9963 29.4285 50.9963 29.6117C50.9963 29.8178 50.8146 29.9781 50.4512 30.1385C50.1105 30.2759 49.679 30.3904 49.0885 30.482C49.0431 30.482 48.9749 30.5049 48.9295 30.5049C48.2709 30.5965 47.4987 30.6423 46.6129 30.6423C45.7272 30.6423 44.955 30.5965 44.3191 30.5049C44.2509 30.5049 44.2055 30.482 44.1374 30.482Z" fill="#FBFBFB"/>
<path d="M52.7684 43.2156C52.5413 43.3759 52.3596 43.5133 52.1552 43.6736C51.383 44.2691 50.8153 44.6813 49.9295 44.6813C49.0438 44.6813 48.476 44.2691 47.7038 43.6736C46.977 43.124 45.9777 42.3682 44.615 42.3682C43.2523 42.3682 42.253 43.1011 41.5263 43.6278C41.0266 43.9943 40.6405 44.2691 40.209 44.4294C40.5042 41.704 42.5256 39.3909 45.2282 38.8183L45.9323 38.658V33.0698C46.1594 33.0927 46.3865 33.0927 46.6136 33.0927C46.8407 33.0927 47.0679 33.0927 47.295 33.0698V38.6351L47.999 38.7954C50.2929 39.2993 52.1098 41.0169 52.7684 43.2156Z" fill="#FBFBFB"/>
<path d="M67.5311 31.4438C66.3274 28.6955 64.7149 26.2221 62.6027 24.1151C60.5587 21.9852 58.1059 20.3591 55.3805 19.1453C52.6551 17.9772 49.748 17.3589 46.6366 17.3589C43.8203 17.3589 41.2312 17.8398 38.7557 18.7788C39.3462 20.0613 39.6641 21.5042 39.6641 23.0158C39.6641 28.6498 35.0991 33.2531 29.5121 33.2531C28.0358 33.2531 26.605 32.9325 25.3332 32.337C24.402 34.8334 23.925 37.4672 23.925 40.2612C23.925 43.3989 24.5155 46.3762 25.6965 49.1244C26.9003 51.8727 28.5128 54.2775 30.6249 56.4074C32.7371 58.5144 35.1218 60.1634 37.8926 61.3772C40.5726 62.5223 43.4797 63.1636 46.6366 63.1636C49.4074 63.1636 51.9965 62.6597 54.4947 61.7436C53.8815 60.4611 53.5636 59.0183 53.5636 57.5067C53.5636 51.8498 58.1286 47.2694 63.7156 47.2694C65.1919 47.2694 66.6227 47.59 67.8945 48.1855C68.8484 45.6891 69.3026 43.0324 69.3026 40.2612C69.3026 37.1236 68.7121 34.1921 67.5311 31.4438ZM54.8581 45.1623C54.8581 49.7428 51.1789 53.4759 46.6366 53.4759C42.662 53.4759 39.3689 50.6589 38.574 46.9029C38.4604 46.3533 38.3923 45.7578 38.3923 45.1623C38.3923 45.0478 38.3923 44.9333 38.415 44.8188C38.5285 41.3377 40.8905 38.2687 44.1383 37.2381V32.0393C43.3888 31.9248 42.7302 31.7416 42.1624 31.5125C41.0949 31.0545 40.5726 30.4361 40.5726 29.6116C40.5726 28.7872 41.0949 28.1917 42.1624 27.7337C43.2298 27.2756 44.7288 27.0466 46.6138 27.0466C48.4989 27.0466 49.9979 27.2756 51.0653 27.7337C52.1327 28.1917 52.7005 28.8101 52.7005 29.6116C52.7005 30.4132 52.1327 31.0545 51.0653 31.5125C50.5202 31.7416 49.8616 31.9248 49.0894 32.0393V37.2381C51.6104 38.0397 53.5863 40.0093 54.4266 42.4828C54.6764 43.1927 54.8127 43.9256 54.8581 44.7043V45.1623Z" fill="#FBFBFB"/>
<path d="M36.8473 19.9011C36.8473 19.9011 36.7792 19.7408 36.7338 19.6721C36.325 18.8247 35.7799 18.0231 35.0986 17.3589C34.3718 16.6032 33.5542 16.0306 32.5776 15.6184C31.601 15.2061 30.6017 15 29.5115 15C28.4214 15 27.3994 15.2061 26.4228 15.6184C25.4689 16.0306 24.6286 16.6032 23.9018 17.3589C23.175 18.0918 22.5845 18.9621 22.1757 19.9011C21.7669 20.8859 21.5625 21.8936 21.5625 23.0158C21.5625 24.138 21.7669 25.1686 22.1757 26.1076C22.5845 27.0924 23.175 27.9398 23.9018 28.6727C24.5831 29.3827 25.378 29.9094 26.2411 30.3217C26.3092 30.3217 26.3773 30.3904 26.4455 30.4133C27.3994 30.8026 28.3987 31.0317 29.5115 31.0317C30.6244 31.0317 31.6237 30.8026 32.5776 30.4133C33.5542 30.001 34.3718 29.4285 35.0986 28.6727C35.848 27.9398 36.4158 27.0924 36.8473 26.1076C37.2562 25.1686 37.4606 24.1151 37.4606 23.0158C37.4606 21.9165 37.2562 20.8859 36.8473 19.9011ZM27.1722 19.7866C27.3085 19.5576 27.4448 19.3514 27.581 19.1911C27.74 19.0308 27.899 18.8934 28.0807 18.756C28.0807 18.756 28.1034 18.756 28.1261 18.756C28.5349 18.4812 28.9665 18.3437 29.4888 18.3437C30.0112 18.3437 30.42 18.4811 30.8288 18.7331H30.8742C31.0105 18.8476 31.1468 18.9621 31.2603 19.0766L31.3966 19.214C31.3966 19.214 31.4874 19.3056 31.5101 19.3743C31.6237 19.4889 31.7373 19.6492 31.8054 19.8095C32.0552 20.2217 32.1915 20.7027 32.1915 21.2294C32.1915 21.7562 32.0552 22.2829 31.8054 22.7181C31.6918 22.9471 31.5556 23.1761 31.3966 23.3594C31.3284 23.4281 31.2376 23.5197 31.1468 23.5884C31.0559 23.6571 30.9651 23.7258 30.8515 23.7945C30.4427 24.0464 29.9885 24.1838 29.4888 24.1838C28.9892 24.1838 28.5349 24.0464 28.1261 23.7945C27.7173 23.5197 27.3994 23.1761 27.1495 22.7181C26.8997 22.2829 26.8089 21.7791 26.8089 21.2294C26.8089 20.6798 26.8997 20.2217 27.1495 19.8095L27.1722 19.7866ZM32.782 28.6269C32.2823 28.9017 31.7145 29.1307 31.1468 29.2911C30.579 29.4285 30.0339 29.4972 29.5115 29.4972C28.9892 29.4972 28.4214 29.4285 27.8536 29.2911C27.5356 29.1995 27.2404 29.0849 26.9451 28.9475C26.6953 28.8559 26.4682 28.7414 26.2184 28.6269C25.7187 28.3292 25.2872 28.0085 24.9238 27.5963C25.2418 27.1612 25.6279 26.7718 26.0821 26.4741C26.1957 26.3825 26.3092 26.3138 26.4228 26.268V26.245C26.5817 26.1534 26.7407 26.0618 26.9224 25.9931C27.1495 25.9015 27.3766 25.8328 27.6038 25.7641C27.899 25.6725 28.1943 25.6038 28.5122 25.5809C28.762 25.5351 29.0346 25.5122 29.3071 25.5351C29.3526 25.5122 29.4207 25.5122 29.4888 25.5122C30.1475 25.5122 30.7834 25.5809 31.3512 25.7641C31.5783 25.8099 31.8054 25.9015 32.0325 25.9931C32.2142 26.0618 32.3959 26.1534 32.5776 26.268C32.6911 26.3138 32.8047 26.3825 32.9183 26.4512C33.3725 26.7489 33.7586 27.1382 34.0765 27.5963C33.6904 28.0085 33.2589 28.3292 32.7593 28.6269H32.782Z" fill="#FBFBFB"/>
<path d="M65.0756 53.2241C65.0756 53.2241 65.1437 53.2695 65.1891 53.315L65.2345 53.2696C65.2345 53.2696 65.1437 53.2241 65.0756 53.2241Z" fill="#FBFBFB"/>
<path d="M71.0496 54.392C70.6181 53.453 70.0503 52.5827 69.3008 51.8499C68.6422 51.1628 67.8927 50.6131 67.007 50.2238C66.9388 50.178 66.848 50.1322 66.7799 50.1093C65.8033 49.697 64.8039 49.468 63.7138 49.468C62.6236 49.468 61.6016 49.697 60.625 50.1093C59.6484 50.5215 58.8308 51.0941 58.1041 51.8499C57.3773 52.5827 56.7868 53.453 56.378 54.392C55.9692 55.3768 55.7648 56.3845 55.7648 57.5068C55.7648 58.629 55.9692 59.6596 56.378 60.5986C56.378 60.6673 56.4461 60.7589 56.4915 60.8276C56.8776 61.7208 57.4454 62.4995 58.1041 63.1636C58.8308 63.8965 59.6711 64.492 60.6477 64.9042C61.6016 65.2935 62.6009 65.5226 63.7138 65.5226C64.8267 65.5226 65.826 65.2935 66.7799 64.9042C67.7564 64.492 68.5741 63.8965 69.3008 63.1636C70.0503 62.4308 70.6181 61.5834 71.0496 60.5986C71.4584 59.6596 71.6628 58.6061 71.6628 57.5068C71.6628 56.4074 71.4584 55.3768 71.0496 54.392ZM61.3745 54.2546C61.6243 53.8195 61.9196 53.4988 62.3284 53.224H62.3738C62.7826 52.9263 63.1914 52.8118 63.7138 52.8118C64.2362 52.8118 64.645 52.9263 65.0311 53.2011H65.0765C65.0765 53.2011 65.19 53.2469 65.2355 53.2698L65.19 53.3156C65.3263 53.3843 65.4399 53.4988 65.5307 53.6133C65.5989 53.6591 65.6443 53.7279 65.6897 53.7966C65.6897 53.7966 65.7351 53.7966 65.7351 53.8424C65.8487 53.9569 65.9395 54.0943 66.0304 54.2546C66.2802 54.6898 66.4165 55.1707 66.4165 55.6975C66.4165 56.2242 66.2802 56.751 66.0304 57.1861C65.7805 57.6671 65.4853 58.0106 65.0538 58.2625C64.6677 58.5145 64.2135 58.6519 63.7138 58.6519C63.2141 58.6519 62.7599 58.5145 62.3511 58.2625C62.1467 58.1251 61.9423 57.9648 61.806 57.7816C61.6925 57.69 61.6016 57.5755 61.5562 57.438C61.5335 57.4151 61.5108 57.4151 61.5108 57.4151H61.5335C61.5335 57.4151 61.4199 57.2548 61.3745 57.1861C61.1247 56.751 61.0111 56.2471 61.0111 55.6975C61.0111 55.1478 61.1247 54.6898 61.3745 54.2546ZM66.9843 63.1178C66.4619 63.3926 65.9168 63.6217 65.349 63.782C64.7812 63.8965 64.2362 63.9881 63.7138 63.9881C63.1914 63.9881 62.6236 63.8965 62.0559 63.782C61.4881 63.6217 60.9657 63.3926 60.4206 63.1178C59.921 62.8201 59.4895 62.4766 59.1261 62.0872C59.444 61.6521 59.8301 61.2627 60.2844 60.965C60.3979 60.8734 60.5115 60.8047 60.6477 60.736C60.8294 60.6215 61.0111 60.5299 61.2155 60.4612L61.8287 60.255C62.3965 60.0718 63.0325 60.0031 63.7138 60.0031C64.3951 60.0031 65.0084 60.0718 65.5761 60.255C65.8033 60.3008 66.0304 60.3924 66.2575 60.484C66.4392 60.5528 66.6209 60.6444 66.7799 60.7589C66.8934 60.8047 67.007 60.8734 67.1205 60.9421C67.5975 61.2398 67.9836 61.6292 68.3015 62.0872C67.9154 62.4766 67.4839 62.8201 66.9843 63.1178Z" fill="#FBFBFB"/>
</g>
<defs>
<clipPath id="clip0_0_1">
<rect width="51" height="51" fill="white" transform="translate(21 15)"/>
</clipPath>
</defs>
</svg>
