<svg width="300" height="125" viewBox="0 0 300 125" fill="none" xmlns="http://www.w3.org/2000/svg">
<rect width="300" height="125" rx="10" fill="#6959EA"/>
<g clip-path="url(#clip0_0_1)">
<path d="M80.9758 39.7012C80.6263 39.1475 80.1022 38.7699 79.3784 38.6189C78.7794 38.4679 78.0805 38.3924 77.2568 38.3924C76.4332 38.3924 75.3849 38.2414 74.1619 37.9394C72.7143 37.587 71.3415 37.0836 70.0936 36.4292C68.8206 35.8 67.5727 35.0953 66.3497 34.3654C65.1516 33.6103 63.8787 32.9307 62.6058 32.2764C61.3079 31.622 59.9102 31.1186 58.3877 30.7662C57.9884 30.6655 57.589 30.59 57.2146 30.5145C57.9135 33.409 58.0133 36.1272 57.4892 38.5434C56.8902 41.2616 55.6172 43.6024 53.6704 45.5152C51.7735 47.3777 49.3026 48.7116 46.3075 49.5422C46.2326 49.5674 46.1827 49.5674 46.1078 49.5926L43.2375 61.5478C43.0877 62.1267 43.1876 62.6552 43.4871 63.1838C43.7866 63.6871 44.2359 64.0143 44.785 64.1402C45.359 64.2912 45.8832 64.1905 46.4073 63.8885C46.9065 63.5865 47.206 63.1334 47.3558 62.5545L49.5272 53.4182C49.8267 53.3931 50.276 53.3931 50.875 53.4182C51.499 53.4182 52.1978 53.5189 53.0465 53.7203C54.544 54.0978 55.9417 54.6012 57.2146 55.2304C58.4876 55.8848 59.7106 56.5643 60.9335 57.2942C62.1316 58.0493 63.3546 58.7289 64.6525 59.3833C65.9254 60.0125 67.2981 60.5159 68.7957 60.8934C69.6693 61.0947 70.418 61.2458 71.0919 61.3213C71.7409 61.3968 72.3648 61.4219 72.9139 61.3716C73.463 61.3464 73.9872 61.2709 74.4864 61.1702C75.2102 61.0192 75.8092 60.692 76.2585 60.2138C76.7327 59.7105 77.0572 59.0561 77.2568 58.2507L81.2253 41.614C81.4001 40.9093 81.3002 40.2549 80.9758 39.7012Z" fill="#FBFBFB"/>
<path d="M54.6195 30.565L54.5446 30.2881L51.7741 19.8682C51.3498 18.2574 50.601 17.1499 49.5278 16.5459C48.4546 15.9167 47.1068 15.8412 45.4595 16.269L30.484 20.296C28.8616 20.7239 27.7385 21.479 27.1145 22.5613C26.4905 23.6183 26.3907 24.9775 26.8399 26.6134L29.6603 37.2851C30.3841 40.0285 31.4823 42.2433 33.0048 43.9296C34.5273 45.616 36.3494 46.7486 38.4958 47.3023C40.6423 47.8308 43.0135 47.7553 45.6342 47.0506C46.0335 46.9499 46.4329 46.8241 46.8072 46.6731C48.8539 45.9935 50.5511 44.9867 51.8989 43.678C53.4713 42.1175 54.4947 40.2298 54.9939 38.015C55.4681 35.7749 55.3433 33.3084 54.6195 30.565ZM43.3878 27.2678C43.7373 26.6889 44.2115 26.3114 44.8604 26.1352C45.5343 25.9842 46.1583 26.0597 46.7324 26.3869C47.3064 26.7141 47.6559 27.1923 47.8306 27.8215C47.9055 28.0732 47.9055 28.2998 47.8306 28.4508C47.7807 28.6018 47.7058 28.7025 47.581 28.7528C47.4063 28.8031 47.2316 28.778 47.0568 28.7276C46.8821 28.6521 46.6575 28.6018 46.4079 28.5514C46.1583 28.5263 45.8588 28.5514 45.5094 28.627C45.11 28.7276 44.8355 28.8786 44.6358 29.0548C44.4361 29.231 44.2864 29.382 44.1616 29.5079C44.0617 29.6589 43.912 29.7344 43.7622 29.7596C43.6374 29.8099 43.5376 29.7596 43.4128 29.6337C43.288 29.5079 43.1882 29.3317 43.1133 29.1052C42.9386 28.4759 43.0384 27.8467 43.3629 27.2678H43.3878ZM35.2512 31.9492C35.1264 32.1003 35.0016 32.2009 34.8518 32.2261C34.7021 32.2513 34.5773 32.2009 34.4525 32.0751C34.3277 31.9744 34.2528 31.7731 34.1779 31.5214C34.0032 30.9173 34.0781 30.3133 34.4275 29.7092C34.7769 29.1303 35.2761 28.7528 35.925 28.5766C36.574 28.4256 37.198 28.5011 37.772 28.8283C38.3461 29.1555 38.7205 29.6589 38.8952 30.2629C38.9701 30.5146 38.9701 30.716 38.9202 30.8922C38.8702 31.0432 38.7704 31.1438 38.6706 31.1942C38.4958 31.2445 38.3211 31.2445 38.1215 31.1942C37.9467 31.1438 37.7221 31.0935 37.4725 31.0432C37.2229 30.9928 36.9234 31.018 36.574 31.1187C36.1996 31.2194 35.9001 31.3452 35.7254 31.5214C35.5257 31.6724 35.3759 31.8486 35.2512 31.9744V31.9492ZM47.7058 38.4428C46.7823 39.5503 45.5343 40.3305 43.9619 40.7584C42.3895 41.1862 40.9418 41.1359 39.5691 40.6325C38.1963 40.1543 37.1231 39.2734 36.3494 38.0401C36.1746 37.7884 36.1497 37.5619 36.2994 37.3354C36.4242 37.134 36.6738 37.0585 37.0233 37.0837C37.8719 37.1592 38.8203 37.134 39.8936 37.0082C40.9418 36.8823 41.9402 36.681 42.8138 36.4293C43.7123 36.2028 44.6608 35.8756 45.6092 35.4477C46.5826 35.045 47.4312 34.592 48.1301 34.1138C48.4046 33.9124 48.6542 33.8369 48.8789 33.9628C49.1035 34.0634 49.2283 34.29 49.2033 34.6172C49.1285 36.0518 48.6293 37.3354 47.7058 38.4428Z" fill="#FBFBFB"/>
</g>
<path d="M108.871 78L113.927 65.952H114.023L119.063 78H117.287L113.511 68.384L114.615 67.664L110.391 78H108.871ZM111.831 73.616H116.135L116.647 74.96H111.383L111.831 73.616ZM126.094 77.392C125.795 77.6267 125.438 77.8133 125.022 77.952C124.606 78.0907 124.19 78.16 123.774 78.16C123.049 78.16 122.414 78.016 121.87 77.728C121.326 77.44 120.899 77.04 120.59 76.528C120.291 76.0053 120.142 75.392 120.142 74.688C120.142 73.984 120.302 73.3707 120.622 72.848C120.953 72.3253 121.379 71.9253 121.902 71.648C122.435 71.36 123.006 71.216 123.614 71.216C124.147 71.216 124.622 71.2907 125.038 71.44C125.465 71.5893 125.827 71.792 126.126 72.048L125.39 73.008C125.198 72.8587 124.963 72.7253 124.686 72.608C124.409 72.4907 124.094 72.432 123.742 72.432C123.358 72.432 123.001 72.5333 122.67 72.736C122.35 72.928 122.094 73.1947 121.902 73.536C121.721 73.8773 121.63 74.2613 121.63 74.688C121.63 75.0933 121.726 75.472 121.918 75.824C122.11 76.1653 122.377 76.4373 122.718 76.64C123.059 76.832 123.449 76.928 123.886 76.928C124.174 76.928 124.435 76.8853 124.67 76.8C124.915 76.7147 125.134 76.5973 125.326 76.448L126.094 77.392ZM121.79 80.432C121.907 80.5493 122.057 80.6453 122.238 80.72C122.419 80.8053 122.627 80.848 122.862 80.848C123.139 80.848 123.39 80.784 123.614 80.656C123.838 80.5387 123.95 80.3627 123.95 80.128C123.95 79.9467 123.875 79.776 123.726 79.616C123.577 79.4667 123.305 79.392 122.91 79.392C122.739 79.392 122.558 79.4133 122.366 79.456C122.174 79.4987 122.009 79.5467 121.87 79.6L121.598 78.88L122.718 77.84L123.854 77.904L122.702 79.248L122.35 78.88C122.467 78.8267 122.611 78.784 122.782 78.752C122.953 78.7307 123.118 78.7147 123.278 78.704C123.843 78.6933 124.307 78.8053 124.67 79.04C125.033 79.2747 125.214 79.6267 125.214 80.096C125.214 80.4587 125.107 80.752 124.894 80.976C124.691 81.2107 124.425 81.3813 124.094 81.488C123.763 81.6053 123.401 81.664 123.006 81.664C122.611 81.664 122.27 81.6 121.982 81.472C121.705 81.3547 121.481 81.216 121.31 81.056L121.79 80.432ZM127.439 74.624C127.439 73.9627 127.593 73.3653 127.903 72.832C128.223 72.2987 128.66 71.8773 129.215 71.568C129.769 71.2587 130.399 71.104 131.103 71.104C131.828 71.104 132.463 71.2587 133.007 71.568C133.551 71.8773 133.972 72.2987 134.271 72.832C134.569 73.3653 134.719 73.9627 134.719 74.624C134.719 75.2853 134.569 75.888 134.271 76.432C133.972 76.9653 133.545 77.3867 132.991 77.696C132.447 78.0053 131.812 78.16 131.087 78.16C130.383 78.16 129.753 78.016 129.199 77.728C128.655 77.4293 128.223 77.0187 127.903 76.496C127.593 75.9627 127.439 75.3387 127.439 74.624ZM128.927 74.64C128.927 75.0667 129.023 75.456 129.215 75.808C129.407 76.1493 129.663 76.4213 129.983 76.624C130.313 76.8267 130.676 76.928 131.071 76.928C131.487 76.928 131.855 76.8267 132.175 76.624C132.505 76.4213 132.761 76.1493 132.943 75.808C133.124 75.456 133.215 75.0667 133.215 74.64C133.215 74.2133 133.124 73.8293 132.943 73.488C132.761 73.136 132.505 72.8587 132.175 72.656C131.855 72.4427 131.487 72.336 131.071 72.336C130.665 72.336 130.297 72.4427 129.967 72.656C129.647 72.8693 129.391 73.152 129.199 73.504C129.017 73.8453 128.927 74.224 128.927 74.64ZM132.319 70.448C131.977 70.448 131.695 70.3733 131.471 70.224C131.257 70.064 131.055 69.8987 130.863 69.728C130.735 69.6107 130.607 69.504 130.479 69.408C130.351 69.3013 130.207 69.248 130.047 69.248C129.919 69.248 129.801 69.3013 129.695 69.408C129.599 69.504 129.524 69.6427 129.471 69.824C129.417 70.0053 129.391 70.2187 129.391 70.464H128.591C128.559 70.048 128.601 69.6747 128.719 69.344C128.847 69.0027 129.028 68.736 129.263 68.544C129.508 68.352 129.796 68.256 130.127 68.256C130.404 68.256 130.644 68.336 130.847 68.496C131.049 68.6453 131.236 68.8 131.407 68.96C131.556 69.0987 131.7 69.2267 131.839 69.344C131.977 69.4507 132.127 69.504 132.287 69.504C132.5 69.504 132.649 69.392 132.735 69.168C132.831 68.944 132.879 68.64 132.879 68.256H133.679C133.721 68.704 133.684 69.0933 133.567 69.424C133.46 69.7547 133.295 70.0107 133.071 70.192C132.847 70.3627 132.596 70.448 132.319 70.448ZM139.806 78.16C139.048 78.16 138.398 78.0107 137.854 77.712C137.31 77.4027 136.888 76.9867 136.59 76.464C136.302 75.9307 136.158 75.3227 136.158 74.64C136.158 73.9893 136.323 73.3973 136.654 72.864C136.984 72.3307 137.427 71.904 137.982 71.584C138.536 71.264 139.155 71.104 139.838 71.104C140.712 71.104 141.438 71.36 142.014 71.872C142.59 72.384 142.979 73.088 143.182 73.984L137.726 75.904L137.374 75.024L141.854 73.392L141.534 73.6C141.406 73.248 141.192 72.944 140.894 72.688C140.595 72.4213 140.206 72.288 139.726 72.288C139.32 72.288 138.958 72.3893 138.638 72.592C138.318 72.784 138.067 73.0507 137.886 73.392C137.704 73.7333 137.614 74.1227 137.614 74.56C137.614 75.0187 137.71 75.424 137.902 75.776C138.094 76.1173 138.355 76.3893 138.686 76.592C139.027 76.784 139.411 76.88 139.838 76.88C140.126 76.88 140.403 76.8267 140.67 76.72C140.947 76.6133 141.203 76.4747 141.438 76.304L142.126 77.408C141.795 77.632 141.422 77.8133 141.006 77.952C140.6 78.0907 140.2 78.16 139.806 78.16ZM146.902 78.128C146.433 78.128 145.974 78.048 145.526 77.888C145.089 77.7173 144.726 77.4667 144.438 77.136L145.062 76.272C145.339 76.5387 145.622 76.7413 145.91 76.88C146.209 77.008 146.502 77.072 146.79 77.072C147.003 77.072 147.201 77.0453 147.382 76.992C147.563 76.9387 147.707 76.8533 147.814 76.736C147.931 76.608 147.99 76.4373 147.99 76.224C147.99 75.9893 147.91 75.8027 147.75 75.664C147.601 75.5253 147.403 75.4133 147.158 75.328C146.923 75.2427 146.673 75.1627 146.406 75.088C145.862 74.9067 145.446 74.656 145.158 74.336C144.87 74.016 144.726 73.6267 144.726 73.168C144.726 72.816 144.811 72.4907 144.982 72.192C145.163 71.8827 145.425 71.632 145.766 71.44C146.118 71.248 146.55 71.152 147.062 71.152C147.521 71.152 147.931 71.2107 148.294 71.328C148.657 71.4347 148.998 71.616 149.318 71.872L148.726 72.8C148.534 72.5973 148.305 72.448 148.038 72.352C147.771 72.256 147.531 72.2027 147.318 72.192C147.137 72.1813 146.961 72.208 146.79 72.272C146.63 72.336 146.497 72.4267 146.39 72.544C146.283 72.6613 146.23 72.8 146.23 72.96C146.23 73.184 146.305 73.3653 146.454 73.504C146.603 73.6427 146.795 73.7547 147.03 73.84C147.275 73.9147 147.515 73.9947 147.75 74.08C148.081 74.176 148.374 74.304 148.63 74.464C148.886 74.624 149.089 74.8213 149.238 75.056C149.398 75.2907 149.478 75.584 149.478 75.936C149.478 76.3307 149.382 76.6987 149.19 77.04C149.009 77.3707 148.726 77.6373 148.342 77.84C147.969 78.032 147.489 78.128 146.902 78.128ZM159.312 78.16C158.704 78.16 158.149 78.016 157.648 77.728C157.157 77.4293 156.768 77.0133 156.48 76.48C156.192 75.936 156.048 75.312 156.048 74.608C156.048 73.872 156.197 73.2427 156.496 72.72C156.805 72.1973 157.221 71.7973 157.744 71.52C158.267 71.2427 158.853 71.104 159.504 71.104C160.027 71.104 160.523 71.216 160.992 71.44C161.472 71.664 161.845 71.9733 162.112 72.368L162.048 72.896V65.616H163.52V78H162.032V76.352L162.192 76.768C161.883 77.1733 161.483 77.5093 160.992 77.776C160.501 78.032 159.941 78.16 159.312 78.16ZM159.776 76.896C160.171 76.896 160.523 76.8267 160.832 76.688C161.141 76.5387 161.397 76.336 161.6 76.08C161.803 75.824 161.947 75.52 162.032 75.168V73.92C161.947 73.6 161.792 73.3227 161.568 73.088C161.355 72.8427 161.093 72.6507 160.784 72.512C160.485 72.3627 160.149 72.288 159.776 72.288C159.371 72.288 158.997 72.3893 158.656 72.592C158.325 72.784 158.059 73.0507 157.856 73.392C157.653 73.7333 157.552 74.128 157.552 74.576C157.552 75.0133 157.653 75.408 157.856 75.76C158.059 76.1013 158.331 76.3787 158.672 76.592C159.013 76.7947 159.381 76.896 159.776 76.896ZM169.181 78.16C168.423 78.16 167.773 78.0107 167.229 77.712C166.685 77.4027 166.263 76.9867 165.965 76.464C165.677 75.9307 165.533 75.3227 165.533 74.64C165.533 73.9893 165.698 73.3973 166.029 72.864C166.359 72.3307 166.802 71.904 167.357 71.584C167.911 71.264 168.53 71.104 169.213 71.104C170.087 71.104 170.813 71.36 171.389 71.872C171.965 72.384 172.354 73.088 172.557 73.984L167.101 75.904L166.749 75.024L171.229 73.392L170.909 73.6C170.781 73.248 170.567 72.944 170.269 72.688C169.97 72.4213 169.581 72.288 169.101 72.288C168.695 72.288 168.333 72.3893 168.013 72.592C167.693 72.784 167.442 73.0507 167.261 73.392C167.079 73.7333 166.989 74.1227 166.989 74.56C166.989 75.0187 167.085 75.424 167.277 75.776C167.469 76.1173 167.73 76.3893 168.061 76.592C168.402 76.784 168.786 76.88 169.213 76.88C169.501 76.88 169.778 76.8267 170.045 76.72C170.322 76.6133 170.578 76.4747 170.813 76.304L171.501 77.408C171.17 77.632 170.797 77.8133 170.381 77.952C169.975 78.0907 169.575 78.16 169.181 78.16ZM182.556 78.16C181.798 78.16 181.148 78.0107 180.604 77.712C180.06 77.4027 179.638 76.9867 179.34 76.464C179.052 75.9307 178.908 75.3227 178.908 74.64C178.908 73.9893 179.073 73.3973 179.404 72.864C179.734 72.3307 180.177 71.904 180.732 71.584C181.286 71.264 181.905 71.104 182.588 71.104C183.462 71.104 184.188 71.36 184.764 71.872C185.34 72.384 185.729 73.088 185.932 73.984L180.476 75.904L180.124 75.024L184.604 73.392L184.284 73.6C184.156 73.248 183.942 72.944 183.644 72.688C183.345 72.4213 182.956 72.288 182.476 72.288C182.07 72.288 181.708 72.3893 181.388 72.592C181.068 72.784 180.817 73.0507 180.636 73.392C180.454 73.7333 180.364 74.1227 180.364 74.56C180.364 75.0187 180.46 75.424 180.652 75.776C180.844 76.1173 181.105 76.3893 181.436 76.592C181.777 76.784 182.161 76.88 182.588 76.88C182.876 76.88 183.153 76.8267 183.42 76.72C183.697 76.6133 183.953 76.4747 184.188 76.304L184.876 77.408C184.545 77.632 184.172 77.8133 183.756 77.952C183.35 78.0907 182.95 78.16 182.556 78.16ZM190.105 73.84L191.689 71.376H193.193L190.649 74.928L190.105 73.84ZM193.449 78H191.657L186.617 71.376H188.457L193.449 78ZM189.945 75.536L188.201 78H186.697L189.225 74.544L189.945 75.536ZM195.686 68.464H197.174V71.408H198.998V72.576H197.174V78H195.686V72.576H194.47V71.408H195.686V68.464ZM203.868 78.16C203.111 78.16 202.46 78.0107 201.916 77.712C201.372 77.4027 200.951 76.9867 200.652 76.464C200.364 75.9307 200.22 75.3227 200.22 74.64C200.22 73.9893 200.385 73.3973 200.716 72.864C201.047 72.3307 201.489 71.904 202.044 71.584C202.599 71.264 203.217 71.104 203.9 71.104C204.775 71.104 205.5 71.36 206.076 71.872C206.652 72.384 207.041 73.088 207.244 73.984L201.788 75.904L201.436 75.024L205.916 73.392L205.596 73.6C205.468 73.248 205.255 72.944 204.956 72.688C204.657 72.4213 204.268 72.288 203.788 72.288C203.383 72.288 203.02 72.3893 202.7 72.592C202.38 72.784 202.129 73.0507 201.948 73.392C201.767 73.7333 201.676 74.1227 201.676 74.56C201.676 75.0187 201.772 75.424 201.964 75.776C202.156 76.1173 202.417 76.3893 202.748 76.592C203.089 76.784 203.473 76.88 203.9 76.88C204.188 76.88 204.465 76.8267 204.732 76.72C205.009 76.6133 205.265 76.4747 205.5 76.304L206.188 77.408C205.857 77.632 205.484 77.8133 205.068 77.952C204.663 78.0907 204.263 78.16 203.868 78.16ZM210.437 71.376L210.565 72.992L210.501 72.736C210.714 72.2453 211.061 71.856 211.541 71.568C212.021 71.2693 212.575 71.12 213.205 71.12C213.834 71.12 214.346 71.3067 214.741 71.68C215.146 72.0427 215.354 72.5173 215.365 73.104V78H213.861V73.632C213.85 73.2693 213.743 72.976 213.541 72.752C213.349 72.5173 213.045 72.4 212.629 72.4C212.245 72.4 211.898 72.5067 211.589 72.72C211.279 72.9333 211.034 73.2267 210.853 73.6C210.682 73.9733 210.597 74.4053 210.597 74.896V78H209.109V71.376H210.437ZM219.808 78.128C219.339 78.128 218.88 78.048 218.432 77.888C217.995 77.7173 217.632 77.4667 217.344 77.136L217.968 76.272C218.246 76.5387 218.528 76.7413 218.816 76.88C219.115 77.008 219.408 77.072 219.696 77.072C219.91 77.072 220.107 77.0453 220.288 76.992C220.47 76.9387 220.614 76.8533 220.72 76.736C220.838 76.608 220.896 76.4373 220.896 76.224C220.896 75.9893 220.816 75.8027 220.656 75.664C220.507 75.5253 220.31 75.4133 220.064 75.328C219.83 75.2427 219.579 75.1627 219.312 75.088C218.768 74.9067 218.352 74.656 218.064 74.336C217.776 74.016 217.632 73.6267 217.632 73.168C217.632 72.816 217.718 72.4907 217.888 72.192C218.07 71.8827 218.331 71.632 218.672 71.44C219.024 71.248 219.456 71.152 219.968 71.152C220.427 71.152 220.838 71.2107 221.2 71.328C221.563 71.4347 221.904 71.616 222.224 71.872L221.632 72.8C221.44 72.5973 221.211 72.448 220.944 72.352C220.678 72.256 220.438 72.2027 220.224 72.192C220.043 72.1813 219.867 72.208 219.696 72.272C219.536 72.336 219.403 72.4267 219.296 72.544C219.19 72.6613 219.136 72.8 219.136 72.96C219.136 73.184 219.211 73.3653 219.36 73.504C219.51 73.6427 219.702 73.7547 219.936 73.84C220.182 73.9147 220.422 73.9947 220.656 74.08C220.987 74.176 221.28 74.304 221.536 74.464C221.792 74.624 221.995 74.8213 222.144 75.056C222.304 75.2907 222.384 75.584 222.384 75.936C222.384 76.3307 222.288 76.6987 222.096 77.04C221.915 77.3707 221.632 77.6373 221.248 77.84C220.875 78.032 220.395 78.128 219.808 78.128ZM227.22 78.16C226.601 78.16 226.036 78.0267 225.524 77.76C225.023 77.4933 224.623 77.104 224.324 76.592C224.036 76.0693 223.892 75.4347 223.892 74.688C223.892 73.952 224.047 73.3173 224.356 72.784C224.665 72.24 225.076 71.824 225.588 71.536C226.111 71.248 226.681 71.104 227.3 71.104C227.919 71.104 228.441 71.248 228.868 71.536C229.295 71.8133 229.62 72.144 229.844 72.528L229.748 72.784L229.892 71.376H231.268V78H229.78V76.272L229.94 76.656C229.897 76.7627 229.801 76.9013 229.652 77.072C229.513 77.232 229.321 77.3973 229.076 77.568C228.841 77.7387 228.569 77.8827 228.26 78C227.951 78.1067 227.604 78.16 227.22 78.16ZM227.62 76.928C227.993 76.928 228.329 76.8587 228.628 76.72C228.927 76.5813 229.172 76.3893 229.364 76.144C229.567 75.888 229.705 75.584 229.78 75.232V73.936C229.695 73.616 229.545 73.3387 229.332 73.104C229.119 72.8587 228.863 72.672 228.564 72.544C228.265 72.4053 227.935 72.336 227.572 72.336C227.177 72.336 226.815 72.432 226.484 72.624C226.153 72.816 225.887 73.0827 225.684 73.424C225.492 73.7653 225.396 74.1653 225.396 74.624C225.396 75.0507 225.497 75.44 225.7 75.792C225.903 76.144 226.175 76.4213 226.516 76.624C226.857 76.8267 227.225 76.928 227.62 76.928ZM229.284 70.448C228.943 70.448 228.66 70.3733 228.436 70.224C228.223 70.064 228.02 69.8987 227.828 69.728C227.7 69.6107 227.572 69.504 227.444 69.408C227.316 69.3013 227.172 69.248 227.012 69.248C226.884 69.248 226.767 69.3013 226.66 69.408C226.564 69.504 226.489 69.6427 226.436 69.824C226.383 70.0053 226.356 70.2187 226.356 70.464H225.556C225.524 70.048 225.567 69.6747 225.684 69.344C225.812 69.0027 225.993 68.736 226.228 68.544C226.473 68.352 226.761 68.256 227.092 68.256C227.369 68.256 227.609 68.336 227.812 68.496C228.015 68.6453 228.201 68.8 228.372 68.96C228.521 69.0987 228.665 69.2267 228.804 69.344C228.943 69.4507 229.092 69.504 229.252 69.504C229.465 69.504 229.615 69.392 229.7 69.168C229.796 68.944 229.844 68.64 229.844 68.256H230.644C230.687 68.704 230.649 69.0933 230.532 69.424C230.425 69.7547 230.26 70.0107 230.036 70.192C229.812 70.3627 229.561 70.448 229.284 70.448ZM233.267 74.624C233.267 73.9627 233.422 73.3653 233.731 72.832C234.051 72.2987 234.488 71.8773 235.043 71.568C235.598 71.2587 236.227 71.104 236.931 71.104C237.656 71.104 238.291 71.2587 238.835 71.568C239.379 71.8773 239.8 72.2987 240.099 72.832C240.398 73.3653 240.547 73.9627 240.547 74.624C240.547 75.2853 240.398 75.888 240.099 76.432C239.8 76.9653 239.374 77.3867 238.819 77.696C238.275 78.0053 237.64 78.16 236.915 78.16C236.211 78.16 235.582 78.016 235.027 77.728C234.483 77.4293 234.051 77.0187 233.731 76.496C233.422 75.9627 233.267 75.3387 233.267 74.624ZM234.755 74.64C234.755 75.0667 234.851 75.456 235.043 75.808C235.235 76.1493 235.491 76.4213 235.811 76.624C236.142 76.8267 236.504 76.928 236.899 76.928C237.315 76.928 237.683 76.8267 238.003 76.624C238.334 76.4213 238.59 76.1493 238.771 75.808C238.952 75.456 239.043 75.0667 239.043 74.64C239.043 74.2133 238.952 73.8293 238.771 73.488C238.59 73.136 238.334 72.8587 238.003 72.656C237.683 72.4427 237.315 72.336 236.899 72.336C236.494 72.336 236.126 72.4427 235.795 72.656C235.475 72.8693 235.219 73.152 235.027 73.504C234.846 73.8453 234.755 74.224 234.755 74.64ZM250.696 78.16C249.939 78.16 249.288 78.0107 248.744 77.712C248.2 77.4027 247.779 76.9867 247.48 76.464C247.192 75.9307 247.048 75.3227 247.048 74.64C247.048 73.9893 247.213 73.3973 247.544 72.864C247.875 72.3307 248.317 71.904 248.872 71.584C249.427 71.264 250.045 71.104 250.728 71.104C251.603 71.104 252.328 71.36 252.904 71.872C253.48 72.384 253.869 73.088 254.072 73.984L248.616 75.904L248.264 75.024L252.744 73.392L252.424 73.6C252.296 73.248 252.083 72.944 251.784 72.688C251.485 72.4213 251.096 72.288 250.616 72.288C250.211 72.288 249.848 72.3893 249.528 72.592C249.208 72.784 248.957 73.0507 248.776 73.392C248.595 73.7333 248.504 74.1227 248.504 74.56C248.504 75.0187 248.6 75.424 248.792 75.776C248.984 76.1173 249.245 76.3893 249.576 76.592C249.917 76.784 250.301 76.88 250.728 76.88C251.016 76.88 251.293 76.8267 251.56 76.72C251.837 76.6133 252.093 76.4747 252.328 76.304L253.016 77.408C252.685 77.632 252.312 77.8133 251.896 77.952C251.491 78.0907 251.091 78.16 250.696 78.16ZM161.922 93.392C161.623 93.6267 161.266 93.8133 160.85 93.952C160.434 94.0907 160.018 94.16 159.602 94.16C158.877 94.16 158.242 94.016 157.698 93.728C157.154 93.44 156.727 93.04 156.418 92.528C156.119 92.0053 155.97 91.392 155.97 90.688C155.97 89.984 156.13 89.3707 156.45 88.848C156.781 88.3253 157.207 87.9253 157.73 87.648C158.263 87.36 158.834 87.216 159.442 87.216C159.975 87.216 160.45 87.2907 160.866 87.44C161.293 87.5893 161.655 87.792 161.954 88.048L161.218 89.008C161.026 88.8587 160.791 88.7253 160.514 88.608C160.237 88.4907 159.922 88.432 159.57 88.432C159.186 88.432 158.829 88.5333 158.498 88.736C158.178 88.928 157.922 89.1947 157.73 89.536C157.549 89.8773 157.458 90.2613 157.458 90.688C157.458 91.0933 157.554 91.472 157.746 91.824C157.938 92.1653 158.205 92.4373 158.546 92.64C158.887 92.832 159.277 92.928 159.714 92.928C160.002 92.928 160.263 92.8853 160.498 92.8C160.743 92.7147 160.962 92.5973 161.154 92.448L161.922 93.392ZM165.939 94.256C165.342 94.256 164.846 94.0747 164.451 93.712C164.067 93.3387 163.864 92.8587 163.843 92.272V87.376H165.331V91.744C165.352 92.1067 165.454 92.4 165.635 92.624C165.827 92.848 166.126 92.9653 166.531 92.976C166.904 92.976 167.235 92.8693 167.523 92.656C167.822 92.432 168.062 92.1333 168.243 91.76C168.424 91.376 168.515 90.944 168.515 90.464V87.376H170.003V94H168.643L168.515 92.368L168.595 92.656C168.467 92.9653 168.27 93.2427 168.003 93.488C167.747 93.7227 167.443 93.9093 167.091 94.048C166.739 94.1867 166.355 94.256 165.939 94.256ZM172.577 81.616H174.065V94H172.577V81.616ZM177.28 84.464H178.768V87.408H180.592V88.576H178.768V94H177.28V88.576H176.064V87.408H177.28V84.464ZM184.486 94.256C183.888 94.256 183.392 94.0747 182.998 93.712C182.614 93.3387 182.411 92.8587 182.39 92.272V87.376H183.878V91.744C183.899 92.1067 184 92.4 184.182 92.624C184.374 92.848 184.672 92.9653 185.078 92.976C185.451 92.976 185.782 92.8693 186.07 92.656C186.368 92.432 186.608 92.1333 186.79 91.76C186.971 91.376 187.062 90.944 187.062 90.464V87.376H188.55V94H187.19L187.062 92.368L187.142 92.656C187.014 92.9653 186.816 93.2427 186.55 93.488C186.294 93.7227 185.99 93.9093 185.638 94.048C185.286 94.1867 184.902 94.256 184.486 94.256ZM192.452 87.376L192.596 89.296L192.516 89.04C192.687 88.6347 192.932 88.2933 193.252 88.016C193.583 87.728 193.924 87.5093 194.276 87.36C194.639 87.2 194.953 87.12 195.22 87.12L195.14 88.592C194.639 88.56 194.196 88.656 193.812 88.88C193.439 89.104 193.14 89.4027 192.916 89.776C192.703 90.1493 192.596 90.5493 192.596 90.976V94H191.124V87.376H192.452ZM199.736 94.16C199.117 94.16 198.552 94.0267 198.039 93.76C197.538 93.4933 197.138 93.104 196.84 92.592C196.552 92.0693 196.408 91.4347 196.408 90.688C196.408 89.952 196.562 89.3173 196.872 88.784C197.181 88.24 197.592 87.824 198.104 87.536C198.626 87.248 199.197 87.104 199.816 87.104C200.434 87.104 200.957 87.248 201.384 87.536C201.81 87.8133 202.136 88.144 202.36 88.528L202.264 88.784L202.408 87.376H203.784V94H202.296V92.272L202.456 92.656C202.413 92.7627 202.317 92.9013 202.168 93.072C202.029 93.232 201.837 93.3973 201.592 93.568C201.357 93.7387 201.085 93.8827 200.776 94C200.466 94.1067 200.12 94.16 199.736 94.16ZM200.136 92.928C200.509 92.928 200.845 92.8587 201.144 92.72C201.442 92.5813 201.688 92.3893 201.88 92.144C202.082 91.888 202.221 91.584 202.296 91.232V89.936C202.21 89.616 202.061 89.3387 201.848 89.104C201.634 88.8587 201.378 88.672 201.08 88.544C200.781 88.4053 200.45 88.336 200.088 88.336C199.693 88.336 199.33 88.432 199 88.624C198.669 88.816 198.402 89.0827 198.2 89.424C198.008 89.7653 197.912 90.1653 197.912 90.624C197.912 91.0507 198.013 91.44 198.216 91.792C198.418 92.144 198.69 92.4213 199.032 92.624C199.373 92.8267 199.741 92.928 200.136 92.928ZM205.607 93.152C205.607 92.9173 205.692 92.72 205.863 92.56C206.044 92.3893 206.241 92.304 206.455 92.304C206.647 92.304 206.828 92.3893 206.999 92.56C207.18 92.72 207.271 92.9173 207.271 93.152C207.271 93.408 207.18 93.616 206.999 93.776C206.828 93.9253 206.647 94 206.455 94C206.241 94 206.044 93.9253 205.863 93.776C205.692 93.616 205.607 93.408 205.607 93.152Z" fill="white"/>
<path d="M125.144 47.288C124.168 47.288 123.28 47.096 122.48 46.712C121.696 46.312 121.072 45.704 120.608 44.888C120.144 44.072 119.912 43.032 119.912 41.768C119.912 40.584 120.152 39.56 120.632 38.696C121.112 37.832 121.744 37.168 122.528 36.704C123.312 36.224 124.144 35.984 125.024 35.984C126.064 35.984 126.848 36.16 127.376 36.512C127.92 36.848 128.368 37.224 128.72 37.64L128.576 38.048L128.888 36.512H132.008V47H128.648V44.72L128.912 45.44C128.88 45.44 128.784 45.536 128.624 45.728C128.464 45.904 128.224 46.12 127.904 46.376C127.6 46.616 127.216 46.824 126.752 47C126.304 47.192 125.768 47.288 125.144 47.288ZM126.104 44.552C126.504 44.552 126.864 44.496 127.184 44.384C127.504 44.256 127.784 44.08 128.024 43.856C128.264 43.616 128.472 43.32 128.648 42.968V40.4C128.52 40.048 128.328 39.752 128.072 39.512C127.816 39.256 127.512 39.064 127.16 38.936C126.808 38.792 126.416 38.72 125.984 38.72C125.504 38.72 125.056 38.848 124.64 39.104C124.24 39.344 123.92 39.68 123.68 40.112C123.44 40.544 123.32 41.04 123.32 41.6C123.32 42.16 123.448 42.664 123.704 43.112C123.96 43.56 124.296 43.912 124.712 44.168C125.144 44.424 125.608 44.552 126.104 44.552ZM142.358 47.288C141.478 47.288 140.734 47.144 140.126 46.856C139.534 46.552 139.014 46.16 138.566 45.68L138.83 44.96V47H135.47V28.064H138.806V38.312V37.232C139.222 36.88 139.774 36.584 140.462 36.344C141.15 36.104 141.934 35.984 142.814 35.984C143.726 35.984 144.558 36.2 145.31 36.632C146.062 37.064 146.662 37.696 147.11 38.528C147.574 39.344 147.806 40.344 147.806 41.528C147.806 42.712 147.55 43.736 147.038 44.6C146.542 45.464 145.878 46.128 145.046 46.592C144.214 47.056 143.318 47.288 142.358 47.288ZM141.614 44.456C142.11 44.456 142.566 44.328 142.982 44.072C143.414 43.816 143.758 43.464 144.014 43.016C144.27 42.568 144.398 42.064 144.398 41.504C144.398 40.944 144.27 40.448 144.014 40.016C143.758 39.584 143.414 39.248 142.982 39.008C142.566 38.752 142.11 38.624 141.614 38.624C141.182 38.624 140.774 38.696 140.39 38.84C140.022 38.968 139.702 39.16 139.43 39.416C139.174 39.656 138.974 39.952 138.83 40.304V42.872C139.022 43.224 139.246 43.52 139.502 43.76C139.774 43.984 140.086 44.16 140.438 44.288C140.79 44.4 141.182 44.456 141.614 44.456ZM155.607 47.288C154.327 47.288 153.239 47.048 152.343 46.568C151.463 46.088 150.791 45.424 150.327 44.576C149.863 43.728 149.631 42.752 149.631 41.648C149.631 40.592 149.903 39.64 150.447 38.792C150.991 37.944 151.719 37.272 152.631 36.776C153.543 36.264 154.559 36.008 155.679 36.008C157.183 36.008 158.415 36.448 159.375 37.328C160.351 38.192 160.983 39.448 161.271 41.096L153.111 43.688L152.367 41.864L158.271 39.872L157.575 40.184C157.447 39.768 157.215 39.408 156.879 39.104C156.559 38.784 156.071 38.624 155.415 38.624C154.919 38.624 154.479 38.744 154.095 38.984C153.727 39.208 153.439 39.536 153.231 39.968C153.039 40.384 152.943 40.88 152.943 41.456C152.943 42.112 153.063 42.664 153.303 43.112C153.543 43.544 153.871 43.872 154.287 44.096C154.703 44.32 155.167 44.432 155.679 44.432C156.047 44.432 156.399 44.368 156.735 44.24C157.087 44.112 157.431 43.944 157.767 43.736L159.255 46.232C158.695 46.552 158.087 46.808 157.431 47C156.791 47.192 156.183 47.288 155.607 47.288ZM166.736 36.512L167.048 39.392L166.976 38.96C167.28 38.336 167.696 37.808 168.224 37.376C168.752 36.928 169.272 36.584 169.784 36.344C170.312 36.104 170.712 35.984 170.984 35.984L170.816 39.344C170.032 39.248 169.36 39.376 168.8 39.728C168.24 40.08 167.808 40.544 167.504 41.12C167.2 41.696 167.048 42.288 167.048 42.896V47H163.712V36.512H166.736ZM174.54 31.904H177.9V36.464H180.444V39.08H177.9V47H174.54V39.08H172.908V36.464H174.54V31.904ZM187.417 47.288C186.441 47.288 185.553 47.096 184.753 46.712C183.969 46.312 183.345 45.704 182.881 44.888C182.417 44.072 182.185 43.032 182.185 41.768C182.185 40.584 182.425 39.56 182.905 38.696C183.385 37.832 184.017 37.168 184.801 36.704C185.585 36.224 186.417 35.984 187.297 35.984C188.337 35.984 189.121 36.16 189.649 36.512C190.193 36.848 190.641 37.224 190.993 37.64L190.849 38.048L191.161 36.512H194.281V47H190.921V44.72L191.185 45.44C191.153 45.44 191.057 45.536 190.897 45.728C190.737 45.904 190.497 46.12 190.177 46.376C189.873 46.616 189.489 46.824 189.025 47C188.577 47.192 188.041 47.288 187.417 47.288ZM188.377 44.552C188.777 44.552 189.137 44.496 189.457 44.384C189.777 44.256 190.057 44.08 190.297 43.856C190.537 43.616 190.745 43.32 190.921 42.968V40.4C190.793 40.048 190.601 39.752 190.345 39.512C190.089 39.256 189.785 39.064 189.433 38.936C189.081 38.792 188.689 38.72 188.257 38.72C187.777 38.72 187.329 38.848 186.913 39.104C186.513 39.344 186.193 39.68 185.953 40.112C185.713 40.544 185.593 41.04 185.593 41.6C185.593 42.16 185.721 42.664 185.977 43.112C186.233 43.56 186.569 43.912 186.985 44.168C187.417 44.424 187.881 44.552 188.377 44.552ZM198.296 29.336H210.344V32.696H201.776V36.464H209.36V39.824H201.776V43.64H210.68V47H198.296V29.336ZM212.84 29.336H217.28L228.8 47H224.312L212.84 29.336ZM212.6 47L218.888 37.112L220.52 40.616L216.92 47H212.6ZM220.76 35.816L224.408 29.336H228.632L222.56 38.816L220.76 35.816ZM230.471 29.336H242.375V32.696H238.079V47H234.599V32.696H230.471V29.336Z" fill="white"/>
<defs>
<clipPath id="clip0_0_1">
<rect width="56" height="49" fill="white" transform="translate(26 16)"/>
</clipPath>
</defs>
</svg>
