<svg width="180" height="60" viewBox="0 0 180 60" fill="none" xmlns="http://www.w3.org/2000/svg">
<rect width="180" height="60" rx="15" fill="#00BCF4"/>
<path d="M23.28 18.336H34.32V21.696H26.76V25.704H33.312V29.064H26.76V36H23.28V18.336ZM40.5737 36.288C39.5977 36.288 38.7097 36.096 37.9097 35.712C37.1257 35.312 36.5017 34.704 36.0377 33.888C35.5737 33.072 35.3417 32.032 35.3417 30.768C35.3417 29.584 35.5817 28.56 36.0617 27.696C36.5417 26.832 37.1737 26.168 37.9577 25.704C38.7417 25.224 39.5737 24.984 40.4537 24.984C41.4937 24.984 42.2777 25.16 42.8057 25.512C43.3497 25.848 43.7977 26.224 44.1497 26.64L44.0057 27.048L44.3177 25.512H47.4377V36H44.0777V33.72L44.3417 34.44C44.3097 34.44 44.2137 34.536 44.0537 34.728C43.8937 34.904 43.6537 35.12 43.3337 35.376C43.0297 35.616 42.6457 35.824 42.1817 36C41.7337 36.192 41.1977 36.288 40.5737 36.288ZM41.5337 33.552C41.9337 33.552 42.2937 33.496 42.6137 33.384C42.9337 33.256 43.2137 33.08 43.4537 32.856C43.6937 32.616 43.9017 32.32 44.0777 31.968V29.4C43.9497 29.048 43.7577 28.752 43.5017 28.512C43.2457 28.256 42.9417 28.064 42.5897 27.936C42.2377 27.792 41.8457 27.72 41.4137 27.72C40.9337 27.72 40.4857 27.848 40.0697 28.104C39.6697 28.344 39.3497 28.68 39.1097 29.112C38.8697 29.544 38.7497 30.04 38.7497 30.6C38.7497 31.16 38.8777 31.664 39.1337 32.112C39.3897 32.56 39.7257 32.912 40.1417 33.168C40.5737 33.424 41.0377 33.552 41.5337 33.552ZM52.5319 28.248C51.9559 28.248 51.4519 28.04 51.0199 27.624C50.5879 27.208 50.3719 26.648 50.3719 25.944V24.504H52.8919V24.84C52.8919 25.176 52.9479 25.376 53.0599 25.44C53.1879 25.488 53.4039 25.512 53.7079 25.512H60.3559L54.5479 33.96L53.9239 33.264H60.2839V36H49.6519L55.6279 27.288L56.1319 28.248H52.5319ZM68.5989 36.288C67.3189 36.288 66.2309 36.048 65.3349 35.568C64.4549 35.088 63.7829 34.424 63.3189 33.576C62.8549 32.728 62.6229 31.752 62.6229 30.648C62.6229 29.592 62.8949 28.64 63.4389 27.792C63.9829 26.944 64.7109 26.272 65.6229 25.776C66.5349 25.264 67.5509 25.008 68.6709 25.008C70.1749 25.008 71.4069 25.448 72.3669 26.328C73.3429 27.192 73.9749 28.448 74.2629 30.096L66.1029 32.688L65.3589 30.864L71.2629 28.872L70.5669 29.184C70.4389 28.768 70.2069 28.408 69.8709 28.104C69.5509 27.784 69.0629 27.624 68.4069 27.624C67.9109 27.624 67.4709 27.744 67.0869 27.984C66.7189 28.208 66.4309 28.536 66.2229 28.968C66.0309 29.384 65.9349 29.88 65.9349 30.456C65.9349 31.112 66.0549 31.664 66.2949 32.112C66.5349 32.544 66.8629 32.872 67.2789 33.096C67.6949 33.32 68.1589 33.432 68.6709 33.432C69.0389 33.432 69.3909 33.368 69.7269 33.24C70.0789 33.112 70.4229 32.944 70.7589 32.736L72.2469 35.232C71.6869 35.552 71.0789 35.808 70.4229 36C69.7829 36.192 69.1749 36.288 68.5989 36.288ZM79.7286 25.512L80.0406 28.392L79.9686 27.96C80.2726 27.336 80.6886 26.808 81.2166 26.376C81.7446 25.928 82.2646 25.584 82.7766 25.344C83.3046 25.104 83.7046 24.984 83.9766 24.984L83.8086 28.344C83.0246 28.248 82.3526 28.376 81.7926 28.728C81.2326 29.08 80.8006 29.544 80.4966 30.12C80.1926 30.696 80.0406 31.288 80.0406 31.896V36H76.7046V25.512H79.7286ZM94.905 18.336H98.385V32.64H106.689V36H94.905V18.336ZM108.912 30.624C108.912 29.552 109.16 28.592 109.656 27.744C110.168 26.896 110.88 26.232 111.792 25.752C112.704 25.256 113.752 25.008 114.936 25.008C116.136 25.008 117.176 25.256 118.056 25.752C118.936 26.232 119.608 26.896 120.072 27.744C120.552 28.592 120.792 29.552 120.792 30.624C120.792 31.696 120.552 32.664 120.072 33.528C119.608 34.376 118.936 35.048 118.056 35.544C117.176 36.04 116.12 36.288 114.888 36.288C113.736 36.288 112.704 36.064 111.792 35.616C110.896 35.168 110.192 34.52 109.68 33.672C109.168 32.824 108.912 31.808 108.912 30.624ZM112.296 30.648C112.296 31.192 112.408 31.688 112.632 32.136C112.856 32.568 113.16 32.912 113.544 33.168C113.928 33.424 114.36 33.552 114.84 33.552C115.368 33.552 115.824 33.424 116.208 33.168C116.592 32.912 116.888 32.568 117.096 32.136C117.304 31.688 117.408 31.192 117.408 30.648C117.408 30.088 117.304 29.592 117.096 29.16C116.888 28.728 116.592 28.384 116.208 28.128C115.824 27.872 115.368 27.744 114.84 27.744C114.36 27.744 113.928 27.872 113.544 28.128C113.16 28.384 112.856 28.728 112.632 29.16C112.408 29.592 112.296 30.088 112.296 30.648ZM128.863 41.28C127.919 41.28 127.119 41.168 126.463 40.944C125.823 40.72 125.279 40.448 124.831 40.128C124.383 39.808 123.983 39.504 123.631 39.216L125.599 36.912C125.967 37.248 126.391 37.568 126.871 37.872C127.367 38.192 128.015 38.352 128.815 38.352C129.343 38.352 129.831 38.256 130.279 38.064C130.743 37.888 131.111 37.624 131.383 37.272C131.671 36.92 131.815 36.48 131.815 35.952V33.648L131.935 34.248C131.679 34.792 131.215 35.272 130.543 35.688C129.871 36.088 128.991 36.288 127.903 36.288C126.959 36.288 126.079 36.048 125.263 35.568C124.463 35.072 123.823 34.408 123.343 33.576C122.863 32.728 122.623 31.768 122.623 30.696C122.623 29.592 122.879 28.616 123.391 27.768C123.903 26.904 124.567 26.224 125.383 25.728C126.199 25.232 127.063 24.984 127.975 24.984C128.887 24.984 129.671 25.12 130.327 25.392C130.999 25.648 131.503 25.968 131.839 26.352L131.719 26.664L132.079 25.512H135.175V36C135.175 37.024 134.887 37.928 134.311 38.712C133.735 39.512 132.967 40.136 132.007 40.584C131.063 41.048 130.015 41.28 128.863 41.28ZM126.007 30.6C126.007 31.16 126.135 31.664 126.391 32.112C126.647 32.56 126.991 32.912 127.423 33.168C127.871 33.424 128.367 33.552 128.911 33.552C129.375 33.552 129.783 33.496 130.135 33.384C130.503 33.256 130.823 33.08 131.095 32.856C131.383 32.616 131.623 32.32 131.815 31.968V29.4C131.671 29.048 131.455 28.752 131.167 28.512C130.879 28.256 130.543 28.064 130.159 27.936C129.791 27.792 129.375 27.72 128.911 27.72C128.367 27.72 127.871 27.848 127.423 28.104C126.991 28.344 126.647 28.68 126.391 29.112C126.135 29.544 126.007 30.04 126.007 30.6ZM138.626 25.512H141.986V36H138.626V25.512ZM138.554 21.792C138.554 21.296 138.746 20.888 139.13 20.568C139.53 20.248 139.954 20.088 140.402 20.088C140.85 20.088 141.258 20.248 141.626 20.568C142.01 20.888 142.202 21.296 142.202 21.792C142.202 22.288 142.01 22.696 141.626 23.016C141.258 23.32 140.85 23.472 140.402 23.472C139.954 23.472 139.53 23.32 139.13 23.016C138.746 22.696 138.554 22.288 138.554 21.792ZM148.495 25.512L148.759 27.384L148.711 27.216C149.079 26.56 149.599 26.032 150.271 25.632C150.943 25.216 151.767 25.008 152.743 25.008C153.735 25.008 154.559 25.304 155.215 25.896C155.887 26.472 156.231 27.224 156.247 28.152V36H152.887V29.4C152.871 28.936 152.743 28.568 152.503 28.296C152.279 28.008 151.895 27.864 151.351 27.864C150.839 27.864 150.391 28.032 150.007 28.368C149.623 28.704 149.327 29.16 149.119 29.736C148.911 30.312 148.807 30.976 148.807 31.728V36H145.447V25.512H148.495Z" fill="white"/>
</svg>
