<svg width="335" height="45" viewBox="0 0 335 45" fill="none" xmlns="http://www.w3.org/2000/svg">
<rect width="335" height="45" rx="5" fill="white"/>
<path d="M70.944 13.336L76.104 26.056L74.088 25.648L78.768 13.336H82.896L74.832 31.816L66.768 13.336H70.944ZM87.5599 31.288C86.2799 31.288 85.1919 31.048 84.2959 30.568C83.4159 30.088 82.7439 29.424 82.2799 28.576C81.8159 27.728 81.5839 26.752 81.5839 25.648C81.5839 24.592 81.8559 23.64 82.3999 22.792C82.9439 21.944 83.6719 21.272 84.5839 20.776C85.4959 20.264 86.5119 20.008 87.6319 20.008C89.1359 20.008 90.3679 20.448 91.3279 21.328C92.3039 22.192 92.9359 23.448 93.2239 25.096L85.0639 27.688L84.3199 25.864L90.2239 23.872L89.5279 24.184C89.3999 23.768 89.1679 23.408 88.8319 23.104C88.5119 22.784 88.0239 22.624 87.3679 22.624C86.8719 22.624 86.4319 22.744 86.0479 22.984C85.6799 23.208 85.3919 23.536 85.1839 23.968C84.9919 24.384 84.8959 24.88 84.8959 25.456C84.8959 26.112 85.0159 26.664 85.2559 27.112C85.4959 27.544 85.8239 27.872 86.2399 28.096C86.6559 28.32 87.1199 28.432 87.6319 28.432C87.9999 28.432 88.3519 28.368 88.6879 28.24C89.0399 28.112 89.3839 27.944 89.7199 27.736L91.2079 30.232C90.6479 30.552 90.0399 30.808 89.3839 31C88.7439 31.192 88.1359 31.288 87.5599 31.288ZM98.6895 20.512L99.0015 23.392L98.9295 22.96C99.2335 22.336 99.6495 21.808 100.178 21.376C100.706 20.928 101.226 20.584 101.738 20.344C102.266 20.104 102.666 19.984 102.938 19.984L102.77 23.344C101.986 23.248 101.314 23.376 100.754 23.728C100.194 24.08 99.7615 24.544 99.4575 25.12C99.1535 25.696 99.0015 26.288 99.0015 26.896V31H95.6655V20.512H98.6895ZM108.917 31.216C108.053 31.216 107.245 31.064 106.493 30.76C105.757 30.456 105.133 30.032 104.621 29.488L106.013 27.64C106.525 28.104 106.997 28.44 107.429 28.648C107.877 28.84 108.277 28.936 108.629 28.936C108.901 28.936 109.141 28.912 109.349 28.864C109.573 28.8 109.749 28.712 109.877 28.6C110.005 28.472 110.069 28.312 110.069 28.12C110.069 27.848 109.957 27.632 109.733 27.472C109.525 27.312 109.253 27.184 108.917 27.088C108.581 26.976 108.221 26.864 107.837 26.752C106.877 26.448 106.181 26.008 105.749 25.432C105.333 24.84 105.125 24.2 105.125 23.512C105.125 22.984 105.261 22.456 105.533 21.928C105.821 21.384 106.269 20.936 106.877 20.584C107.501 20.216 108.301 20.032 109.277 20.032C110.157 20.032 110.901 20.12 111.509 20.296C112.117 20.472 112.693 20.76 113.237 21.16L111.965 23.128C111.661 22.888 111.317 22.688 110.933 22.528C110.565 22.352 110.221 22.256 109.901 22.24C109.613 22.224 109.365 22.256 109.157 22.336C108.965 22.416 108.813 22.52 108.701 22.648C108.589 22.776 108.533 22.912 108.533 23.056C108.517 23.36 108.629 23.6 108.869 23.776C109.125 23.952 109.445 24.088 109.829 24.184C110.213 24.28 110.589 24.392 110.957 24.52C111.469 24.68 111.909 24.896 112.277 25.168C112.645 25.44 112.925 25.768 113.117 26.152C113.325 26.52 113.429 26.968 113.429 27.496C113.429 28.136 113.261 28.744 112.925 29.32C112.605 29.88 112.109 30.336 111.437 30.688C110.781 31.04 109.941 31.216 108.917 31.216ZM120.66 31.288C119.684 31.288 118.796 31.096 117.996 30.712C117.212 30.312 116.588 29.704 116.124 28.888C115.66 28.072 115.428 27.032 115.428 25.768C115.428 24.584 115.668 23.56 116.148 22.696C116.628 21.832 117.26 21.168 118.044 20.704C118.828 20.224 119.66 19.984 120.54 19.984C121.58 19.984 122.364 20.16 122.892 20.512C123.436 20.848 123.884 21.224 124.236 21.64L124.092 22.048L124.404 20.512H127.524V31H124.164V28.72L124.428 29.44C124.396 29.44 124.3 29.536 124.14 29.728C123.98 29.904 123.74 30.12 123.42 30.376C123.116 30.616 122.732 30.824 122.268 31C121.82 31.192 121.284 31.288 120.66 31.288ZM121.62 28.552C122.02 28.552 122.38 28.496 122.7 28.384C123.02 28.256 123.3 28.08 123.54 27.856C123.78 27.616 123.988 27.32 124.164 26.968V24.4C124.036 24.048 123.844 23.752 123.588 23.512C123.332 23.256 123.028 23.064 122.676 22.936C122.324 22.792 121.932 22.72 121.5 22.72C121.02 22.72 120.572 22.848 120.156 23.104C119.756 23.344 119.436 23.68 119.196 24.112C118.956 24.544 118.836 25.04 118.836 25.6C118.836 26.16 118.964 26.664 119.22 27.112C119.476 27.56 119.812 27.912 120.228 28.168C120.66 28.424 121.124 28.552 121.62 28.552ZM124.26 19.336C123.716 19.336 123.26 19.224 122.892 19C122.524 18.76 122.188 18.52 121.884 18.28C121.708 18.136 121.532 18.008 121.356 17.896C121.196 17.784 121.02 17.728 120.828 17.728C120.62 17.728 120.452 17.808 120.324 17.968C120.212 18.128 120.14 18.328 120.108 18.568C120.076 18.808 120.076 19.048 120.108 19.288H118.428C118.348 18.664 118.396 18.072 118.572 17.512C118.764 16.952 119.06 16.496 119.46 16.144C119.876 15.792 120.396 15.616 121.02 15.616C121.42 15.616 121.78 15.728 122.1 15.952C122.42 16.176 122.716 16.4 122.988 16.624C123.212 16.816 123.42 16.984 123.612 17.128C123.804 17.272 123.996 17.344 124.188 17.344C124.492 17.344 124.668 17.168 124.716 16.816C124.78 16.448 124.804 16.072 124.788 15.688H126.468C126.58 16.376 126.548 17 126.372 17.56C126.196 18.104 125.916 18.536 125.532 18.856C125.164 19.176 124.74 19.336 124.26 19.336ZM130.17 25.624C130.17 24.552 130.418 23.592 130.914 22.744C131.426 21.896 132.138 21.232 133.05 20.752C133.962 20.256 135.01 20.008 136.194 20.008C137.394 20.008 138.434 20.256 139.314 20.752C140.194 21.232 140.866 21.896 141.33 22.744C141.81 23.592 142.05 24.552 142.05 25.624C142.05 26.696 141.81 27.664 141.33 28.528C140.866 29.376 140.194 30.048 139.314 30.544C138.434 31.04 137.378 31.288 136.146 31.288C134.994 31.288 133.962 31.064 133.05 30.616C132.154 30.168 131.45 29.52 130.938 28.672C130.426 27.824 130.17 26.808 130.17 25.624ZM133.554 25.648C133.554 26.192 133.666 26.688 133.89 27.136C134.114 27.568 134.418 27.912 134.802 28.168C135.186 28.424 135.618 28.552 136.098 28.552C136.626 28.552 137.082 28.424 137.466 28.168C137.85 27.912 138.146 27.568 138.354 27.136C138.562 26.688 138.666 26.192 138.666 25.648C138.666 25.088 138.562 24.592 138.354 24.16C138.146 23.728 137.85 23.384 137.466 23.128C137.082 22.872 136.626 22.744 136.098 22.744C135.618 22.744 135.186 22.872 134.802 23.128C134.418 23.384 134.114 23.728 133.89 24.16C133.666 24.592 133.554 25.088 133.554 25.648ZM161.405 30.064C160.941 30.432 160.357 30.728 159.653 30.952C158.965 31.176 158.285 31.288 157.613 31.288C156.413 31.288 155.365 31.072 154.469 30.64C153.589 30.192 152.901 29.56 152.405 28.744C151.925 27.912 151.685 26.912 151.685 25.744C151.685 24.576 151.949 23.584 152.477 22.768C153.005 21.936 153.693 21.304 154.541 20.872C155.405 20.44 156.309 20.224 157.253 20.224C158.197 20.224 159.013 20.352 159.701 20.608C160.405 20.864 161.005 21.2 161.501 21.616L159.869 23.776C159.645 23.6 159.333 23.424 158.933 23.248C158.549 23.056 158.093 22.96 157.565 22.96C157.101 22.96 156.677 23.08 156.293 23.32C155.909 23.56 155.605 23.888 155.381 24.304C155.157 24.72 155.045 25.2 155.045 25.744C155.045 26.256 155.165 26.728 155.405 27.16C155.645 27.592 155.973 27.936 156.389 28.192C156.821 28.432 157.325 28.552 157.901 28.552C158.269 28.552 158.605 28.504 158.909 28.408C159.229 28.296 159.501 28.144 159.725 27.952L161.405 30.064ZM163.17 25.624C163.17 24.552 163.418 23.592 163.914 22.744C164.426 21.896 165.138 21.232 166.05 20.752C166.962 20.256 168.01 20.008 169.194 20.008C170.394 20.008 171.434 20.256 172.314 20.752C173.194 21.232 173.866 21.896 174.33 22.744C174.81 23.592 175.05 24.552 175.05 25.624C175.05 26.696 174.81 27.664 174.33 28.528C173.866 29.376 173.194 30.048 172.314 30.544C171.434 31.04 170.378 31.288 169.146 31.288C167.994 31.288 166.962 31.064 166.05 30.616C165.154 30.168 164.45 29.52 163.938 28.672C163.426 27.824 163.17 26.808 163.17 25.624ZM166.554 25.648C166.554 26.192 166.666 26.688 166.89 27.136C167.114 27.568 167.418 27.912 167.802 28.168C168.186 28.424 168.618 28.552 169.098 28.552C169.626 28.552 170.082 28.424 170.466 28.168C170.85 27.912 171.146 27.568 171.354 27.136C171.562 26.688 171.666 26.192 171.666 25.648C171.666 25.088 171.562 24.592 171.354 24.16C171.146 23.728 170.85 23.384 170.466 23.128C170.082 22.872 169.626 22.744 169.098 22.744C168.618 22.744 168.186 22.872 167.802 23.128C167.418 23.384 167.114 23.728 166.89 24.16C166.666 24.592 166.554 25.088 166.554 25.648ZM180.745 20.512L181.009 22.36L180.961 22.216C181.377 21.512 181.897 20.968 182.521 20.584C183.145 20.184 183.897 19.984 184.777 19.984C185.353 19.984 185.857 20.064 186.289 20.224C186.737 20.384 187.113 20.624 187.417 20.944C187.721 21.248 187.929 21.648 188.041 22.144L187.921 22.168C188.369 21.512 188.905 20.984 189.529 20.584C190.169 20.184 190.833 19.984 191.521 19.984C192.561 19.984 193.385 20.28 193.993 20.872C194.617 21.448 194.937 22.2 194.953 23.128V31H191.617V24.52C191.601 24.056 191.529 23.68 191.401 23.392C191.273 23.088 190.977 22.92 190.513 22.888C189.969 22.888 189.505 23.08 189.121 23.464C188.753 23.832 188.473 24.312 188.281 24.904C188.105 25.48 188.017 26.08 188.017 26.704V31H184.657V24.52C184.641 24.056 184.553 23.68 184.393 23.392C184.249 23.088 183.945 22.92 183.481 22.888C182.953 22.888 182.505 23.08 182.137 23.464C181.785 23.832 181.513 24.304 181.321 24.88C181.145 25.456 181.057 26.048 181.057 26.656V31H177.697V20.512H180.745ZM206.22 12.064H209.58V31H206.22V12.064ZM213.041 20.512H216.401V31H213.041V20.512ZM212.969 16.792C212.969 16.296 213.161 15.888 213.545 15.568C213.945 15.248 214.369 15.088 214.817 15.088C215.265 15.088 215.673 15.248 216.041 15.568C216.425 15.888 216.617 16.296 216.617 16.792C216.617 17.288 216.425 17.696 216.041 18.016C215.673 18.32 215.265 18.472 214.817 18.472C214.369 18.472 213.945 18.32 213.545 18.016C213.161 17.696 212.969 17.288 212.969 16.792ZM226.749 31.288C225.869 31.288 225.125 31.144 224.517 30.856C223.925 30.552 223.405 30.16 222.957 29.68L223.221 28.96V31H219.861V12.064H223.197V22.312V21.232C223.613 20.88 224.165 20.584 224.853 20.344C225.541 20.104 226.325 19.984 227.205 19.984C228.117 19.984 228.949 20.2 229.701 20.632C230.453 21.064 231.053 21.696 231.501 22.528C231.965 23.344 232.197 24.344 232.197 25.528C232.197 26.712 231.941 27.736 231.429 28.6C230.933 29.464 230.269 30.128 229.437 30.592C228.605 31.056 227.709 31.288 226.749 31.288ZM226.005 28.456C226.501 28.456 226.957 28.328 227.373 28.072C227.805 27.816 228.149 27.464 228.405 27.016C228.661 26.568 228.789 26.064 228.789 25.504C228.789 24.944 228.661 24.448 228.405 24.016C228.149 23.584 227.805 23.248 227.373 23.008C226.957 22.752 226.501 22.624 226.005 22.624C225.573 22.624 225.165 22.696 224.781 22.84C224.413 22.968 224.093 23.16 223.821 23.416C223.565 23.656 223.365 23.952 223.221 24.304V26.872C223.413 27.224 223.637 27.52 223.893 27.76C224.165 27.984 224.477 28.16 224.829 28.288C225.181 28.4 225.573 28.456 226.005 28.456ZM237.861 20.512L238.173 23.392L238.101 22.96C238.405 22.336 238.821 21.808 239.349 21.376C239.877 20.928 240.397 20.584 240.909 20.344C241.437 20.104 241.837 19.984 242.109 19.984L241.941 23.344C241.157 23.248 240.485 23.376 239.925 23.728C239.365 24.08 238.933 24.544 238.629 25.12C238.325 25.696 238.173 26.288 238.173 26.896V31H234.837V20.512H237.861ZM248.746 31.288C247.77 31.288 246.882 31.096 246.082 30.712C245.298 30.312 244.674 29.704 244.21 28.888C243.746 28.072 243.514 27.032 243.514 25.768C243.514 24.584 243.754 23.56 244.234 22.696C244.714 21.832 245.346 21.168 246.13 20.704C246.914 20.224 247.746 19.984 248.626 19.984C249.666 19.984 250.45 20.16 250.978 20.512C251.522 20.848 251.97 21.224 252.322 21.64L252.178 22.048L252.49 20.512H255.61V31H252.25V28.72L252.514 29.44C252.482 29.44 252.386 29.536 252.226 29.728C252.066 29.904 251.826 30.12 251.506 30.376C251.202 30.616 250.818 30.824 250.354 31C249.906 31.192 249.37 31.288 248.746 31.288ZM249.706 28.552C250.106 28.552 250.466 28.496 250.786 28.384C251.106 28.256 251.386 28.08 251.626 27.856C251.866 27.616 252.074 27.32 252.25 26.968V24.4C252.122 24.048 251.93 23.752 251.674 23.512C251.418 23.256 251.114 23.064 250.762 22.936C250.41 22.792 250.018 22.72 249.586 22.72C249.106 22.72 248.658 22.848 248.242 23.104C247.842 23.344 247.522 23.68 247.282 24.112C247.042 24.544 246.922 25.04 246.922 25.6C246.922 26.16 247.05 26.664 247.306 27.112C247.562 27.56 247.898 27.912 248.314 28.168C248.746 28.424 249.21 28.552 249.706 28.552ZM262.48 31.216C261.616 31.216 260.808 31.064 260.056 30.76C259.32 30.456 258.696 30.032 258.184 29.488L259.576 27.64C260.088 28.104 260.56 28.44 260.992 28.648C261.44 28.84 261.84 28.936 262.192 28.936C262.464 28.936 262.704 28.912 262.912 28.864C263.136 28.8 263.312 28.712 263.44 28.6C263.568 28.472 263.632 28.312 263.632 28.12C263.632 27.848 263.52 27.632 263.296 27.472C263.088 27.312 262.816 27.184 262.48 27.088C262.144 26.976 261.784 26.864 261.4 26.752C260.44 26.448 259.744 26.008 259.312 25.432C258.896 24.84 258.688 24.2 258.688 23.512C258.688 22.984 258.824 22.456 259.096 21.928C259.384 21.384 259.832 20.936 260.44 20.584C261.064 20.216 261.864 20.032 262.84 20.032C263.72 20.032 264.464 20.12 265.072 20.296C265.68 20.472 266.256 20.76 266.8 21.16L265.528 23.128C265.224 22.888 264.88 22.688 264.496 22.528C264.128 22.352 263.784 22.256 263.464 22.24C263.176 22.224 262.928 22.256 262.72 22.336C262.528 22.416 262.376 22.52 262.264 22.648C262.152 22.776 262.096 22.912 262.096 23.056C262.08 23.36 262.192 23.6 262.432 23.776C262.688 23.952 263.008 24.088 263.392 24.184C263.776 24.28 264.152 24.392 264.52 24.52C265.032 24.68 265.472 24.896 265.84 25.168C266.208 25.44 266.488 25.768 266.68 26.152C266.888 26.52 266.992 26.968 266.992 27.496C266.992 28.136 266.824 28.744 266.488 29.32C266.168 29.88 265.672 30.336 265 30.688C264.344 31.04 263.504 31.216 262.48 31.216Z" fill="#00759F"/>
</svg>
