<svg width="207" height="62" viewBox="0 0 207 62" fill="none" xmlns="http://www.w3.org/2000/svg">
<rect width="207" height="62" rx="10" fill="#00BCF4"/>
<path d="M30.0683 39V18.112H30.0963L40.7083 33.176L39.5603 32.952L50.1443 18.112H50.2003V39H47.5123V24.272L47.6803 25.644L40.0363 36.452H39.9803L32.2243 25.644L32.7003 24.384V39H30.0683ZM60.7495 39.28C59.4241 39.28 58.2855 39.0187 57.3335 38.496C56.3815 37.9547 55.6441 37.2267 55.1215 36.312C54.6175 35.3787 54.3655 34.3147 54.3655 33.12C54.3655 31.9813 54.6548 30.9453 55.2335 30.012C55.8121 29.0787 56.5868 28.332 57.5575 27.772C58.5281 27.212 59.6108 26.932 60.8055 26.932C62.3361 26.932 63.6055 27.38 64.6135 28.276C65.6215 29.172 66.3028 30.404 66.6575 31.972L57.1095 35.332L56.4935 33.792L64.3335 30.936L63.7735 31.3C63.5495 30.684 63.1761 30.152 62.6535 29.704C62.1308 29.2373 61.4495 29.004 60.6095 29.004C59.9001 29.004 59.2655 29.1813 58.7055 29.536C58.1455 29.872 57.7068 30.3387 57.3895 30.936C57.0721 31.5333 56.9135 32.2147 56.9135 32.98C56.9135 33.7827 57.0815 34.492 57.4175 35.108C57.7535 35.7053 58.2108 36.1813 58.7895 36.536C59.3868 36.872 60.0588 37.04 60.8055 37.04C61.3095 37.04 61.7948 36.9467 62.2615 36.76C62.7468 36.5733 63.1948 36.3307 63.6055 36.032L64.8095 37.964C64.2308 38.356 63.5775 38.6733 62.8495 38.916C62.1401 39.1587 61.4401 39.28 60.7495 39.28ZM73.5883 39.448C72.543 39.448 71.675 39.1307 70.9843 38.496C70.3123 37.8427 69.9577 37.0027 69.9203 35.976V27.408H72.5243V35.052C72.5617 35.6867 72.739 36.2 73.0563 36.592C73.3923 36.984 73.915 37.1893 74.6243 37.208C75.2777 37.208 75.8563 37.0213 76.3603 36.648C76.883 36.256 77.303 35.7333 77.6203 35.08C77.9377 34.408 78.0963 33.652 78.0963 32.812V27.408H80.7003V39H78.3203L78.0963 36.144L78.2363 36.648C78.0123 37.1893 77.667 37.6747 77.2003 38.104C76.7523 38.5147 76.2203 38.8413 75.6043 39.084C74.9883 39.3267 74.3163 39.448 73.5883 39.448ZM88.4535 39.224C87.6322 39.224 86.8295 39.084 86.0455 38.804C85.2802 38.5053 84.6455 38.0667 84.1415 37.488L85.2335 35.976C85.7188 36.4427 86.2135 36.7973 86.7175 37.04C87.2402 37.264 87.7535 37.376 88.2575 37.376C88.6308 37.376 88.9762 37.3293 89.2935 37.236C89.6108 37.1427 89.8628 36.9933 90.0495 36.788C90.2548 36.564 90.3575 36.2653 90.3575 35.892C90.3575 35.4813 90.2175 35.1547 89.9375 34.912C89.6762 34.6693 89.3308 34.4733 88.9015 34.324C88.4908 34.1747 88.0522 34.0347 87.5855 33.904C86.6335 33.5867 85.9055 33.148 85.4015 32.588C84.8975 32.028 84.6455 31.3467 84.6455 30.544C84.6455 29.928 84.7948 29.3587 85.0935 28.836C85.4108 28.2947 85.8682 27.856 86.4655 27.52C87.0815 27.184 87.8375 27.016 88.7335 27.016C89.5362 27.016 90.2548 27.1187 90.8895 27.324C91.5242 27.5107 92.1215 27.828 92.6815 28.276L91.6455 29.9C91.3095 29.5453 90.9082 29.284 90.4415 29.116C89.9748 28.948 89.5548 28.8547 89.1815 28.836C88.8642 28.8173 88.5562 28.864 88.2575 28.976C87.9775 29.088 87.7442 29.2467 87.5575 29.452C87.3708 29.6573 87.2775 29.9 87.2775 30.18C87.2775 30.572 87.4082 30.8893 87.6695 31.132C87.9308 31.3747 88.2668 31.5707 88.6775 31.72C89.1068 31.8507 89.5268 31.9907 89.9375 32.14C90.5162 32.308 91.0295 32.532 91.4775 32.812C91.9255 33.092 92.2802 33.4373 92.5415 33.848C92.8215 34.2587 92.9615 34.772 92.9615 35.388C92.9615 36.0787 92.7935 36.7227 92.4575 37.32C92.1402 37.8987 91.6455 38.3653 90.9735 38.72C90.3202 39.056 89.4802 39.224 88.4535 39.224ZM114.875 37.936C114.353 38.3467 113.727 38.6733 112.999 38.916C112.271 39.1587 111.543 39.28 110.815 39.28C109.546 39.28 108.435 39.028 107.483 38.524C106.531 38.02 105.785 37.32 105.243 36.424C104.721 35.5093 104.459 34.436 104.459 33.204C104.459 31.972 104.739 30.8987 105.299 29.984C105.878 29.0693 106.625 28.3693 107.539 27.884C108.473 27.38 109.471 27.128 110.535 27.128C111.469 27.128 112.299 27.2587 113.027 27.52C113.774 27.7813 114.409 28.136 114.931 28.584L113.643 30.264C113.307 30.0027 112.897 29.7693 112.411 29.564C111.926 29.3587 111.375 29.256 110.759 29.256C110.087 29.256 109.462 29.4333 108.883 29.788C108.323 30.124 107.875 30.5907 107.539 31.188C107.222 31.7853 107.063 32.4573 107.063 33.204C107.063 33.9133 107.231 34.576 107.567 35.192C107.903 35.7893 108.37 36.2653 108.967 36.62C109.565 36.956 110.246 37.124 111.011 37.124C111.515 37.124 111.973 37.0493 112.383 36.9C112.813 36.7507 113.195 36.5453 113.531 36.284L114.875 37.936ZM121.905 39.448C120.859 39.448 119.991 39.1307 119.301 38.496C118.629 37.8427 118.274 37.0027 118.237 35.976V27.408H120.841V35.052C120.878 35.6867 121.055 36.2 121.373 36.592C121.709 36.984 122.231 37.1893 122.941 37.208C123.594 37.208 124.173 37.0213 124.677 36.648C125.199 36.256 125.619 35.7333 125.937 35.08C126.254 34.408 126.413 33.652 126.413 32.812V27.408H129.017V39H126.637L126.413 36.144L126.553 36.648C126.329 37.1893 125.983 37.6747 125.517 38.104C125.069 38.5147 124.537 38.8413 123.921 39.084C123.305 39.3267 122.633 39.448 121.905 39.448ZM135.846 27.408L136.098 30.768L135.958 30.32C136.257 29.6107 136.686 29.0133 137.246 28.528C137.825 28.024 138.422 27.6413 139.038 27.38C139.673 27.1 140.223 26.96 140.69 26.96L140.55 29.536C139.673 29.48 138.898 29.648 138.226 30.04C137.573 30.432 137.05 30.9547 136.658 31.608C136.285 32.2613 136.098 32.9613 136.098 33.708V39H133.522V27.408H135.846ZM147.297 39.224C146.476 39.224 145.673 39.084 144.889 38.804C144.124 38.5053 143.489 38.0667 142.985 37.488L144.077 35.976C144.563 36.4427 145.057 36.7973 145.561 37.04C146.084 37.264 146.597 37.376 147.101 37.376C147.475 37.376 147.82 37.3293 148.137 37.236C148.455 37.1427 148.707 36.9933 148.893 36.788C149.099 36.564 149.201 36.2653 149.201 35.892C149.201 35.4813 149.061 35.1547 148.781 34.912C148.52 34.6693 148.175 34.4733 147.745 34.324C147.335 34.1747 146.896 34.0347 146.429 33.904C145.477 33.5867 144.749 33.148 144.245 32.588C143.741 32.028 143.489 31.3467 143.489 30.544C143.489 29.928 143.639 29.3587 143.937 28.836C144.255 28.2947 144.712 27.856 145.309 27.52C145.925 27.184 146.681 27.016 147.577 27.016C148.38 27.016 149.099 27.1187 149.733 27.324C150.368 27.5107 150.965 27.828 151.525 28.276L150.489 29.9C150.153 29.5453 149.752 29.284 149.285 29.116C148.819 28.948 148.399 28.8547 148.025 28.836C147.708 28.8173 147.4 28.864 147.101 28.976C146.821 29.088 146.588 29.2467 146.401 29.452C146.215 29.6573 146.121 29.9 146.121 30.18C146.121 30.572 146.252 30.8893 146.513 31.132C146.775 31.3747 147.111 31.5707 147.521 31.72C147.951 31.8507 148.371 31.9907 148.781 32.14C149.36 32.308 149.873 32.532 150.321 32.812C150.769 33.092 151.124 33.4373 151.385 33.848C151.665 34.2587 151.805 34.772 151.805 35.388C151.805 36.0787 151.637 36.7227 151.301 37.32C150.984 37.8987 150.489 38.3653 149.817 38.72C149.164 39.056 148.324 39.224 147.297 39.224ZM154.444 33.092C154.444 31.9347 154.714 30.8893 155.256 29.956C155.816 29.0227 156.581 28.2853 157.552 27.744C158.522 27.2027 159.624 26.932 160.856 26.932C162.125 26.932 163.236 27.2027 164.188 27.744C165.14 28.2853 165.877 29.0227 166.4 29.956C166.922 30.8893 167.184 31.9347 167.184 33.092C167.184 34.2493 166.922 35.304 166.4 36.256C165.877 37.1893 165.13 37.9267 164.16 38.468C163.208 39.0093 162.097 39.28 160.828 39.28C159.596 39.28 158.494 39.028 157.524 38.524C156.572 38.0013 155.816 37.2827 155.256 36.368C154.714 35.4347 154.444 34.3427 154.444 33.092ZM157.048 33.12C157.048 33.8667 157.216 34.548 157.552 35.164C157.888 35.7613 158.336 36.2373 158.896 36.592C159.474 36.9467 160.109 37.124 160.8 37.124C161.528 37.124 162.172 36.9467 162.732 36.592C163.31 36.2373 163.758 35.7613 164.076 35.164C164.393 34.548 164.552 33.8667 164.552 33.12C164.552 32.3733 164.393 31.7013 164.076 31.104C163.758 30.488 163.31 30.0027 162.732 29.648C162.172 29.2747 161.528 29.088 160.8 29.088C160.09 29.088 159.446 29.2747 158.868 29.648C158.308 30.0213 157.86 30.516 157.524 31.132C157.206 31.7293 157.048 32.392 157.048 33.12ZM173.957 39.224C173.136 39.224 172.333 39.084 171.549 38.804C170.784 38.5053 170.149 38.0667 169.645 37.488L170.737 35.976C171.223 36.4427 171.717 36.7973 172.221 37.04C172.744 37.264 173.257 37.376 173.761 37.376C174.135 37.376 174.48 37.3293 174.797 37.236C175.115 37.1427 175.367 36.9933 175.553 36.788C175.759 36.564 175.861 36.2653 175.861 35.892C175.861 35.4813 175.721 35.1547 175.441 34.912C175.18 34.6693 174.835 34.4733 174.405 34.324C173.995 34.1747 173.556 34.0347 173.089 33.904C172.137 33.5867 171.409 33.148 170.905 32.588C170.401 32.028 170.149 31.3467 170.149 30.544C170.149 29.928 170.299 29.3587 170.597 28.836C170.915 28.2947 171.372 27.856 171.969 27.52C172.585 27.184 173.341 27.016 174.237 27.016C175.04 27.016 175.759 27.1187 176.393 27.324C177.028 27.5107 177.625 27.828 178.185 28.276L177.149 29.9C176.813 29.5453 176.412 29.284 175.945 29.116C175.479 28.948 175.059 28.8547 174.685 28.836C174.368 28.8173 174.06 28.864 173.761 28.976C173.481 29.088 173.248 29.2467 173.061 29.452C172.875 29.6573 172.781 29.9 172.781 30.18C172.781 30.572 172.912 30.8893 173.173 31.132C173.435 31.3747 173.771 31.5707 174.181 31.72C174.611 31.8507 175.031 31.9907 175.441 32.14C176.02 32.308 176.533 32.532 176.981 32.812C177.429 33.092 177.784 33.4373 178.045 33.848C178.325 34.2587 178.465 34.772 178.465 35.388C178.465 36.0787 178.297 36.7227 177.961 37.32C177.644 37.8987 177.149 38.3653 176.477 38.72C175.824 39.056 174.984 39.224 173.957 39.224Z" fill="white"/>
</svg>
