<svg width="300" height="125" viewBox="0 0 300 125" fill="none" xmlns="http://www.w3.org/2000/svg">
<rect width="300" height="125" rx="10" fill="#FFA508"/>
<path d="M107.144 47.288C106.168 47.288 105.28 47.096 104.48 46.712C103.696 46.312 103.072 45.704 102.608 44.888C102.144 44.072 101.912 43.032 101.912 41.768C101.912 40.584 102.152 39.56 102.632 38.696C103.112 37.832 103.744 37.168 104.528 36.704C105.312 36.224 106.144 35.984 107.024 35.984C108.064 35.984 108.848 36.16 109.376 36.512C109.92 36.848 110.368 37.224 110.72 37.64L110.576 38.048L110.888 36.512H114.008V47H110.648V44.72L110.912 45.44C110.88 45.44 110.784 45.536 110.624 45.728C110.464 45.904 110.224 46.12 109.904 46.376C109.6 46.616 109.216 46.824 108.752 47C108.304 47.192 107.768 47.288 107.144 47.288ZM108.104 44.552C108.504 44.552 108.864 44.496 109.184 44.384C109.504 44.256 109.784 44.08 110.024 43.856C110.264 43.616 110.472 43.32 110.648 42.968V40.4C110.52 40.048 110.328 39.752 110.072 39.512C109.816 39.256 109.512 39.064 109.16 38.936C108.808 38.792 108.416 38.72 107.984 38.72C107.504 38.72 107.056 38.848 106.64 39.104C106.24 39.344 105.92 39.68 105.68 40.112C105.44 40.544 105.32 41.04 105.32 41.6C105.32 42.16 105.448 42.664 105.704 43.112C105.96 43.56 106.296 43.912 106.712 44.168C107.144 44.424 107.608 44.552 108.104 44.552ZM124.358 47.288C123.478 47.288 122.734 47.144 122.126 46.856C121.534 46.552 121.014 46.16 120.566 45.68L120.83 44.96V47H117.47V28.064H120.806V38.312V37.232C121.222 36.88 121.774 36.584 122.462 36.344C123.15 36.104 123.934 35.984 124.814 35.984C125.726 35.984 126.558 36.2 127.31 36.632C128.062 37.064 128.662 37.696 129.11 38.528C129.574 39.344 129.806 40.344 129.806 41.528C129.806 42.712 129.55 43.736 129.038 44.6C128.542 45.464 127.878 46.128 127.046 46.592C126.214 47.056 125.318 47.288 124.358 47.288ZM123.614 44.456C124.11 44.456 124.566 44.328 124.982 44.072C125.414 43.816 125.758 43.464 126.014 43.016C126.27 42.568 126.398 42.064 126.398 41.504C126.398 40.944 126.27 40.448 126.014 40.016C125.758 39.584 125.414 39.248 124.982 39.008C124.566 38.752 124.11 38.624 123.614 38.624C123.182 38.624 122.774 38.696 122.39 38.84C122.022 38.968 121.702 39.16 121.43 39.416C121.174 39.656 120.974 39.952 120.83 40.304V42.872C121.022 43.224 121.246 43.52 121.502 43.76C121.774 43.984 122.086 44.16 122.438 44.288C122.79 44.4 123.182 44.456 123.614 44.456ZM137.607 47.288C136.327 47.288 135.239 47.048 134.343 46.568C133.463 46.088 132.791 45.424 132.327 44.576C131.863 43.728 131.631 42.752 131.631 41.648C131.631 40.592 131.903 39.64 132.447 38.792C132.991 37.944 133.719 37.272 134.631 36.776C135.543 36.264 136.559 36.008 137.679 36.008C139.183 36.008 140.415 36.448 141.375 37.328C142.351 38.192 142.983 39.448 143.271 41.096L135.111 43.688L134.367 41.864L140.271 39.872L139.575 40.184C139.447 39.768 139.215 39.408 138.879 39.104C138.559 38.784 138.071 38.624 137.415 38.624C136.919 38.624 136.479 38.744 136.095 38.984C135.727 39.208 135.439 39.536 135.231 39.968C135.039 40.384 134.943 40.88 134.943 41.456C134.943 42.112 135.063 42.664 135.303 43.112C135.543 43.544 135.871 43.872 136.287 44.096C136.703 44.32 137.167 44.432 137.679 44.432C138.047 44.432 138.399 44.368 138.735 44.24C139.087 44.112 139.431 43.944 139.767 43.736L141.255 46.232C140.695 46.552 140.087 46.808 139.431 47C138.791 47.192 138.183 47.288 137.607 47.288ZM148.736 36.512L149.048 39.392L148.976 38.96C149.28 38.336 149.696 37.808 150.224 37.376C150.752 36.928 151.272 36.584 151.784 36.344C152.312 36.104 152.712 35.984 152.984 35.984L152.816 39.344C152.032 39.248 151.36 39.376 150.8 39.728C150.24 40.08 149.808 40.544 149.504 41.12C149.2 41.696 149.048 42.288 149.048 42.896V47H145.712V36.512H148.736ZM156.54 31.904H159.9V36.464H162.444V39.08H159.9V47H156.54V39.08H154.908V36.464H156.54V31.904ZM169.417 47.288C168.441 47.288 167.553 47.096 166.753 46.712C165.969 46.312 165.345 45.704 164.881 44.888C164.417 44.072 164.185 43.032 164.185 41.768C164.185 40.584 164.425 39.56 164.905 38.696C165.385 37.832 166.017 37.168 166.801 36.704C167.585 36.224 168.417 35.984 169.297 35.984C170.337 35.984 171.121 36.16 171.649 36.512C172.193 36.848 172.641 37.224 172.993 37.64L172.849 38.048L173.161 36.512H176.281V47H172.921V44.72L173.185 45.44C173.153 45.44 173.057 45.536 172.897 45.728C172.737 45.904 172.497 46.12 172.177 46.376C171.873 46.616 171.489 46.824 171.025 47C170.577 47.192 170.041 47.288 169.417 47.288ZM170.377 44.552C170.777 44.552 171.137 44.496 171.457 44.384C171.777 44.256 172.057 44.08 172.297 43.856C172.537 43.616 172.745 43.32 172.921 42.968V40.4C172.793 40.048 172.601 39.752 172.345 39.512C172.089 39.256 171.785 39.064 171.433 38.936C171.081 38.792 170.689 38.72 170.257 38.72C169.777 38.72 169.329 38.848 168.913 39.104C168.513 39.344 168.193 39.68 167.953 40.112C167.713 40.544 167.593 41.04 167.593 41.6C167.593 42.16 167.721 42.664 167.977 43.112C168.233 43.56 168.569 43.912 168.985 44.168C169.417 44.424 169.881 44.552 170.377 44.552ZM180.296 47V28.616H180.32L190.136 42.536L188.648 42.2L198.44 28.616H198.488V47H195.008V36.464L195.224 38.264L189.248 46.76H189.2L183.056 38.264L183.656 36.608V47H180.296ZM203.053 29.336H206.533V47H203.053V29.336ZM224.341 45.536C224.149 45.696 223.789 45.912 223.261 46.184C222.749 46.456 222.117 46.696 221.365 46.904C220.613 47.112 219.781 47.208 218.869 47.192C217.477 47.16 216.229 46.912 215.125 46.448C214.037 45.968 213.109 45.32 212.34 44.504C211.589 43.688 211.013 42.752 210.613 41.696C210.213 40.64 210.013 39.512 210.013 38.312C210.013 36.968 210.213 35.736 210.613 34.616C211.029 33.496 211.613 32.528 212.365 31.712C213.133 30.896 214.045 30.264 215.101 29.816C216.157 29.368 217.325 29.144 218.605 29.144C219.789 29.144 220.837 29.304 221.749 29.624C222.661 29.944 223.405 30.288 223.981 30.656L222.613 33.944C222.213 33.64 221.677 33.328 221.005 33.008C220.349 32.672 219.589 32.504 218.725 32.504C218.053 32.504 217.405 32.648 216.781 32.936C216.173 33.208 215.628 33.6 215.148 34.112C214.685 34.624 214.317 35.224 214.045 35.912C213.773 36.584 213.637 37.32 213.637 38.12C213.637 38.968 213.757 39.744 213.997 40.448C214.253 41.152 214.613 41.76 215.077 42.272C215.541 42.768 216.093 43.152 216.733 43.424C217.389 43.696 218.125 43.832 218.941 43.832C219.885 43.832 220.693 43.68 221.365 43.376C222.036 43.072 222.549 42.752 222.901 42.416L224.341 45.536ZM233.179 29.336C234.283 29.336 235.267 29.48 236.131 29.768C236.995 30.04 237.715 30.44 238.291 30.968C238.883 31.48 239.331 32.104 239.635 32.84C239.939 33.56 240.091 34.376 240.091 35.288C240.091 36.008 239.979 36.728 239.755 37.448C239.547 38.168 239.195 38.824 238.699 39.416C238.219 40.008 237.579 40.488 236.779 40.856C235.979 41.208 234.987 41.384 233.803 41.384H231.307V47H227.827V29.336H233.179ZM233.779 38.024C234.307 38.024 234.747 37.936 235.099 37.76C235.451 37.584 235.723 37.36 235.915 37.088C236.123 36.816 236.267 36.536 236.347 36.248C236.443 35.944 236.491 35.664 236.491 35.408C236.491 35.216 236.459 34.976 236.395 34.688C236.347 34.384 236.235 34.08 236.059 33.776C235.883 33.472 235.611 33.216 235.243 33.008C234.891 32.8 234.411 32.696 233.803 32.696H231.307V38.024H233.779ZM237.043 40.184L241.411 47H237.355L232.891 40.28L237.043 40.184ZM242.591 38.192C242.591 36.976 242.823 35.824 243.287 34.736C243.751 33.648 244.391 32.688 245.207 31.856C246.039 31.008 246.999 30.344 248.087 29.864C249.175 29.384 250.343 29.144 251.591 29.144C252.823 29.144 253.983 29.384 255.071 29.864C256.159 30.344 257.119 31.008 257.951 31.856C258.799 32.688 259.455 33.648 259.919 34.736C260.399 35.824 260.639 36.976 260.639 38.192C260.639 39.44 260.399 40.608 259.919 41.696C259.455 42.784 258.799 43.744 257.951 44.576C257.119 45.392 256.159 46.032 255.071 46.496C253.983 46.96 252.823 47.192 251.591 47.192C250.343 47.192 249.175 46.96 248.087 46.496C246.999 46.032 246.039 45.392 245.207 44.576C244.391 43.744 243.751 42.784 243.287 41.696C242.823 40.608 242.591 39.44 242.591 38.192ZM246.191 38.192C246.191 38.976 246.327 39.712 246.599 40.4C246.887 41.072 247.279 41.672 247.775 42.2C248.287 42.712 248.871 43.112 249.527 43.4C250.199 43.688 250.927 43.832 251.711 43.832C252.463 43.832 253.159 43.688 253.799 43.4C254.455 43.112 255.023 42.712 255.503 42.2C255.983 41.672 256.359 41.072 256.631 40.4C256.903 39.712 257.039 38.976 257.039 38.192C257.039 37.392 256.895 36.648 256.607 35.96C256.335 35.272 255.951 34.672 255.455 34.16C254.975 33.632 254.407 33.224 253.751 32.936C253.095 32.648 252.383 32.504 251.615 32.504C250.847 32.504 250.135 32.648 249.479 32.936C248.823 33.224 248.247 33.632 247.751 34.16C247.255 34.672 246.871 35.272 246.599 35.96C246.327 36.648 246.191 37.392 246.191 38.192Z" fill="white"/>
<path d="M93.0468 75V63.064H93.0628L99.1268 71.672L98.4708 71.544L104.519 63.064H104.551V75H103.015V66.584L103.111 67.368L98.7428 73.544H98.7108L94.2788 67.368L94.5508 66.648V75H93.0468ZM107.507 68.376H108.995V75H107.507V68.376ZM107.395 65.976C107.395 65.7413 107.486 65.544 107.667 65.384C107.859 65.224 108.067 65.144 108.291 65.144C108.515 65.144 108.712 65.224 108.883 65.384C109.064 65.544 109.155 65.7413 109.155 65.976C109.155 66.2213 109.064 66.424 108.883 66.584C108.712 66.7333 108.515 66.808 108.291 66.808C108.067 66.808 107.859 66.728 107.667 66.568C107.486 66.408 107.395 66.2107 107.395 65.976ZM116.945 74.392C116.647 74.6267 116.289 74.8133 115.873 74.952C115.457 75.0907 115.041 75.16 114.625 75.16C113.9 75.16 113.265 75.016 112.721 74.728C112.177 74.44 111.751 74.04 111.441 73.528C111.143 73.0053 110.993 72.392 110.993 71.688C110.993 70.984 111.153 70.3707 111.473 69.848C111.804 69.3253 112.231 68.9253 112.753 68.648C113.287 68.36 113.857 68.216 114.465 68.216C114.999 68.216 115.473 68.2907 115.889 68.44C116.316 68.5893 116.679 68.792 116.977 69.048L116.241 70.008C116.049 69.8587 115.815 69.7253 115.537 69.608C115.26 69.4907 114.945 69.432 114.593 69.432C114.209 69.432 113.852 69.5333 113.521 69.736C113.201 69.928 112.945 70.1947 112.753 70.536C112.572 70.8773 112.481 71.2613 112.481 71.688C112.481 72.0933 112.577 72.472 112.769 72.824C112.961 73.1653 113.228 73.4373 113.569 73.64C113.911 73.832 114.3 73.928 114.737 73.928C115.025 73.928 115.287 73.8853 115.521 73.8C115.767 73.7147 115.985 73.5973 116.177 73.448L116.945 74.392ZM120.194 68.376L120.338 70.296L120.258 70.04C120.429 69.6347 120.674 69.2933 120.994 69.016C121.325 68.728 121.666 68.5093 122.018 68.36C122.381 68.2 122.696 68.12 122.962 68.12L122.882 69.592C122.381 69.56 121.938 69.656 121.554 69.88C121.181 70.104 120.882 70.4027 120.658 70.776C120.445 71.1493 120.338 71.5493 120.338 71.976V75H118.866V68.376H120.194ZM124.025 71.624C124.025 70.9627 124.179 70.3653 124.489 69.832C124.809 69.2987 125.246 68.8773 125.801 68.568C126.355 68.2587 126.985 68.104 127.689 68.104C128.414 68.104 129.049 68.2587 129.593 68.568C130.137 68.8773 130.558 69.2987 130.857 69.832C131.155 70.3653 131.305 70.9627 131.305 71.624C131.305 72.2853 131.155 72.888 130.857 73.432C130.558 73.9653 130.131 74.3867 129.577 74.696C129.033 75.0053 128.398 75.16 127.673 75.16C126.969 75.16 126.339 75.016 125.785 74.728C125.241 74.4293 124.809 74.0187 124.489 73.496C124.179 72.9627 124.025 72.3387 124.025 71.624ZM125.513 71.64C125.513 72.0667 125.609 72.456 125.801 72.808C125.993 73.1493 126.249 73.4213 126.569 73.624C126.899 73.8267 127.262 73.928 127.657 73.928C128.073 73.928 128.441 73.8267 128.761 73.624C129.091 73.4213 129.347 73.1493 129.529 72.808C129.71 72.456 129.801 72.0667 129.801 71.64C129.801 71.2133 129.71 70.8293 129.529 70.488C129.347 70.136 129.091 69.8587 128.761 69.656C128.441 69.4427 128.073 69.336 127.657 69.336C127.251 69.336 126.883 69.4427 126.553 69.656C126.233 69.8693 125.977 70.152 125.785 70.504C125.603 70.8453 125.513 71.224 125.513 71.64ZM136.071 75.16C135.453 75.16 134.887 75.0267 134.375 74.76C133.874 74.4933 133.474 74.104 133.175 73.592C132.887 73.0693 132.743 72.4347 132.743 71.688C132.743 70.952 132.898 70.3173 133.207 69.784C133.517 69.24 133.927 68.824 134.439 68.536C134.962 68.248 135.533 68.104 136.151 68.104C136.77 68.104 137.293 68.248 137.719 68.536C138.146 68.8133 138.471 69.144 138.695 69.528L138.599 69.784L138.743 68.376H140.119V75H138.631V73.272L138.791 73.656C138.749 73.7627 138.653 73.9013 138.503 74.072C138.365 74.232 138.173 74.3973 137.927 74.568C137.693 74.7387 137.421 74.8827 137.111 75C136.802 75.1067 136.455 75.16 136.071 75.16ZM136.471 73.928C136.845 73.928 137.181 73.8587 137.479 73.72C137.778 73.5813 138.023 73.3893 138.215 73.144C138.418 72.888 138.557 72.584 138.631 72.232V70.936C138.546 70.616 138.397 70.3387 138.183 70.104C137.97 69.8587 137.714 69.672 137.415 69.544C137.117 69.4053 136.786 69.336 136.423 69.336C136.029 69.336 135.666 69.432 135.335 69.624C135.005 69.816 134.738 70.0827 134.535 70.424C134.343 70.7653 134.247 71.1653 134.247 71.624C134.247 72.0507 134.349 72.44 134.551 72.792C134.754 73.144 135.026 73.4213 135.367 73.624C135.709 73.8267 136.077 73.928 136.471 73.928ZM146.598 75.16C146.097 75.16 145.612 75.0427 145.142 74.808C144.684 74.5733 144.326 74.2587 144.07 73.864L144.166 73.4V78.184H142.694V68.28H143.974L144.182 69.976L144.022 69.512C144.342 69.1067 144.748 68.7707 145.238 68.504C145.729 68.2373 146.278 68.104 146.886 68.104C147.505 68.104 148.06 68.2533 148.55 68.552C149.052 68.8507 149.446 69.2667 149.734 69.8C150.022 70.3333 150.166 70.9573 150.166 71.672C150.166 72.3867 150.012 73.0053 149.702 73.528C149.393 74.0507 148.966 74.456 148.422 74.744C147.889 75.0213 147.281 75.16 146.598 75.16ZM146.31 73.976C146.737 73.976 147.126 73.88 147.478 73.688C147.841 73.4853 148.129 73.2133 148.342 72.872C148.556 72.52 148.662 72.1253 148.662 71.688C148.662 71.24 148.561 70.8453 148.358 70.504C148.156 70.152 147.884 69.8747 147.542 69.672C147.212 69.4693 146.838 69.368 146.422 69.368C146.038 69.368 145.692 69.4427 145.382 69.592C145.073 69.7413 144.817 69.9493 144.614 70.216C144.412 70.472 144.268 70.7707 144.182 71.112V72.216C144.236 72.5573 144.364 72.8613 144.566 73.128C144.769 73.3947 145.02 73.6027 145.318 73.752C145.628 73.9013 145.958 73.976 146.31 73.976ZM153.507 68.376L153.651 70.296L153.571 70.04C153.741 69.6347 153.987 69.2933 154.307 69.016C154.637 68.728 154.979 68.5093 155.331 68.36C155.693 68.2 156.008 68.12 156.275 68.12L156.195 69.592C155.693 69.56 155.251 69.656 154.867 69.88C154.493 70.104 154.195 70.4027 153.971 70.776C153.757 71.1493 153.651 71.5493 153.651 71.976V75H152.179V68.376H153.507ZM160.985 75.16C160.228 75.16 159.577 75.0107 159.033 74.712C158.489 74.4027 158.068 73.9867 157.769 73.464C157.481 72.9307 157.337 72.3227 157.337 71.64C157.337 70.9893 157.503 70.3973 157.833 69.864C158.164 69.3307 158.607 68.904 159.161 68.584C159.716 68.264 160.335 68.104 161.017 68.104C161.892 68.104 162.617 68.36 163.193 68.872C163.769 69.384 164.159 70.088 164.361 70.984L158.905 72.904L158.553 72.024L163.033 70.392L162.713 70.6C162.585 70.248 162.372 69.944 162.073 69.688C161.775 69.4213 161.385 69.288 160.905 69.288C160.5 69.288 160.137 69.3893 159.817 69.592C159.497 69.784 159.247 70.0507 159.065 70.392C158.884 70.7333 158.793 71.1227 158.793 71.56C158.793 72.0187 158.889 72.424 159.081 72.776C159.273 73.1173 159.535 73.3893 159.865 73.592C160.207 73.784 160.591 73.88 161.017 73.88C161.305 73.88 161.583 73.8267 161.849 73.72C162.127 73.6133 162.383 73.4747 162.617 73.304L163.305 74.408C162.975 74.632 162.601 74.8133 162.185 74.952C161.78 75.0907 161.38 75.16 160.985 75.16ZM167.554 68.376L167.682 69.992L167.618 69.736C167.831 69.2453 168.178 68.856 168.658 68.568C169.138 68.2693 169.692 68.12 170.322 68.12C170.951 68.12 171.463 68.3067 171.858 68.68C172.263 69.0427 172.471 69.5173 172.482 70.104V75H170.978V70.632C170.967 70.2693 170.86 69.976 170.658 69.752C170.466 69.5173 170.162 69.4 169.746 69.4C169.362 69.4 169.015 69.5067 168.706 69.72C168.396 69.9333 168.151 70.2267 167.97 70.6C167.799 70.9733 167.714 71.4053 167.714 71.896V75H166.226V68.376H167.554ZM177.757 75.16C177.149 75.16 176.595 75.016 176.093 74.728C175.603 74.4293 175.213 74.0133 174.925 73.48C174.637 72.936 174.493 72.312 174.493 71.608C174.493 70.872 174.643 70.2427 174.941 69.72C175.251 69.1973 175.667 68.7973 176.189 68.52C176.712 68.2427 177.299 68.104 177.949 68.104C178.472 68.104 178.968 68.216 179.437 68.44C179.917 68.664 180.291 68.9733 180.557 69.368L180.493 69.896V62.616H181.965V75H180.477V73.352L180.637 73.768C180.328 74.1733 179.928 74.5093 179.437 74.776C178.947 75.032 178.387 75.16 177.757 75.16ZM178.221 73.896C178.616 73.896 178.968 73.8267 179.277 73.688C179.587 73.5387 179.843 73.336 180.045 73.08C180.248 72.824 180.392 72.52 180.477 72.168V70.92C180.392 70.6 180.237 70.3227 180.013 70.088C179.8 69.8427 179.539 69.6507 179.229 69.512C178.931 69.3627 178.595 69.288 178.221 69.288C177.816 69.288 177.443 69.3893 177.101 69.592C176.771 69.784 176.504 70.0507 176.301 70.392C176.099 70.7333 175.997 71.128 175.997 71.576C175.997 72.0133 176.099 72.408 176.301 72.76C176.504 73.1013 176.776 73.3787 177.117 73.592C177.459 73.7947 177.827 73.896 178.221 73.896ZM184.554 68.376H186.042V75H184.554V68.376ZM184.442 65.976C184.442 65.7413 184.532 65.544 184.714 65.384C184.906 65.224 185.114 65.144 185.338 65.144C185.562 65.144 185.759 65.224 185.93 65.384C186.111 65.544 186.202 65.7413 186.202 65.976C186.202 66.2213 186.111 66.424 185.93 66.584C185.759 66.7333 185.562 66.808 185.338 66.808C185.114 66.808 184.906 66.728 184.714 66.568C184.532 66.408 184.442 66.2107 184.442 65.976ZM189.224 69.592C188.894 69.592 188.611 69.4907 188.376 69.288C188.142 69.0853 188.024 68.7813 188.024 68.376V67.752H189.16V67.96C189.16 68.1307 189.203 68.2427 189.288 68.296C189.374 68.3493 189.512 68.376 189.704 68.376H193.944L189.976 74.088L189.688 73.768H193.896V75H187.768L191.816 69.176L192.072 69.592H189.224ZM198.775 75.16C198.156 75.16 197.591 75.0267 197.079 74.76C196.577 74.4933 196.177 74.104 195.879 73.592C195.591 73.0693 195.447 72.4347 195.447 71.688C195.447 70.952 195.601 70.3173 195.911 69.784C196.22 69.24 196.631 68.824 197.143 68.536C197.665 68.248 198.236 68.104 198.855 68.104C199.473 68.104 199.996 68.248 200.423 68.536C200.849 68.8133 201.175 69.144 201.399 69.528L201.303 69.784L201.447 68.376H202.823V75H201.335V73.272L201.495 73.656C201.452 73.7627 201.356 73.9013 201.207 74.072C201.068 74.232 200.876 74.3973 200.631 74.568C200.396 74.7387 200.124 74.8827 199.815 75C199.505 75.1067 199.159 75.16 198.775 75.16ZM199.175 73.928C199.548 73.928 199.884 73.8587 200.183 73.72C200.481 73.5813 200.727 73.3893 200.919 73.144C201.121 72.888 201.26 72.584 201.335 72.232V70.936C201.249 70.616 201.1 70.3387 200.887 70.104C200.673 69.8587 200.417 69.672 200.119 69.544C199.82 69.4053 199.489 69.336 199.127 69.336C198.732 69.336 198.369 69.432 198.039 69.624C197.708 69.816 197.441 70.0827 197.239 70.424C197.047 70.7653 196.951 71.1653 196.951 71.624C196.951 72.0507 197.052 72.44 197.255 72.792C197.457 73.144 197.729 73.4213 198.071 73.624C198.412 73.8267 198.78 73.928 199.175 73.928ZM208.582 78.28C208.091 78.28 207.659 78.2213 207.286 78.104C206.912 77.9973 206.571 77.8427 206.262 77.64C205.963 77.4373 205.675 77.208 205.398 76.952L206.262 75.944C206.614 76.2747 206.971 76.5307 207.334 76.712C207.696 76.8933 208.102 76.984 208.55 76.984C209.051 76.984 209.472 76.8987 209.814 76.728C210.166 76.568 210.432 76.3387 210.614 76.04C210.795 75.752 210.886 75.416 210.886 75.032L210.902 73.24L211.03 73.528C210.838 73.9867 210.491 74.376 209.99 74.696C209.488 75.0053 208.88 75.16 208.166 75.16C207.558 75.16 206.998 75.0053 206.486 74.696C205.984 74.3867 205.579 73.9707 205.27 73.448C204.971 72.9147 204.822 72.3173 204.822 71.656C204.822 70.9627 204.982 70.3547 205.302 69.832C205.622 69.2987 206.043 68.8773 206.566 68.568C207.088 68.2587 207.659 68.104 208.278 68.104C208.864 68.104 209.398 68.2267 209.878 68.472C210.368 68.7067 210.726 69.0107 210.95 69.384L210.87 69.656L211.03 68.376H212.39V75.048C212.39 75.6453 212.235 76.1893 211.926 76.68C211.616 77.1707 211.179 77.56 210.614 77.848C210.048 78.136 209.371 78.28 208.582 78.28ZM206.31 71.624C206.31 72.0507 206.411 72.44 206.614 72.792C206.816 73.144 207.088 73.4213 207.43 73.624C207.782 73.8267 208.171 73.928 208.598 73.928C208.992 73.928 209.344 73.8587 209.654 73.72C209.974 73.5707 210.24 73.3733 210.454 73.128C210.667 72.872 210.816 72.5787 210.902 72.248V70.936C210.806 70.616 210.646 70.3387 210.422 70.104C210.198 69.8587 209.931 69.672 209.622 69.544C209.312 69.4053 208.971 69.336 208.598 69.336C208.171 69.336 207.782 69.432 207.43 69.624C207.088 69.816 206.816 70.088 206.614 70.44C206.411 70.7813 206.31 71.176 206.31 71.624ZM218.032 75.16C217.275 75.16 216.624 75.0107 216.08 74.712C215.536 74.4027 215.115 73.9867 214.816 73.464C214.528 72.9307 214.384 72.3227 214.384 71.64C214.384 70.9893 214.549 70.3973 214.88 69.864C215.211 69.3307 215.653 68.904 216.208 68.584C216.763 68.264 217.381 68.104 218.064 68.104C218.939 68.104 219.664 68.36 220.24 68.872C220.816 69.384 221.205 70.088 221.408 70.984L215.952 72.904L215.6 72.024L220.08 70.392L219.76 70.6C219.632 70.248 219.419 69.944 219.12 69.688C218.821 69.4213 218.432 69.288 217.952 69.288C217.547 69.288 217.184 69.3893 216.864 69.592C216.544 69.784 216.293 70.0507 216.112 70.392C215.931 70.7333 215.84 71.1227 215.84 71.56C215.84 72.0187 215.936 72.424 216.128 72.776C216.32 73.1173 216.581 73.3893 216.912 73.592C217.253 73.784 217.637 73.88 218.064 73.88C218.352 73.88 218.629 73.8267 218.896 73.72C219.173 73.6133 219.429 73.4747 219.664 73.304L220.352 74.408C220.021 74.632 219.648 74.8133 219.232 74.952C218.827 75.0907 218.427 75.16 218.032 75.16ZM224.601 68.376L224.729 69.992L224.665 69.736C224.878 69.2453 225.225 68.856 225.705 68.568C226.185 68.2693 226.739 68.12 227.369 68.12C227.998 68.12 228.51 68.3067 228.905 68.68C229.31 69.0427 229.518 69.5173 229.529 70.104V75H228.025V70.632C228.014 70.2693 227.907 69.976 227.705 69.752C227.513 69.5173 227.209 69.4 226.793 69.4C226.409 69.4 226.062 69.5067 225.753 69.72C225.443 69.9333 225.198 70.2267 225.017 70.6C224.846 70.9733 224.761 71.4053 224.761 71.896V75H223.273V68.376H224.601ZM233.972 75.128C233.503 75.128 233.044 75.048 232.596 74.888C232.159 74.7173 231.796 74.4667 231.508 74.136L232.132 73.272C232.41 73.5387 232.692 73.7413 232.98 73.88C233.279 74.008 233.572 74.072 233.86 74.072C234.074 74.072 234.271 74.0453 234.452 73.992C234.634 73.9387 234.778 73.8533 234.884 73.736C235.002 73.608 235.06 73.4373 235.06 73.224C235.06 72.9893 234.98 72.8027 234.82 72.664C234.671 72.5253 234.474 72.4133 234.228 72.328C233.994 72.2427 233.743 72.1627 233.476 72.088C232.932 71.9067 232.516 71.656 232.228 71.336C231.94 71.016 231.796 70.6267 231.796 70.168C231.796 69.816 231.882 69.4907 232.052 69.192C232.234 68.8827 232.495 68.632 232.836 68.44C233.188 68.248 233.62 68.152 234.132 68.152C234.591 68.152 235.002 68.2107 235.364 68.328C235.727 68.4347 236.068 68.616 236.388 68.872L235.796 69.8C235.604 69.5973 235.375 69.448 235.108 69.352C234.842 69.256 234.602 69.2027 234.388 69.192C234.207 69.1813 234.031 69.208 233.86 69.272C233.7 69.336 233.567 69.4267 233.46 69.544C233.354 69.6613 233.3 69.8 233.3 69.96C233.3 70.184 233.375 70.3653 233.524 70.504C233.674 70.6427 233.866 70.7547 234.1 70.84C234.346 70.9147 234.586 70.9947 234.82 71.08C235.151 71.176 235.444 71.304 235.7 71.464C235.956 71.624 236.159 71.8213 236.308 72.056C236.468 72.2907 236.548 72.584 236.548 72.936C236.548 73.3307 236.452 73.6987 236.26 74.04C236.079 74.3707 235.796 74.6373 235.412 74.84C235.039 75.032 234.559 75.128 233.972 75.128ZM249.07 74.392C248.772 74.6267 248.414 74.8133 247.998 74.952C247.582 75.0907 247.166 75.16 246.75 75.16C246.025 75.16 245.39 75.016 244.846 74.728C244.302 74.44 243.876 74.04 243.566 73.528C243.268 73.0053 243.118 72.392 243.118 71.688C243.118 70.984 243.278 70.3707 243.598 69.848C243.929 69.3253 244.356 68.9253 244.878 68.648C245.412 68.36 245.982 68.216 246.59 68.216C247.124 68.216 247.598 68.2907 248.014 68.44C248.441 68.5893 248.804 68.792 249.102 69.048L248.366 70.008C248.174 69.8587 247.94 69.7253 247.662 69.608C247.385 69.4907 247.07 69.432 246.718 69.432C246.334 69.432 245.977 69.5333 245.646 69.736C245.326 69.928 245.07 70.1947 244.878 70.536C244.697 70.8773 244.606 71.2613 244.606 71.688C244.606 72.0933 244.702 72.472 244.894 72.824C245.086 73.1653 245.353 73.4373 245.694 73.64C246.036 73.832 246.425 73.928 246.862 73.928C247.15 73.928 247.412 73.8853 247.646 73.8C247.892 73.7147 248.11 73.5973 248.302 73.448L249.07 74.392ZM250.415 71.624C250.415 70.9627 250.57 70.3653 250.879 69.832C251.199 69.2987 251.637 68.8773 252.191 68.568C252.746 68.2587 253.375 68.104 254.079 68.104C254.805 68.104 255.439 68.2587 255.983 68.568C256.527 68.8773 256.949 69.2987 257.247 69.832C257.546 70.3653 257.695 70.9627 257.695 71.624C257.695 72.2853 257.546 72.888 257.247 73.432C256.949 73.9653 256.522 74.3867 255.967 74.696C255.423 75.0053 254.789 75.16 254.063 75.16C253.359 75.16 252.73 75.016 252.175 74.728C251.631 74.4293 251.199 74.0187 250.879 73.496C250.57 72.9627 250.415 72.3387 250.415 71.624ZM251.903 71.64C251.903 72.0667 251.999 72.456 252.191 72.808C252.383 73.1493 252.639 73.4213 252.959 73.624C253.29 73.8267 253.653 73.928 254.047 73.928C254.463 73.928 254.831 73.8267 255.151 73.624C255.482 73.4213 255.738 73.1493 255.919 72.808C256.101 72.456 256.191 72.0667 256.191 71.64C256.191 71.2133 256.101 70.8293 255.919 70.488C255.738 70.136 255.482 69.8587 255.151 69.656C254.831 69.4427 254.463 69.336 254.047 69.336C253.642 69.336 253.274 69.4427 252.943 69.656C252.623 69.8693 252.367 70.152 252.175 70.504C251.994 70.8453 251.903 71.224 251.903 71.64ZM261.038 68.376L261.166 69.864L261.102 69.736C261.347 69.2347 261.694 68.84 262.142 68.552C262.601 68.264 263.123 68.12 263.71 68.12C264.083 68.12 264.414 68.1787 264.702 68.296C264.99 68.4133 265.225 68.584 265.406 68.808C265.598 69.0213 265.721 69.288 265.774 69.608L265.694 69.656C265.95 69.176 266.302 68.8027 266.75 68.536C267.209 68.2587 267.689 68.12 268.19 68.12C268.841 68.12 269.353 68.3067 269.726 68.68C270.11 69.0427 270.307 69.5173 270.318 70.104V75H268.83V70.632C268.819 70.2907 268.734 70.008 268.574 69.784C268.425 69.5493 268.158 69.4213 267.774 69.4C267.39 69.4 267.043 69.5173 266.734 69.752C266.435 69.9867 266.201 70.2907 266.03 70.664C265.859 71.0267 265.769 71.4213 265.758 71.848V75H264.27V70.632C264.259 70.2907 264.169 70.008 263.998 69.784C263.838 69.5493 263.566 69.4213 263.182 69.4C262.787 69.4 262.441 69.5173 262.142 69.752C261.843 69.9867 261.609 70.2907 261.438 70.664C261.278 71.0373 261.198 71.4373 261.198 71.864V75H259.71V68.376H261.038ZM100.023 91.16C99.4151 91.16 98.8604 91.016 98.3591 90.728C97.8684 90.4293 97.4791 90.0133 97.1911 89.48C96.9031 88.936 96.7591 88.312 96.7591 87.608C96.7591 86.872 96.9084 86.2427 97.2071 85.72C97.5164 85.1973 97.9324 84.7973 98.4551 84.52C98.9777 84.2427 99.5644 84.104 100.215 84.104C100.738 84.104 101.234 84.216 101.703 84.44C102.183 84.664 102.556 84.9733 102.823 85.368L102.759 85.896V78.616H104.231V91H102.743V89.352L102.903 89.768C102.594 90.1733 102.194 90.5093 101.703 90.776C101.212 91.032 100.652 91.16 100.023 91.16ZM100.487 89.896C100.882 89.896 101.234 89.8267 101.543 89.688C101.852 89.5387 102.108 89.336 102.311 89.08C102.514 88.824 102.658 88.52 102.743 88.168V86.92C102.658 86.6 102.503 86.3227 102.279 86.088C102.066 85.8427 101.804 85.6507 101.495 85.512C101.196 85.3627 100.86 85.288 100.487 85.288C100.082 85.288 99.7084 85.3893 99.3671 85.592C99.0364 85.784 98.7697 86.0507 98.5671 86.392C98.3644 86.7333 98.2631 87.128 98.2631 87.576C98.2631 88.0133 98.3644 88.408 98.5671 88.76C98.7697 89.1013 99.0417 89.3787 99.3831 89.592C99.7244 89.7947 100.092 89.896 100.487 89.896ZM108.915 91.256C108.318 91.256 107.822 91.0747 107.427 90.712C107.043 90.3387 106.841 89.8587 106.819 89.272V84.376H108.307V88.744C108.329 89.1067 108.43 89.4 108.611 89.624C108.803 89.848 109.102 89.9653 109.507 89.976C109.881 89.976 110.211 89.8693 110.499 89.656C110.798 89.432 111.038 89.1333 111.219 88.76C111.401 88.376 111.491 87.944 111.491 87.464V84.376H112.979V91H111.619L111.491 89.368L111.571 89.656C111.443 89.9653 111.246 90.2427 110.979 90.488C110.723 90.7227 110.419 90.9093 110.067 91.048C109.715 91.1867 109.331 91.256 108.915 91.256ZM116.882 84.376L117.026 86.296L116.946 86.04C117.116 85.6347 117.362 85.2933 117.682 85.016C118.012 84.728 118.354 84.5093 118.706 84.36C119.068 84.2 119.383 84.12 119.65 84.12L119.57 85.592C119.068 85.56 118.626 85.656 118.242 85.88C117.868 86.104 117.57 86.4027 117.346 86.776C117.132 87.1493 117.026 87.5493 117.026 87.976V91H115.554V84.376H116.882ZM124.165 91.16C123.547 91.16 122.981 91.0267 122.469 90.76C121.968 90.4933 121.568 90.104 121.269 89.592C120.981 89.0693 120.837 88.4347 120.837 87.688C120.837 86.952 120.992 86.3173 121.301 85.784C121.611 85.24 122.021 84.824 122.533 84.536C123.056 84.248 123.627 84.104 124.245 84.104C124.864 84.104 125.387 84.248 125.813 84.536C126.24 84.8133 126.565 85.144 126.789 85.528L126.693 85.784L126.837 84.376H128.213V91H126.725V89.272L126.885 89.656C126.843 89.7627 126.747 89.9013 126.597 90.072C126.459 90.232 126.267 90.3973 126.021 90.568C125.787 90.7387 125.515 90.8827 125.205 91C124.896 91.1067 124.549 91.16 124.165 91.16ZM124.565 89.928C124.939 89.928 125.275 89.8587 125.573 89.72C125.872 89.5813 126.117 89.3893 126.309 89.144C126.512 88.888 126.651 88.584 126.725 88.232V86.936C126.64 86.616 126.491 86.3387 126.277 86.104C126.064 85.8587 125.808 85.672 125.509 85.544C125.211 85.4053 124.88 85.336 124.517 85.336C124.123 85.336 123.76 85.432 123.429 85.624C123.099 85.816 122.832 86.0827 122.629 86.424C122.437 86.7653 122.341 87.1653 122.341 87.624C122.341 88.0507 122.443 88.44 122.645 88.792C122.848 89.144 123.12 89.4213 123.461 89.624C123.803 89.8267 124.171 89.928 124.565 89.928ZM136.164 90.392C135.866 90.6267 135.508 90.8133 135.092 90.952C134.676 91.0907 134.26 91.16 133.844 91.16C133.119 91.16 132.484 91.016 131.94 90.728C131.396 90.44 130.97 90.04 130.66 89.528C130.362 89.0053 130.212 88.392 130.212 87.688C130.212 86.984 130.372 86.3707 130.692 85.848C131.023 85.3253 131.45 84.9253 131.972 84.648C132.506 84.36 133.076 84.216 133.684 84.216C134.218 84.216 134.692 84.2907 135.108 84.44C135.535 84.5893 135.898 84.792 136.196 85.048L135.46 86.008C135.268 85.8587 135.034 85.7253 134.756 85.608C134.479 85.4907 134.164 85.432 133.812 85.432C133.428 85.432 133.071 85.5333 132.74 85.736C132.42 85.928 132.164 86.1947 131.972 86.536C131.791 86.8773 131.7 87.2613 131.7 87.688C131.7 88.0933 131.796 88.472 131.988 88.824C132.18 89.1653 132.447 89.4373 132.788 89.64C133.13 89.832 133.519 89.928 133.956 89.928C134.244 89.928 134.506 89.8853 134.74 89.8C134.986 89.7147 135.204 89.5973 135.396 89.448L136.164 90.392ZM131.86 93.432C131.978 93.5493 132.127 93.6453 132.308 93.72C132.49 93.8053 132.698 93.848 132.932 93.848C133.21 93.848 133.46 93.784 133.684 93.656C133.908 93.5387 134.02 93.3627 134.02 93.128C134.02 92.9467 133.946 92.776 133.796 92.616C133.647 92.4667 133.375 92.392 132.98 92.392C132.81 92.392 132.628 92.4133 132.436 92.456C132.244 92.4987 132.079 92.5467 131.94 92.6L131.668 91.88L132.788 90.84L133.924 90.904L132.772 92.248L132.42 91.88C132.538 91.8267 132.682 91.784 132.852 91.752C133.023 91.7307 133.188 91.7147 133.348 91.704C133.914 91.6933 134.378 91.8053 134.74 92.04C135.103 92.2747 135.284 92.6267 135.284 93.096C135.284 93.4587 135.178 93.752 134.964 93.976C134.762 94.2107 134.495 94.3813 134.164 94.488C133.834 94.6053 133.471 94.664 133.076 94.664C132.682 94.664 132.34 94.6 132.052 94.472C131.775 94.3547 131.551 94.216 131.38 94.056L131.86 93.432ZM140.837 91.16C140.218 91.16 139.653 91.0267 139.141 90.76C138.64 90.4933 138.24 90.104 137.941 89.592C137.653 89.0693 137.509 88.4347 137.509 87.688C137.509 86.952 137.664 86.3173 137.973 85.784C138.282 85.24 138.693 84.824 139.205 84.536C139.728 84.248 140.298 84.104 140.917 84.104C141.536 84.104 142.058 84.248 142.485 84.536C142.912 84.8133 143.237 85.144 143.461 85.528L143.365 85.784L143.509 84.376H144.885V91H143.397V89.272L143.557 89.656C143.514 89.7627 143.418 89.9013 143.269 90.072C143.13 90.232 142.938 90.3973 142.693 90.568C142.458 90.7387 142.186 90.8827 141.877 91C141.568 91.1067 141.221 91.16 140.837 91.16ZM141.237 89.928C141.61 89.928 141.946 89.8587 142.245 89.72C142.544 89.5813 142.789 89.3893 142.981 89.144C143.184 88.888 143.322 88.584 143.397 88.232V86.936C143.312 86.616 143.162 86.3387 142.949 86.104C142.736 85.8587 142.48 85.672 142.181 85.544C141.882 85.4053 141.552 85.336 141.189 85.336C140.794 85.336 140.432 85.432 140.101 85.624C139.77 85.816 139.504 86.0827 139.301 86.424C139.109 86.7653 139.013 87.1653 139.013 87.624C139.013 88.0507 139.114 88.44 139.317 88.792C139.52 89.144 139.792 89.4213 140.133 89.624C140.474 89.8267 140.842 89.928 141.237 89.928ZM142.901 83.448C142.56 83.448 142.277 83.3733 142.053 83.224C141.84 83.064 141.637 82.8987 141.445 82.728C141.317 82.6107 141.189 82.504 141.061 82.408C140.933 82.3013 140.789 82.248 140.629 82.248C140.501 82.248 140.384 82.3013 140.277 82.408C140.181 82.504 140.106 82.6427 140.053 82.824C140 83.0053 139.973 83.2187 139.973 83.464H139.173C139.141 83.048 139.184 82.6747 139.301 82.344C139.429 82.0027 139.61 81.736 139.845 81.544C140.09 81.352 140.378 81.256 140.709 81.256C140.986 81.256 141.226 81.336 141.429 81.496C141.632 81.6453 141.818 81.8 141.989 81.96C142.138 82.0987 142.282 82.2267 142.421 82.344C142.56 82.4507 142.709 82.504 142.869 82.504C143.082 82.504 143.232 82.392 143.317 82.168C143.413 81.944 143.461 81.64 143.461 81.256H144.261C144.304 81.704 144.266 82.0933 144.149 82.424C144.042 82.7547 143.877 83.0107 143.653 83.192C143.429 83.3627 143.178 83.448 142.901 83.448ZM146.884 87.624C146.884 86.9627 147.039 86.3653 147.348 85.832C147.668 85.2987 148.105 84.8773 148.66 84.568C149.215 84.2587 149.844 84.104 150.548 84.104C151.273 84.104 151.908 84.2587 152.452 84.568C152.996 84.8773 153.417 85.2987 153.716 85.832C154.015 86.3653 154.164 86.9627 154.164 87.624C154.164 88.2853 154.015 88.888 153.716 89.432C153.417 89.9653 152.991 90.3867 152.436 90.696C151.892 91.0053 151.257 91.16 150.532 91.16C149.828 91.16 149.199 91.016 148.644 90.728C148.1 90.4293 147.668 90.0187 147.348 89.496C147.039 88.9627 146.884 88.3387 146.884 87.624ZM148.372 87.64C148.372 88.0667 148.468 88.456 148.66 88.808C148.852 89.1493 149.108 89.4213 149.428 89.624C149.759 89.8267 150.121 89.928 150.516 89.928C150.932 89.928 151.3 89.8267 151.62 89.624C151.951 89.4213 152.207 89.1493 152.388 88.808C152.569 88.456 152.66 88.0667 152.66 87.64C152.66 87.2133 152.569 86.8293 152.388 86.488C152.207 86.136 151.951 85.8587 151.62 85.656C151.3 85.4427 150.932 85.336 150.516 85.336C150.111 85.336 149.743 85.4427 149.412 85.656C149.092 85.8693 148.836 86.152 148.644 86.504C148.463 86.8453 148.372 87.224 148.372 87.64ZM163.929 91.16C163.321 91.16 162.767 91.016 162.265 90.728C161.775 90.4293 161.385 90.0133 161.097 89.48C160.809 88.936 160.665 88.312 160.665 87.608C160.665 86.872 160.815 86.2427 161.113 85.72C161.423 85.1973 161.839 84.7973 162.361 84.52C162.884 84.2427 163.471 84.104 164.121 84.104C164.644 84.104 165.14 84.216 165.609 84.44C166.089 84.664 166.463 84.9733 166.729 85.368L166.665 85.896V78.616H168.137V91H166.649V89.352L166.809 89.768C166.5 90.1733 166.1 90.5093 165.609 90.776C165.119 91.032 164.559 91.16 163.929 91.16ZM164.393 89.896C164.788 89.896 165.14 89.8267 165.449 89.688C165.759 89.5387 166.015 89.336 166.217 89.08C166.42 88.824 166.564 88.52 166.649 88.168V86.92C166.564 86.6 166.409 86.3227 166.185 86.088C165.972 85.8427 165.711 85.6507 165.401 85.512C165.103 85.3627 164.767 85.288 164.393 85.288C163.988 85.288 163.615 85.3893 163.273 85.592C162.943 85.784 162.676 86.0507 162.473 86.392C162.271 86.7333 162.169 87.128 162.169 87.576C162.169 88.0133 162.271 88.408 162.473 88.76C162.676 89.1013 162.948 89.3787 163.289 89.592C163.631 89.7947 163.999 89.896 164.393 89.896ZM173.798 91.16C173.04 91.16 172.39 91.0107 171.846 90.712C171.302 90.4027 170.88 89.9867 170.582 89.464C170.294 88.9307 170.15 88.3227 170.15 87.64C170.15 86.9893 170.315 86.3973 170.646 85.864C170.976 85.3307 171.419 84.904 171.974 84.584C172.528 84.264 173.147 84.104 173.83 84.104C174.704 84.104 175.43 84.36 176.006 84.872C176.582 85.384 176.971 86.088 177.174 86.984L171.718 88.904L171.366 88.024L175.846 86.392L175.526 86.6C175.398 86.248 175.184 85.944 174.886 85.688C174.587 85.4213 174.198 85.288 173.718 85.288C173.312 85.288 172.95 85.3893 172.63 85.592C172.31 85.784 172.059 86.0507 171.878 86.392C171.696 86.7333 171.606 87.1227 171.606 87.56C171.606 88.0187 171.702 88.424 171.894 88.776C172.086 89.1173 172.347 89.3893 172.678 89.592C173.019 89.784 173.403 89.88 173.83 89.88C174.118 89.88 174.395 89.8267 174.662 89.72C174.939 89.6133 175.195 89.4747 175.43 89.304L176.118 90.408C175.787 90.632 175.414 90.8133 174.998 90.952C174.592 91.0907 174.192 91.16 173.798 91.16ZM186.853 91.16C186.234 91.16 185.669 91.0267 185.157 90.76C184.655 90.4933 184.255 90.104 183.957 89.592C183.669 89.0693 183.525 88.4347 183.525 87.688C183.525 86.952 183.679 86.3173 183.989 85.784C184.298 85.24 184.709 84.824 185.221 84.536C185.743 84.248 186.314 84.104 186.933 84.104C187.551 84.104 188.074 84.248 188.501 84.536C188.927 84.8133 189.253 85.144 189.477 85.528L189.381 85.784L189.525 84.376H190.901V91H189.413V89.272L189.573 89.656C189.53 89.7627 189.434 89.9013 189.285 90.072C189.146 90.232 188.954 90.3973 188.709 90.568C188.474 90.7387 188.202 90.8827 187.893 91C187.583 91.1067 187.237 91.16 186.853 91.16ZM187.253 89.928C187.626 89.928 187.962 89.8587 188.261 89.72C188.559 89.5813 188.805 89.3893 188.997 89.144C189.199 88.888 189.338 88.584 189.413 88.232V86.936C189.327 86.616 189.178 86.3387 188.965 86.104C188.751 85.8587 188.495 85.672 188.197 85.544C187.898 85.4053 187.567 85.336 187.205 85.336C186.81 85.336 186.447 85.432 186.117 85.624C185.786 85.816 185.519 86.0827 185.317 86.424C185.125 86.7653 185.029 87.1653 185.029 87.624C185.029 88.0507 185.13 88.44 185.333 88.792C185.535 89.144 185.807 89.4213 186.149 89.624C186.49 89.8267 186.858 89.928 187.253 89.928ZM194.116 81.464H195.604V84.408H197.428V85.576H195.604V91H194.116V85.576H192.9V84.408H194.116V81.464ZM202.298 91.16C201.54 91.16 200.89 91.0107 200.346 90.712C199.802 90.4027 199.38 89.9867 199.082 89.464C198.794 88.9307 198.65 88.3227 198.65 87.64C198.65 86.9893 198.815 86.3973 199.146 85.864C199.476 85.3307 199.919 84.904 200.474 84.584C201.028 84.264 201.647 84.104 202.33 84.104C203.204 84.104 203.93 84.36 204.506 84.872C205.082 85.384 205.471 86.088 205.674 86.984L200.218 88.904L199.866 88.024L204.346 86.392L204.026 86.6C203.898 86.248 203.684 85.944 203.386 85.688C203.087 85.4213 202.698 85.288 202.218 85.288C201.812 85.288 201.45 85.3893 201.13 85.592C200.81 85.784 200.559 86.0507 200.378 86.392C200.196 86.7333 200.106 87.1227 200.106 87.56C200.106 88.0187 200.202 88.424 200.394 88.776C200.586 89.1173 200.847 89.3893 201.178 89.592C201.519 89.784 201.903 89.88 202.33 89.88C202.618 89.88 202.895 89.8267 203.162 89.72C203.439 89.6133 203.695 89.4747 203.93 89.304L204.618 90.408C204.287 90.632 203.914 90.8133 203.498 90.952C203.092 91.0907 202.692 91.16 202.298 91.16ZM204.042 81L202.01 83.144H201.066L202.394 81H204.042ZM215.081 87.544C214.537 87.544 214.025 87.4 213.545 87.112C213.065 86.824 212.67 86.4293 212.361 85.928C212.062 85.416 211.913 84.84 211.913 84.2C211.913 83.4533 212.083 82.808 212.425 82.264C212.777 81.7093 213.23 81.2827 213.785 80.984C214.339 80.6853 214.937 80.536 215.577 80.536C216.291 80.536 216.931 80.6907 217.497 81C218.073 81.3093 218.526 81.7413 218.857 82.296C219.198 82.8507 219.369 83.4907 219.369 84.216C219.369 85.048 219.209 85.8053 218.889 86.488C218.579 87.1707 218.169 87.7947 217.657 88.36C217.145 88.9147 216.579 89.4267 215.961 89.896C215.342 90.3547 214.723 90.792 214.105 91.208L213.081 90.072C213.966 89.6133 214.734 89.1333 215.385 88.632C216.035 88.1307 216.547 87.6293 216.921 87.128C217.294 86.616 217.513 86.136 217.577 85.688L218.025 85.704C217.705 86.3013 217.321 86.76 216.873 87.08C216.435 87.3893 215.838 87.544 215.081 87.544ZM215.641 86.232C216.27 86.232 216.782 86.0507 217.177 85.688C217.582 85.3253 217.785 84.856 217.785 84.28V83.992C217.774 83.5973 217.673 83.2453 217.481 82.936C217.289 82.6267 217.033 82.3813 216.713 82.2C216.393 82.0187 216.035 81.928 215.641 81.928C215.246 81.928 214.883 82.0187 214.553 82.2C214.233 82.3813 213.977 82.6373 213.785 82.968C213.603 83.288 213.513 83.6667 213.513 84.104C213.513 84.5307 213.609 84.9093 213.801 85.24C213.993 85.56 214.249 85.8053 214.569 85.976C214.889 86.1467 215.246 86.232 215.641 86.232ZM226.257 91V78.616H227.713V85.912L227.681 85.64C227.905 85.2027 228.246 84.84 228.705 84.552C229.174 84.264 229.724 84.12 230.353 84.12C230.982 84.12 231.494 84.3067 231.889 84.68C232.294 85.0427 232.502 85.5173 232.513 86.104V91H231.009V86.632C230.998 86.2693 230.892 85.976 230.689 85.752C230.497 85.5173 230.193 85.4 229.777 85.4C229.393 85.4 229.046 85.512 228.737 85.736C228.428 85.9493 228.182 86.2427 228.001 86.616C227.83 86.9893 227.745 87.416 227.745 87.896V91H226.257ZM234.525 87.624C234.525 86.9627 234.679 86.3653 234.989 85.832C235.309 85.2987 235.746 84.8773 236.301 84.568C236.855 84.2587 237.485 84.104 238.189 84.104C238.914 84.104 239.549 84.2587 240.093 84.568C240.637 84.8773 241.058 85.2987 241.357 85.832C241.655 86.3653 241.805 86.9627 241.805 87.624C241.805 88.2853 241.655 88.888 241.357 89.432C241.058 89.9653 240.631 90.3867 240.077 90.696C239.533 91.0053 238.898 91.16 238.173 91.16C237.469 91.16 236.839 91.016 236.285 90.728C235.741 90.4293 235.309 90.0187 234.989 89.496C234.679 88.9627 234.525 88.3387 234.525 87.624ZM236.013 87.64C236.013 88.0667 236.109 88.456 236.301 88.808C236.493 89.1493 236.749 89.4213 237.069 89.624C237.399 89.8267 237.762 89.928 238.157 89.928C238.573 89.928 238.941 89.8267 239.261 89.624C239.591 89.4213 239.847 89.1493 240.029 88.808C240.21 88.456 240.301 88.0667 240.301 87.64C240.301 87.2133 240.21 86.8293 240.029 86.488C239.847 86.136 239.591 85.8587 239.261 85.656C238.941 85.4427 238.573 85.336 238.157 85.336C237.751 85.336 237.383 85.4427 237.053 85.656C236.733 85.8693 236.477 86.152 236.285 86.504C236.103 86.8453 236.013 87.224 236.013 87.64ZM245.147 84.376L245.291 86.296L245.211 86.04C245.382 85.6347 245.627 85.2933 245.947 85.016C246.278 84.728 246.619 84.5093 246.971 84.36C247.334 84.2 247.649 84.12 247.915 84.12L247.835 85.592C247.334 85.56 246.891 85.656 246.507 85.88C246.134 86.104 245.835 86.4027 245.611 86.776C245.398 87.1493 245.291 87.5493 245.291 87.976V91H243.819V84.376H245.147ZM252.431 91.16C251.812 91.16 251.247 91.0267 250.735 90.76C250.233 90.4933 249.833 90.104 249.535 89.592C249.247 89.0693 249.103 88.4347 249.103 87.688C249.103 86.952 249.257 86.3173 249.567 85.784C249.876 85.24 250.287 84.824 250.799 84.536C251.321 84.248 251.892 84.104 252.511 84.104C253.129 84.104 253.652 84.248 254.079 84.536C254.505 84.8133 254.831 85.144 255.055 85.528L254.959 85.784L255.103 84.376H256.479V91H254.991V89.272L255.151 89.656C255.108 89.7627 255.012 89.9013 254.863 90.072C254.724 90.232 254.532 90.3973 254.287 90.568C254.052 90.7387 253.78 90.8827 253.471 91C253.161 91.1067 252.815 91.16 252.431 91.16ZM252.831 89.928C253.204 89.928 253.54 89.8587 253.839 89.72C254.137 89.5813 254.383 89.3893 254.575 89.144C254.777 88.888 254.916 88.584 254.991 88.232V86.936C254.905 86.616 254.756 86.3387 254.543 86.104C254.329 85.8587 254.073 85.672 253.775 85.544C253.476 85.4053 253.145 85.336 252.783 85.336C252.388 85.336 252.025 85.432 251.695 85.624C251.364 85.816 251.097 86.0827 250.895 86.424C250.703 86.7653 250.607 87.1653 250.607 87.624C250.607 88.0507 250.708 88.44 250.911 88.792C251.113 89.144 251.385 89.4213 251.727 89.624C252.068 89.8267 252.436 89.928 252.831 89.928ZM260.91 91.128C260.44 91.128 259.982 91.048 259.534 90.888C259.096 90.7173 258.734 90.4667 258.446 90.136L259.07 89.272C259.347 89.5387 259.63 89.7413 259.918 89.88C260.216 90.008 260.51 90.072 260.798 90.072C261.011 90.072 261.208 90.0453 261.39 89.992C261.571 89.9387 261.715 89.8533 261.822 89.736C261.939 89.608 261.998 89.4373 261.998 89.224C261.998 88.9893 261.918 88.8027 261.758 88.664C261.608 88.5253 261.411 88.4133 261.166 88.328C260.931 88.2427 260.68 88.1627 260.414 88.088C259.87 87.9067 259.454 87.656 259.166 87.336C258.878 87.016 258.734 86.6267 258.734 86.168C258.734 85.816 258.819 85.4907 258.99 85.192C259.171 84.8827 259.432 84.632 259.774 84.44C260.126 84.248 260.558 84.152 261.07 84.152C261.528 84.152 261.939 84.2107 262.302 84.328C262.664 84.4347 263.006 84.616 263.326 84.872L262.734 85.8C262.542 85.5973 262.312 85.448 262.046 85.352C261.779 85.256 261.539 85.2027 261.326 85.192C261.144 85.1813 260.968 85.208 260.798 85.272C260.638 85.336 260.504 85.4267 260.398 85.544C260.291 85.6613 260.238 85.8 260.238 85.96C260.238 86.184 260.312 86.3653 260.462 86.504C260.611 86.6427 260.803 86.7547 261.038 86.84C261.283 86.9147 261.523 86.9947 261.758 87.08C262.088 87.176 262.382 87.304 262.638 87.464C262.894 87.624 263.096 87.8213 263.246 88.056C263.406 88.2907 263.486 88.584 263.486 88.936C263.486 89.3307 263.39 89.6987 263.198 90.04C263.016 90.3707 262.734 90.6373 262.35 90.84C261.976 91.032 261.496 91.128 260.91 91.128ZM264.817 90.152C264.817 89.9173 264.903 89.72 265.073 89.56C265.255 89.3893 265.452 89.304 265.665 89.304C265.857 89.304 266.039 89.3893 266.209 89.56C266.391 89.72 266.481 89.9173 266.481 90.152C266.481 90.408 266.391 90.616 266.209 90.776C266.039 90.9253 265.857 91 265.665 91C265.452 91 265.255 90.9253 265.073 90.776C264.903 90.616 264.817 90.408 264.817 90.152Z" fill="white"/>
<g clip-path="url(#clip0_0_1)">
<path d="M47.5247 42.439H59.3054C61.8013 39.3181 65.62 37.3045 69.913 37.3045V24.4432C69.913 22.3291 69.3889 20.7182 68.3156 19.6611C67.2174 18.5537 65.5701 18 63.4486 18H32.6989C30.5275 18 28.9301 18.5537 27.8319 19.6611C26.7337 20.7182 26.1846 22.3291 26.1846 24.4432V55.8289C26.1846 57.943 26.7337 59.5539 27.8319 60.6613C28.9301 61.7184 30.5275 62.2721 32.6989 62.2721H61.8263C58.4318 59.7552 56.2354 55.703 56.2354 51.1474C56.2354 51.0216 56.2354 50.8706 56.2604 50.7447H47.5247C47.2751 50.7447 47.0504 50.6441 46.8757 50.4679C46.701 50.2917 46.6012 50.0652 46.6012 49.8135C46.6012 49.5618 46.701 49.3353 46.8757 49.1591C47.0504 48.9578 47.2751 48.8822 47.5247 48.8822H56.4351C56.6847 47.2463 57.2338 45.6858 58.0574 44.3015H47.5247C47.2751 44.3015 47.0504 44.2008 46.8757 44.0246C46.701 43.8485 46.6012 43.6219 46.6012 43.3703C46.6012 43.1186 46.701 42.892 46.8757 42.7159C47.0504 42.5397 47.2751 42.439 47.5247 42.439ZM43.9805 48.6557C43.9805 49.3101 43.8057 49.8135 43.4314 50.191C43.057 50.5434 42.5328 50.7447 41.8589 50.7447H37.8904C37.2165 50.7447 36.6924 50.5434 36.318 50.191C35.9436 49.8135 35.7689 49.3101 35.7689 48.6557V44.528C35.7689 43.8736 35.9436 43.3703 36.318 42.9927C36.6924 42.6404 37.2165 42.439 37.8904 42.439H41.8589C42.5328 42.439 43.057 42.6404 43.4314 42.9927C43.8057 43.3703 43.9805 43.8736 43.9805 44.528V48.6557ZM43.9805 35.7692C43.9805 36.4236 43.8057 36.927 43.4314 37.3045C43.057 37.6821 42.5328 37.8583 41.8589 37.8583H37.8904C37.2165 37.8583 36.6924 37.6821 36.318 37.3045C35.9436 36.927 35.7689 36.4236 35.7689 35.7692V31.6415C35.7689 30.9872 35.9436 30.4838 36.318 30.1062C36.6924 29.7539 37.2165 29.5525 37.8904 29.5525H41.8589C42.5328 29.5525 43.057 29.7539 43.4314 30.1062C43.8057 30.4838 43.9805 30.9872 43.9805 31.6415V35.7692ZM46.8757 29.8294C47.0504 29.6532 47.2751 29.5525 47.5247 29.5525H59.3803C59.6548 29.5525 59.8794 29.6532 60.0542 29.8294C60.2289 30.0056 60.3287 30.2321 60.3287 30.4838C60.3287 30.7355 60.2289 30.962 60.0542 31.1382C59.8794 31.3143 59.6548 31.415 59.3803 31.415H47.5247C47.2751 31.415 47.0504 31.3143 46.8757 31.1382C46.701 30.962 46.6012 30.7355 46.6012 30.4838C46.6012 30.2321 46.701 30.0056 46.8757 29.8294ZM46.8757 36.2726C47.0504 36.0964 47.2751 35.9958 47.5247 35.9958H59.3803C59.6548 35.9958 59.8794 36.0964 60.0542 36.2726C60.2289 36.4488 60.3287 36.6753 60.3287 36.927C60.3287 37.1787 60.2289 37.4052 60.0542 37.5814C59.8794 37.7576 59.6548 37.8583 59.3803 37.8583H47.5247C47.2751 37.8583 47.0504 37.7576 46.8757 37.5814C46.701 37.4052 46.6012 37.1787 46.6012 36.927C46.6012 36.6753 46.701 36.4488 46.8757 36.2726Z" fill="#FBFBFB"/>
<path d="M69.9387 40.1738H69.9137C64.6224 40.1738 60.1796 43.8988 59.0065 48.9074C58.8568 49.5115 58.7819 50.1407 58.732 50.7699C58.707 51.0216 58.707 51.2733 58.707 51.525C58.707 56.2819 61.6273 60.3593 65.7455 62.0456C67.0434 62.5742 68.4661 62.851 69.9387 62.851C76.1784 62.851 81.1952 57.7921 81.1952 51.525C81.1952 45.2579 76.1784 40.1738 69.9387 40.1738ZM66.644 48.5299C66.694 48.3789 66.7938 48.2782 66.9436 48.2279C67.0933 48.1775 67.268 48.2027 67.4427 48.3286L69.9137 49.9897L70.8621 50.6441C71.1117 50.7951 71.3114 50.9965 71.4112 51.2481C71.5111 51.4998 71.561 51.7515 71.5111 52.0032C71.4612 52.2801 71.3364 52.5318 71.1117 52.7331C70.9121 52.9596 70.6625 53.0855 70.4129 53.1358C70.2382 53.161 70.0884 53.1358 69.9137 53.1358C69.8388 53.1106 69.739 53.1106 69.6391 53.0603C69.4145 52.9345 69.2148 52.7583 69.0401 52.5066L66.7439 49.0333C66.644 48.8571 66.5941 48.7061 66.644 48.5551V48.5299ZM76.9771 54.5201C76.5778 55.4262 76.0536 56.2568 75.3548 56.9615C74.631 57.6662 73.8323 58.2199 72.9088 58.5975C71.9853 59.0002 71.0119 59.2015 69.9387 59.2015C69.739 59.2015 69.5143 59.2015 69.3147 59.1764C68.491 59.1008 67.7173 58.9247 66.9685 58.5975C66.07 58.2199 65.2463 57.6662 64.5475 56.9615C63.8736 56.2568 63.2995 55.4262 62.9002 54.5201C62.5258 53.5889 62.3261 52.5821 62.3261 51.525C62.3261 50.6441 62.4759 49.8135 62.7504 49.0081C63.025 48.2027 63.4243 47.498 63.9235 46.8436C64.1232 46.5667 64.3728 46.3905 64.6723 46.3654C64.9468 46.315 65.2214 46.4157 65.421 46.6171C65.6457 46.8184 65.7206 47.0198 65.6956 47.2715C65.6706 47.5232 65.5708 47.7748 65.3961 48.0265C65.0217 48.5047 64.7471 49.0584 64.5475 49.6625C64.3228 50.2414 64.223 50.8706 64.223 51.525C64.223 52.3052 64.3728 53.0603 64.6723 53.7399C64.9468 54.4446 65.3711 55.0738 65.8953 55.5772C66.4194 56.1309 67.0184 56.5336 67.7173 56.8356C68.3662 57.1125 69.0651 57.2635 69.8139 57.2887H69.9387C70.7373 57.2887 71.4861 57.1377 72.185 56.8356C72.8838 56.5336 73.4829 56.1309 74.007 55.5772C74.5062 55.0738 74.9305 54.4446 75.23 53.7399C75.5046 53.0603 75.6543 52.3052 75.6543 51.525C75.6543 50.7448 75.5045 49.9394 75.205 49.2095C74.9055 48.5047 74.4812 47.8755 73.9321 47.347C73.408 46.8184 72.759 46.3905 72.0602 46.0885C71.586 45.9123 71.1117 45.7865 70.5876 45.7362V47.1204C70.5876 47.3721 70.5377 47.5735 70.3879 47.7245C70.2631 47.8252 70.1134 47.9259 69.9137 47.9259C69.8887 47.9259 69.8638 47.9259 69.8139 47.9259C69.6142 47.9259 69.4145 47.8252 69.2648 47.6993C69.115 47.5483 69.0401 47.347 69.0401 47.0953V44.6539C69.0401 44.4022 69.14 44.1757 69.2897 44.0247C69.4644 43.8988 69.6391 43.7982 69.9137 43.7982H69.9387C71.0119 43.7982 71.9853 43.9995 72.9088 44.4022C73.8323 44.8049 74.631 45.3335 75.3548 46.0382C76.0536 46.7681 76.5778 47.5735 76.9771 48.5047C77.3765 49.436 77.5762 50.4176 77.5762 51.4998C77.5762 52.5821 77.3765 53.5637 76.9771 54.4949V54.5201Z" fill="#FBFBFB"/>
</g>
<defs>
<clipPath id="clip0_0_1">
<rect width="56" height="45" fill="white" transform="translate(26 18)"/>
</clipPath>
</defs>
</svg>
