<svg width="300" height="125" viewBox="0 0 300 125" fill="none" xmlns="http://www.w3.org/2000/svg">
<rect width="300" height="125" rx="10" fill="#00ADF7"/>
<g clip-path="url(#clip0_0_1)">
<path d="M72.7836 19.6611C71.6854 18.5537 70.0381 18 67.9166 18H25.7106C23.5392 18 21.9418 18.5537 20.8436 19.6611C19.7454 20.7182 19.1963 22.3291 19.1963 24.4432V55.8289C19.1963 57.943 19.7454 59.5539 20.8436 60.6613C21.9418 61.7184 23.5392 62.2721 25.7106 62.2721H67.9166C70.0381 62.2721 71.6854 61.7184 72.7836 60.6613C73.8569 59.5539 74.381 57.943 74.381 55.8289V24.4432C74.381 22.3291 73.8569 20.7182 72.7836 19.6611ZM37.0171 48.6306C37.0171 49.2849 36.8175 49.8135 36.4431 50.1659C36.0687 50.5434 35.5695 50.7196 34.8956 50.7196H30.9021C30.2282 50.7196 29.7291 50.5434 29.3547 50.1659C28.9803 49.8135 28.7806 49.2849 28.7806 48.6306V44.5029C28.7806 43.8485 28.9803 43.3451 29.3547 42.9676C29.7291 42.6152 30.2282 42.4138 30.9021 42.4138H34.8956C35.5695 42.4138 36.0687 42.6152 36.4431 42.9676C36.8175 43.3451 37.0171 43.8485 37.0171 44.5029V48.6306ZM37.0171 35.7441C37.0171 36.3985 36.8175 36.927 36.4431 37.2794C36.0687 37.6569 35.5695 37.8331 34.8956 37.8331H30.9021C30.2282 37.8331 29.7291 37.6569 29.3547 37.2794C28.9803 36.927 28.7806 36.3985 28.7806 35.7441V31.6164C28.7806 30.962 28.9803 30.4586 29.3547 30.0811C29.7291 29.7287 30.2282 29.5274 30.9021 29.5274H34.8956C35.5695 29.5274 36.0687 29.7287 36.4431 30.0811C36.8175 30.4586 37.0171 30.962 37.0171 31.6164V35.7441ZM64.5471 50.4427C64.3724 50.6189 64.1477 50.7196 63.8982 50.7196H40.5613C40.2868 50.7196 40.0621 50.6189 39.8874 50.4427C39.7127 50.2665 39.6129 50.0652 39.6129 49.7883C39.6129 49.5366 39.7127 49.3101 39.8874 49.1339C40.0621 48.9578 40.2868 48.8571 40.5613 48.8571H63.8982C64.1477 48.8571 64.3724 48.9578 64.5471 49.1339C64.7468 49.3101 64.8216 49.5366 64.8216 49.7883C64.8216 50.0652 64.7468 50.2665 64.5471 50.4427ZM64.5471 44.0246C64.3724 44.2008 64.1477 44.2763 63.8982 44.2763H40.5613C40.2868 44.2763 40.0621 44.2008 39.8874 44.0246C39.7127 43.8233 39.6129 43.6219 39.6129 43.3451C39.6129 43.0934 39.7127 42.8669 39.8874 42.6907C40.0621 42.5145 40.2868 42.4138 40.5613 42.4138H63.8982C64.1477 42.4138 64.3724 42.5145 64.5471 42.6907C64.7468 42.8669 64.8216 43.0934 64.8216 43.3451C64.8216 43.6219 64.7468 43.8233 64.5471 44.0246ZM64.5471 37.5562C64.3724 37.7576 64.1477 37.8331 63.8982 37.8331H40.5613C40.2868 37.8331 40.0621 37.7576 39.8874 37.5562C39.7127 37.3801 39.6129 37.1787 39.6129 36.9018C39.6129 36.6502 39.7127 36.4236 39.8874 36.2475C40.0621 36.0713 40.2868 35.9706 40.5613 35.9706H63.8982C64.1477 35.9706 64.3724 36.0713 64.5471 36.2475C64.7468 36.4236 64.8216 36.6502 64.8216 36.9018C64.8216 37.1787 64.7468 37.3801 64.5471 37.5562ZM64.5471 31.113C64.3724 31.3144 64.1477 31.3899 63.8982 31.3899H40.5613C40.2868 31.3899 40.0621 31.3144 39.8874 31.113C39.7127 30.9368 39.6129 30.7355 39.6129 30.4586C39.6129 30.2069 39.7127 29.9804 39.8874 29.8042C40.0621 29.628 40.2868 29.5274 40.5613 29.5274H63.8982C64.1477 29.5274 64.3724 29.628 64.5471 29.8042C64.7468 29.9804 64.8216 30.2069 64.8216 30.4586C64.8216 30.7355 64.7468 30.9368 64.5471 31.113Z" fill="#FBFBFB"/>
</g>
<path d="M107.144 47.288C106.168 47.288 105.28 47.096 104.48 46.712C103.696 46.312 103.072 45.704 102.608 44.888C102.144 44.072 101.912 43.032 101.912 41.768C101.912 40.584 102.152 39.56 102.632 38.696C103.112 37.832 103.744 37.168 104.528 36.704C105.312 36.224 106.144 35.984 107.024 35.984C108.064 35.984 108.848 36.16 109.376 36.512C109.92 36.848 110.368 37.224 110.72 37.64L110.576 38.048L110.888 36.512H114.008V47H110.648V44.72L110.912 45.44C110.88 45.44 110.784 45.536 110.624 45.728C110.464 45.904 110.224 46.12 109.904 46.376C109.6 46.616 109.216 46.824 108.752 47C108.304 47.192 107.768 47.288 107.144 47.288ZM108.104 44.552C108.504 44.552 108.864 44.496 109.184 44.384C109.504 44.256 109.784 44.08 110.024 43.856C110.264 43.616 110.472 43.32 110.648 42.968V40.4C110.52 40.048 110.328 39.752 110.072 39.512C109.816 39.256 109.512 39.064 109.16 38.936C108.808 38.792 108.416 38.72 107.984 38.72C107.504 38.72 107.056 38.848 106.64 39.104C106.24 39.344 105.92 39.68 105.68 40.112C105.44 40.544 105.32 41.04 105.32 41.6C105.32 42.16 105.448 42.664 105.704 43.112C105.96 43.56 106.296 43.912 106.712 44.168C107.144 44.424 107.608 44.552 108.104 44.552ZM124.358 47.288C123.478 47.288 122.734 47.144 122.126 46.856C121.534 46.552 121.014 46.16 120.566 45.68L120.83 44.96V47H117.47V28.064H120.806V38.312V37.232C121.222 36.88 121.774 36.584 122.462 36.344C123.15 36.104 123.934 35.984 124.814 35.984C125.726 35.984 126.558 36.2 127.31 36.632C128.062 37.064 128.662 37.696 129.11 38.528C129.574 39.344 129.806 40.344 129.806 41.528C129.806 42.712 129.55 43.736 129.038 44.6C128.542 45.464 127.878 46.128 127.046 46.592C126.214 47.056 125.318 47.288 124.358 47.288ZM123.614 44.456C124.11 44.456 124.566 44.328 124.982 44.072C125.414 43.816 125.758 43.464 126.014 43.016C126.27 42.568 126.398 42.064 126.398 41.504C126.398 40.944 126.27 40.448 126.014 40.016C125.758 39.584 125.414 39.248 124.982 39.008C124.566 38.752 124.11 38.624 123.614 38.624C123.182 38.624 122.774 38.696 122.39 38.84C122.022 38.968 121.702 39.16 121.43 39.416C121.174 39.656 120.974 39.952 120.83 40.304V42.872C121.022 43.224 121.246 43.52 121.502 43.76C121.774 43.984 122.086 44.16 122.438 44.288C122.79 44.4 123.182 44.456 123.614 44.456ZM137.607 47.288C136.327 47.288 135.239 47.048 134.343 46.568C133.463 46.088 132.791 45.424 132.327 44.576C131.863 43.728 131.631 42.752 131.631 41.648C131.631 40.592 131.903 39.64 132.447 38.792C132.991 37.944 133.719 37.272 134.631 36.776C135.543 36.264 136.559 36.008 137.679 36.008C139.183 36.008 140.415 36.448 141.375 37.328C142.351 38.192 142.983 39.448 143.271 41.096L135.111 43.688L134.367 41.864L140.271 39.872L139.575 40.184C139.447 39.768 139.215 39.408 138.879 39.104C138.559 38.784 138.071 38.624 137.415 38.624C136.919 38.624 136.479 38.744 136.095 38.984C135.727 39.208 135.439 39.536 135.231 39.968C135.039 40.384 134.943 40.88 134.943 41.456C134.943 42.112 135.063 42.664 135.303 43.112C135.543 43.544 135.871 43.872 136.287 44.096C136.703 44.32 137.167 44.432 137.679 44.432C138.047 44.432 138.399 44.368 138.735 44.24C139.087 44.112 139.431 43.944 139.767 43.736L141.255 46.232C140.695 46.552 140.087 46.808 139.431 47C138.791 47.192 138.183 47.288 137.607 47.288ZM148.736 36.512L149.048 39.392L148.976 38.96C149.28 38.336 149.696 37.808 150.224 37.376C150.752 36.928 151.272 36.584 151.784 36.344C152.312 36.104 152.712 35.984 152.984 35.984L152.816 39.344C152.032 39.248 151.36 39.376 150.8 39.728C150.24 40.08 149.808 40.544 149.504 41.12C149.2 41.696 149.048 42.288 149.048 42.896V47H145.712V36.512H148.736ZM156.54 31.904H159.9V36.464H162.444V39.08H159.9V47H156.54V39.08H154.908V36.464H156.54V31.904ZM169.417 47.288C168.441 47.288 167.553 47.096 166.753 46.712C165.969 46.312 165.345 45.704 164.881 44.888C164.417 44.072 164.185 43.032 164.185 41.768C164.185 40.584 164.425 39.56 164.905 38.696C165.385 37.832 166.017 37.168 166.801 36.704C167.585 36.224 168.417 35.984 169.297 35.984C170.337 35.984 171.121 36.16 171.649 36.512C172.193 36.848 172.641 37.224 172.993 37.64L172.849 38.048L173.161 36.512H176.281V47H172.921V44.72L173.185 45.44C173.153 45.44 173.057 45.536 172.897 45.728C172.737 45.904 172.497 46.12 172.177 46.376C171.873 46.616 171.489 46.824 171.025 47C170.577 47.192 170.041 47.288 169.417 47.288ZM170.377 44.552C170.777 44.552 171.137 44.496 171.457 44.384C171.777 44.256 172.057 44.08 172.297 43.856C172.537 43.616 172.745 43.32 172.921 42.968V40.4C172.793 40.048 172.601 39.752 172.345 39.512C172.089 39.256 171.785 39.064 171.433 38.936C171.081 38.792 170.689 38.72 170.257 38.72C169.777 38.72 169.329 38.848 168.913 39.104C168.513 39.344 168.193 39.68 167.953 40.112C167.713 40.544 167.593 41.04 167.593 41.6C167.593 42.16 167.721 42.664 167.977 43.112C168.233 43.56 168.569 43.912 168.985 44.168C169.417 44.424 169.881 44.552 170.377 44.552ZM180.296 47V28.616H180.32L190.136 42.536L188.648 42.2L198.44 28.616H198.488V47H195.008V36.464L195.224 38.264L189.248 46.76H189.2L183.056 38.264L183.656 36.608V47H180.296ZM201.973 38.192C201.973 36.976 202.205 35.824 202.669 34.736C203.133 33.648 203.773 32.688 204.589 31.856C205.421 31.008 206.381 30.344 207.469 29.864C208.557 29.384 209.725 29.144 210.973 29.144C212.205 29.144 213.365 29.384 214.453 29.864C215.541 30.344 216.501 31.008 217.333 31.856C218.181 32.688 218.837 33.648 219.301 34.736C219.781 35.824 220.021 36.976 220.021 38.192C220.021 39.44 219.781 40.608 219.301 41.696C218.837 42.784 218.181 43.744 217.333 44.576C216.501 45.392 215.541 46.032 214.453 46.496C213.365 46.96 212.205 47.192 210.973 47.192C209.725 47.192 208.557 46.96 207.469 46.496C206.381 46.032 205.421 45.392 204.589 44.576C203.773 43.744 203.133 42.784 202.669 41.696C202.205 40.608 201.973 39.44 201.973 38.192ZM205.573 38.192C205.573 38.976 205.709 39.712 205.981 40.4C206.269 41.072 206.661 41.672 207.157 42.2C207.669 42.712 208.253 43.112 208.909 43.4C209.581 43.688 210.309 43.832 211.093 43.832C211.845 43.832 212.541 43.688 213.181 43.4C213.837 43.112 214.405 42.712 214.885 42.2C215.365 41.672 215.741 41.072 216.013 40.4C216.285 39.712 216.421 38.976 216.421 38.192C216.421 37.392 216.277 36.648 215.989 35.96C215.717 35.272 215.333 34.672 214.837 34.16C214.357 33.632 213.789 33.224 213.133 32.936C212.477 32.648 211.765 32.504 210.997 32.504C210.229 32.504 209.517 32.648 208.861 32.936C208.205 33.224 207.629 33.632 207.133 34.16C206.637 34.672 206.253 35.272 205.981 35.96C205.709 36.648 205.573 37.392 205.573 38.192ZM222.411 38.192C222.411 36.976 222.643 35.824 223.107 34.736C223.571 33.648 224.211 32.688 225.027 31.856C225.859 31.008 226.819 30.344 227.907 29.864C228.995 29.384 230.163 29.144 231.411 29.144C232.643 29.144 233.803 29.384 234.891 29.864C235.979 30.344 236.939 31.008 237.771 31.856C238.619 32.688 239.275 33.648 239.739 34.736C240.219 35.824 240.459 36.976 240.459 38.192C240.459 39.44 240.219 40.608 239.739 41.696C239.275 42.784 238.619 43.744 237.771 44.576C236.939 45.392 235.979 46.032 234.891 46.496C233.803 46.96 232.643 47.192 231.411 47.192C230.163 47.192 228.995 46.96 227.907 46.496C226.819 46.032 225.859 45.392 225.027 44.576C224.211 43.744 223.571 42.784 223.107 41.696C222.643 40.608 222.411 39.44 222.411 38.192ZM226.011 38.192C226.011 38.976 226.147 39.712 226.419 40.4C226.707 41.072 227.099 41.672 227.595 42.2C228.107 42.712 228.691 43.112 229.347 43.4C230.019 43.688 230.747 43.832 231.531 43.832C232.283 43.832 232.979 43.688 233.619 43.4C234.275 43.112 234.843 42.712 235.323 42.2C235.803 41.672 236.179 41.072 236.451 40.4C236.723 39.712 236.859 38.976 236.859 38.192C236.859 37.392 236.715 36.648 236.427 35.96C236.155 35.272 235.771 34.672 235.275 34.16C234.795 33.632 234.227 33.224 233.571 32.936C232.915 32.648 232.203 32.504 231.435 32.504C230.667 32.504 229.955 32.648 229.299 32.936C228.643 33.224 228.067 33.632 227.571 34.16C227.075 34.672 226.691 35.272 226.419 35.96C226.147 36.648 226.011 37.392 226.011 38.192ZM257.176 45.536C256.984 45.696 256.624 45.912 256.096 46.184C255.584 46.456 254.952 46.696 254.2 46.904C253.448 47.112 252.616 47.208 251.704 47.192C250.312 47.16 249.064 46.912 247.96 46.448C246.872 45.968 245.944 45.32 245.176 44.504C244.424 43.688 243.848 42.752 243.448 41.696C243.048 40.64 242.848 39.512 242.848 38.312C242.848 36.968 243.048 35.736 243.448 34.616C243.864 33.496 244.448 32.528 245.2 31.712C245.968 30.896 246.88 30.264 247.936 29.816C248.992 29.368 250.16 29.144 251.44 29.144C252.624 29.144 253.672 29.304 254.584 29.624C255.496 29.944 256.24 30.288 256.816 30.656L255.448 33.944C255.048 33.64 254.512 33.328 253.84 33.008C253.184 32.672 252.424 32.504 251.56 32.504C250.888 32.504 250.24 32.648 249.616 32.936C249.008 33.208 248.464 33.6 247.984 34.112C247.52 34.624 247.152 35.224 246.88 35.912C246.608 36.584 246.472 37.32 246.472 38.12C246.472 38.968 246.592 39.744 246.832 40.448C247.088 41.152 247.448 41.76 247.912 42.272C248.376 42.768 248.928 43.152 249.568 43.424C250.224 43.696 250.96 43.832 251.776 43.832C252.72 43.832 253.528 43.68 254.2 43.376C254.872 43.072 255.384 42.752 255.736 42.416L257.176 45.536Z" fill="white"/>
<path d="M105.777 74.136C105.585 74.264 105.324 74.408 104.993 74.568C104.663 74.728 104.273 74.8613 103.825 74.968C103.388 75.0747 102.908 75.128 102.385 75.128C101.489 75.1173 100.679 74.9573 99.9532 74.648C99.2385 74.3387 98.6305 73.9173 98.1292 73.384C97.6279 72.8507 97.2385 72.2373 96.9612 71.544C96.6945 70.84 96.5612 70.0933 96.5612 69.304C96.5612 68.44 96.6999 67.6453 96.9772 66.92C97.2652 66.184 97.6652 65.5493 98.1772 65.016C98.6892 64.472 99.2919 64.0507 99.9852 63.752C100.689 63.4533 101.457 63.304 102.289 63.304C102.983 63.304 103.612 63.4 104.177 63.592C104.743 63.7733 105.228 63.992 105.633 64.248L105.009 65.688C104.689 65.4747 104.3 65.272 103.841 65.08C103.393 64.888 102.892 64.792 102.337 64.792C101.772 64.792 101.239 64.904 100.737 65.128C100.236 65.352 99.7932 65.6667 99.4092 66.072C99.0252 66.4773 98.7212 66.952 98.4972 67.496C98.2839 68.0293 98.1772 68.6053 98.1772 69.224C98.1772 69.8533 98.2732 70.44 98.4652 70.984C98.6679 71.5173 98.9505 71.9813 99.3132 72.376C99.6865 72.7707 100.135 73.08 100.657 73.304C101.18 73.528 101.767 73.64 102.417 73.64C103.004 73.64 103.527 73.5493 103.985 73.368C104.444 73.1867 104.823 72.984 105.121 72.76L105.777 74.136ZM110.119 75.256C109.521 75.256 109.025 75.0747 108.631 74.712C108.247 74.3387 108.044 73.8587 108.023 73.272V68.376H109.511V72.744C109.532 73.1067 109.633 73.4 109.815 73.624C110.007 73.848 110.305 73.9653 110.711 73.976C111.084 73.976 111.415 73.8693 111.703 73.656C112.001 73.432 112.241 73.1333 112.423 72.76C112.604 72.376 112.695 71.944 112.695 71.464V68.376H114.183V75H112.823L112.695 73.368L112.775 73.656C112.647 73.9653 112.449 74.2427 112.183 74.488C111.927 74.7227 111.623 74.9093 111.271 75.048C110.919 75.1867 110.535 75.256 110.119 75.256ZM118.085 68.376L118.229 70.296L118.149 70.04C118.32 69.6347 118.565 69.2933 118.885 69.016C119.216 68.728 119.557 68.5093 119.909 68.36C120.272 68.2 120.586 68.12 120.853 68.12L120.773 69.592C120.272 69.56 119.829 69.656 119.445 69.88C119.072 70.104 118.773 70.4027 118.549 70.776C118.336 71.1493 118.229 71.5493 118.229 71.976V75H116.757V68.376H118.085ZM124.629 75.128C124.159 75.128 123.701 75.048 123.253 74.888C122.815 74.7173 122.453 74.4667 122.165 74.136L122.789 73.272C123.066 73.5387 123.349 73.7413 123.637 73.88C123.935 74.008 124.229 74.072 124.517 74.072C124.73 74.072 124.927 74.0453 125.109 73.992C125.29 73.9387 125.434 73.8533 125.541 73.736C125.658 73.608 125.717 73.4373 125.717 73.224C125.717 72.9893 125.637 72.8027 125.477 72.664C125.327 72.5253 125.13 72.4133 124.885 72.328C124.65 72.2427 124.399 72.1627 124.133 72.088C123.589 71.9067 123.173 71.656 122.885 71.336C122.597 71.016 122.453 70.6267 122.453 70.168C122.453 69.816 122.538 69.4907 122.709 69.192C122.89 68.8827 123.151 68.632 123.493 68.44C123.845 68.248 124.277 68.152 124.789 68.152C125.247 68.152 125.658 68.2107 126.021 68.328C126.383 68.4347 126.725 68.616 127.045 68.872L126.453 69.8C126.261 69.5973 126.031 69.448 125.765 69.352C125.498 69.256 125.258 69.2027 125.045 69.192C124.863 69.1813 124.687 69.208 124.517 69.272C124.357 69.336 124.223 69.4267 124.117 69.544C124.01 69.6613 123.957 69.8 123.957 69.96C123.957 70.184 124.031 70.3653 124.181 70.504C124.33 70.6427 124.522 70.7547 124.757 70.84C125.002 70.9147 125.242 70.9947 125.477 71.08C125.807 71.176 126.101 71.304 126.357 71.464C126.613 71.624 126.815 71.8213 126.965 72.056C127.125 72.2907 127.205 72.584 127.205 72.936C127.205 73.3307 127.109 73.6987 126.917 74.04C126.735 74.3707 126.453 74.6373 126.069 74.84C125.695 75.032 125.215 75.128 124.629 75.128ZM128.712 71.624C128.712 70.9627 128.867 70.3653 129.176 69.832C129.496 69.2987 129.934 68.8773 130.488 68.568C131.043 68.2587 131.672 68.104 132.376 68.104C133.102 68.104 133.736 68.2587 134.28 68.568C134.824 68.8773 135.246 69.2987 135.544 69.832C135.843 70.3653 135.992 70.9627 135.992 71.624C135.992 72.2853 135.843 72.888 135.544 73.432C135.246 73.9653 134.819 74.3867 134.264 74.696C133.72 75.0053 133.086 75.16 132.36 75.16C131.656 75.16 131.027 75.016 130.472 74.728C129.928 74.4293 129.496 74.0187 129.176 73.496C128.867 72.9627 128.712 72.3387 128.712 71.624ZM130.2 71.64C130.2 72.0667 130.296 72.456 130.488 72.808C130.68 73.1493 130.936 73.4213 131.256 73.624C131.587 73.8267 131.95 73.928 132.344 73.928C132.76 73.928 133.128 73.8267 133.448 73.624C133.779 73.4213 134.035 73.1493 134.216 72.808C134.398 72.456 134.488 72.0667 134.488 71.64C134.488 71.2133 134.398 70.8293 134.216 70.488C134.035 70.136 133.779 69.8587 133.448 69.656C133.128 69.4427 132.76 69.336 132.344 69.336C131.939 69.336 131.571 69.4427 131.24 69.656C130.92 69.8693 130.664 70.152 130.472 70.504C130.291 70.8453 130.2 71.224 130.2 71.64ZM139.863 75.128C139.394 75.128 138.935 75.048 138.487 74.888C138.05 74.7173 137.687 74.4667 137.399 74.136L138.023 73.272C138.3 73.5387 138.583 73.7413 138.871 73.88C139.17 74.008 139.463 74.072 139.751 74.072C139.964 74.072 140.162 74.0453 140.343 73.992C140.524 73.9387 140.668 73.8533 140.775 73.736C140.892 73.608 140.951 73.4373 140.951 73.224C140.951 72.9893 140.871 72.8027 140.711 72.664C140.562 72.5253 140.364 72.4133 140.119 72.328C139.884 72.2427 139.634 72.1627 139.367 72.088C138.823 71.9067 138.407 71.656 138.119 71.336C137.831 71.016 137.687 70.6267 137.687 70.168C137.687 69.816 137.772 69.4907 137.943 69.192C138.124 68.8827 138.386 68.632 138.727 68.44C139.079 68.248 139.511 68.152 140.023 68.152C140.482 68.152 140.892 68.2107 141.255 68.328C141.618 68.4347 141.959 68.616 142.279 68.872L141.687 69.8C141.495 69.5973 141.266 69.448 140.999 69.352C140.732 69.256 140.492 69.2027 140.279 69.192C140.098 69.1813 139.922 69.208 139.751 69.272C139.591 69.336 139.458 69.4267 139.351 69.544C139.244 69.6613 139.191 69.8 139.191 69.96C139.191 70.184 139.266 70.3653 139.415 70.504C139.564 70.6427 139.756 70.7547 139.991 70.84C140.236 70.9147 140.476 70.9947 140.711 71.08C141.042 71.176 141.335 71.304 141.591 71.464C141.847 71.624 142.05 71.8213 142.199 72.056C142.359 72.2907 142.439 72.584 142.439 72.936C142.439 73.3307 142.343 73.6987 142.151 74.04C141.97 74.3707 141.687 74.6373 141.303 74.84C140.93 75.032 140.45 75.128 139.863 75.128ZM152.769 78.28C152.278 78.28 151.846 78.2213 151.473 78.104C151.1 77.9973 150.758 77.8427 150.449 77.64C150.15 77.4373 149.862 77.208 149.585 76.952L150.449 75.944C150.801 76.2747 151.158 76.5307 151.521 76.712C151.884 76.8933 152.289 76.984 152.737 76.984C153.238 76.984 153.66 76.8987 154.001 76.728C154.353 76.568 154.62 76.3387 154.801 76.04C154.982 75.752 155.073 75.416 155.073 75.032L155.089 73.24L155.217 73.528C155.025 73.9867 154.678 74.376 154.177 74.696C153.676 75.0053 153.068 75.16 152.353 75.16C151.745 75.16 151.185 75.0053 150.673 74.696C150.172 74.3867 149.766 73.9707 149.457 73.448C149.158 72.9147 149.009 72.3173 149.009 71.656C149.009 70.9627 149.169 70.3547 149.489 69.832C149.809 69.2987 150.23 68.8773 150.753 68.568C151.276 68.2587 151.846 68.104 152.465 68.104C153.052 68.104 153.585 68.2267 154.065 68.472C154.556 68.7067 154.913 69.0107 155.137 69.384L155.057 69.656L155.217 68.376H156.577V75.048C156.577 75.6453 156.422 76.1893 156.113 76.68C155.804 77.1707 155.366 77.56 154.801 77.848C154.236 78.136 153.558 78.28 152.769 78.28ZM150.497 71.624C150.497 72.0507 150.598 72.44 150.801 72.792C151.004 73.144 151.276 73.4213 151.617 73.624C151.969 73.8267 152.358 73.928 152.785 73.928C153.18 73.928 153.532 73.8587 153.841 73.72C154.161 73.5707 154.428 73.3733 154.641 73.128C154.854 72.872 155.004 72.5787 155.089 72.248V70.936C154.993 70.616 154.833 70.3387 154.609 70.104C154.385 69.8587 154.118 69.672 153.809 69.544C153.5 69.4053 153.158 69.336 152.785 69.336C152.358 69.336 151.969 69.432 151.617 69.624C151.276 69.816 151.004 70.088 150.801 70.44C150.598 70.7813 150.497 71.176 150.497 71.624ZM160.476 68.376L160.62 70.296L160.54 70.04C160.71 69.6347 160.956 69.2933 161.276 69.016C161.606 68.728 161.948 68.5093 162.3 68.36C162.662 68.2 162.977 68.12 163.244 68.12L163.164 69.592C162.662 69.56 162.22 69.656 161.836 69.88C161.462 70.104 161.164 70.4027 160.94 70.776C160.726 71.1493 160.62 71.5493 160.62 71.976V75H159.148V68.376H160.476ZM167.759 75.16C167.14 75.16 166.575 75.0267 166.063 74.76C165.562 74.4933 165.162 74.104 164.863 73.592C164.575 73.0693 164.431 72.4347 164.431 71.688C164.431 70.952 164.586 70.3173 164.895 69.784C165.204 69.24 165.615 68.824 166.127 68.536C166.65 68.248 167.22 68.104 167.839 68.104C168.458 68.104 168.98 68.248 169.407 68.536C169.834 68.8133 170.159 69.144 170.383 69.528L170.287 69.784L170.431 68.376H171.807V75H170.319V73.272L170.479 73.656C170.436 73.7627 170.34 73.9013 170.191 74.072C170.052 74.232 169.86 74.3973 169.615 74.568C169.38 74.7387 169.108 74.8827 168.799 75C168.49 75.1067 168.143 75.16 167.759 75.16ZM168.159 73.928C168.532 73.928 168.868 73.8587 169.167 73.72C169.466 73.5813 169.711 73.3893 169.903 73.144C170.106 72.888 170.244 72.584 170.319 72.232V70.936C170.234 70.616 170.084 70.3387 169.871 70.104C169.658 69.8587 169.402 69.672 169.103 69.544C168.804 69.4053 168.474 69.336 168.111 69.336C167.716 69.336 167.354 69.432 167.023 69.624C166.692 69.816 166.426 70.0827 166.223 70.424C166.031 70.7653 165.935 71.1653 165.935 71.624C165.935 72.0507 166.036 72.44 166.239 72.792C166.442 73.144 166.714 73.4213 167.055 73.624C167.396 73.8267 167.764 73.928 168.159 73.928ZM175.022 65.464H176.51V68.408H178.334V69.576H176.51V75H175.022V69.576H173.806V68.408H175.022V65.464ZM182.228 75.256C181.631 75.256 181.135 75.0747 180.74 74.712C180.356 74.3387 180.153 73.8587 180.132 73.272V68.376H181.62V72.744C181.641 73.1067 181.743 73.4 181.924 73.624C182.116 73.848 182.415 73.9653 182.82 73.976C183.193 73.976 183.524 73.8693 183.812 73.656C184.111 73.432 184.351 73.1333 184.532 72.76C184.713 72.376 184.804 71.944 184.804 71.464V68.376H186.292V75H184.932L184.804 73.368L184.884 73.656C184.756 73.9653 184.559 74.2427 184.292 74.488C184.036 74.7227 183.732 74.9093 183.38 75.048C183.028 75.1867 182.644 75.256 182.228 75.256ZM188.866 68.376H190.354V75H188.866V68.376ZM188.754 65.976C188.754 65.7413 188.845 65.544 189.026 65.384C189.218 65.224 189.426 65.144 189.65 65.144C189.874 65.144 190.072 65.224 190.242 65.384C190.424 65.544 190.514 65.7413 190.514 65.976C190.514 66.2213 190.424 66.424 190.242 66.584C190.072 66.7333 189.874 66.808 189.65 66.808C189.426 66.808 189.218 66.728 189.026 66.568C188.845 66.408 188.754 66.2107 188.754 65.976ZM193.569 65.464H195.057V68.408H196.881V69.576H195.057V75H193.569V69.576H192.353V68.408H193.569V65.464ZM198.103 71.624C198.103 70.9627 198.257 70.3653 198.567 69.832C198.887 69.2987 199.324 68.8773 199.879 68.568C200.433 68.2587 201.063 68.104 201.767 68.104C202.492 68.104 203.127 68.2587 203.671 68.568C204.215 68.8773 204.636 69.2987 204.935 69.832C205.233 70.3653 205.383 70.9627 205.383 71.624C205.383 72.2853 205.233 72.888 204.935 73.432C204.636 73.9653 204.209 74.3867 203.655 74.696C203.111 75.0053 202.476 75.16 201.751 75.16C201.047 75.16 200.417 75.016 199.863 74.728C199.319 74.4293 198.887 74.0187 198.567 73.496C198.257 72.9627 198.103 72.3387 198.103 71.624ZM199.591 71.64C199.591 72.0667 199.687 72.456 199.879 72.808C200.071 73.1493 200.327 73.4213 200.647 73.624C200.977 73.8267 201.34 73.928 201.735 73.928C202.151 73.928 202.519 73.8267 202.839 73.624C203.169 73.4213 203.425 73.1493 203.607 72.808C203.788 72.456 203.879 72.0667 203.879 71.64C203.879 71.2133 203.788 70.8293 203.607 70.488C203.425 70.136 203.169 69.8587 202.839 69.656C202.519 69.4427 202.151 69.336 201.735 69.336C201.329 69.336 200.961 69.4427 200.631 69.656C200.311 69.8693 200.055 70.152 199.863 70.504C199.681 70.8453 199.591 71.224 199.591 71.64ZM209.254 75.128C208.784 75.128 208.326 75.048 207.878 74.888C207.44 74.7173 207.078 74.4667 206.79 74.136L207.414 73.272C207.691 73.5387 207.974 73.7413 208.262 73.88C208.56 74.008 208.854 74.072 209.142 74.072C209.355 74.072 209.552 74.0453 209.734 73.992C209.915 73.9387 210.059 73.8533 210.166 73.736C210.283 73.608 210.342 73.4373 210.342 73.224C210.342 72.9893 210.262 72.8027 210.102 72.664C209.952 72.5253 209.755 72.4133 209.51 72.328C209.275 72.2427 209.024 72.1627 208.758 72.088C208.214 71.9067 207.798 71.656 207.51 71.336C207.222 71.016 207.078 70.6267 207.078 70.168C207.078 69.816 207.163 69.4907 207.334 69.192C207.515 68.8827 207.776 68.632 208.118 68.44C208.47 68.248 208.902 68.152 209.414 68.152C209.872 68.152 210.283 68.2107 210.646 68.328C211.008 68.4347 211.35 68.616 211.67 68.872L211.078 69.8C210.886 69.5973 210.656 69.448 210.39 69.352C210.123 69.256 209.883 69.2027 209.67 69.192C209.488 69.1813 209.312 69.208 209.142 69.272C208.982 69.336 208.848 69.4267 208.742 69.544C208.635 69.6613 208.582 69.8 208.582 69.96C208.582 70.184 208.656 70.3653 208.806 70.504C208.955 70.6427 209.147 70.7547 209.382 70.84C209.627 70.9147 209.867 70.9947 210.102 71.08C210.432 71.176 210.726 71.304 210.982 71.464C211.238 71.624 211.44 71.8213 211.59 72.056C211.75 72.2907 211.83 72.584 211.83 72.936C211.83 73.3307 211.734 73.6987 211.542 74.04C211.36 74.3707 211.078 74.6373 210.694 74.84C210.32 75.032 209.84 75.128 209.254 75.128ZM218.4 71.624C218.4 70.9627 218.554 70.3653 218.864 69.832C219.184 69.2987 219.621 68.8773 220.176 68.568C220.73 68.2587 221.36 68.104 222.064 68.104C222.789 68.104 223.424 68.2587 223.968 68.568C224.512 68.8773 224.933 69.2987 225.232 69.832C225.53 70.3653 225.68 70.9627 225.68 71.624C225.68 72.2853 225.53 72.888 225.232 73.432C224.933 73.9653 224.506 74.3867 223.952 74.696C223.408 75.0053 222.773 75.16 222.048 75.16C221.344 75.16 220.714 75.016 220.16 74.728C219.616 74.4293 219.184 74.0187 218.864 73.496C218.554 72.9627 218.4 72.3387 218.4 71.624ZM219.888 71.64C219.888 72.0667 219.984 72.456 220.176 72.808C220.368 73.1493 220.624 73.4213 220.944 73.624C221.274 73.8267 221.637 73.928 222.032 73.928C222.448 73.928 222.816 73.8267 223.136 73.624C223.466 73.4213 223.722 73.1493 223.904 72.808C224.085 72.456 224.176 72.0667 224.176 71.64C224.176 71.2133 224.085 70.8293 223.904 70.488C223.722 70.136 223.466 69.8587 223.136 69.656C222.816 69.4427 222.448 69.336 222.032 69.336C221.626 69.336 221.258 69.4427 220.928 69.656C220.608 69.8693 220.352 70.152 220.16 70.504C219.978 70.8453 219.888 71.224 219.888 71.64ZM229.022 68.376L229.15 69.992L229.086 69.736C229.3 69.2453 229.646 68.856 230.126 68.568C230.606 68.2693 231.161 68.12 231.79 68.12C232.42 68.12 232.932 68.3067 233.326 68.68C233.732 69.0427 233.94 69.5173 233.95 70.104V75H232.446V70.632C232.436 70.2693 232.329 69.976 232.126 69.752C231.934 69.5173 231.63 69.4 231.214 69.4C230.83 69.4 230.484 69.5067 230.174 69.72C229.865 69.9333 229.62 70.2267 229.438 70.6C229.268 70.9733 229.182 71.4053 229.182 71.896V75H227.694V68.376H229.022ZM236.09 70.904H239.082V72.216H236.09V70.904ZM241.398 62.616H242.886V75H241.398V62.616ZM245.46 68.376H246.948V75H245.46V68.376ZM245.348 65.976C245.348 65.7413 245.439 65.544 245.62 65.384C245.812 65.224 246.02 65.144 246.244 65.144C246.468 65.144 246.665 65.224 246.836 65.384C247.017 65.544 247.108 65.7413 247.108 65.976C247.108 66.2213 247.017 66.424 246.836 66.584C246.665 66.7333 246.468 66.808 246.244 66.808C246.02 66.808 245.812 66.728 245.62 66.568C245.439 66.408 245.348 66.2107 245.348 65.976ZM250.851 68.376L250.979 69.992L250.915 69.736C251.128 69.2453 251.475 68.856 251.955 68.568C252.435 68.2693 252.989 68.12 253.619 68.12C254.248 68.12 254.76 68.3067 255.155 68.68C255.56 69.0427 255.768 69.5173 255.779 70.104V75H254.275V70.632C254.264 70.2693 254.157 69.976 253.955 69.752C253.763 69.5173 253.459 69.4 253.043 69.4C252.659 69.4 252.312 69.5067 252.003 69.72C251.693 69.9333 251.448 70.2267 251.267 70.6C251.096 70.9733 251.011 71.4053 251.011 71.896V75H249.523V68.376H250.851ZM261.438 75.16C260.681 75.16 260.03 75.0107 259.486 74.712C258.942 74.4027 258.521 73.9867 258.222 73.464C257.934 72.9307 257.79 72.3227 257.79 71.64C257.79 70.9893 257.956 70.3973 258.286 69.864C258.617 69.3307 259.06 68.904 259.614 68.584C260.169 68.264 260.788 68.104 261.47 68.104C262.345 68.104 263.07 68.36 263.646 68.872C264.222 69.384 264.612 70.088 264.814 70.984L259.358 72.904L259.006 72.024L263.486 70.392L263.166 70.6C263.038 70.248 262.825 69.944 262.526 69.688C262.228 69.4213 261.838 69.288 261.358 69.288C260.953 69.288 260.59 69.3893 260.27 69.592C259.95 69.784 259.7 70.0507 259.518 70.392C259.337 70.7333 259.246 71.1227 259.246 71.56C259.246 72.0187 259.342 72.424 259.534 72.776C259.726 73.1173 259.988 73.3893 260.318 73.592C260.66 73.784 261.044 73.88 261.47 73.88C261.758 73.88 262.036 73.8267 262.302 73.72C262.58 73.6133 262.836 73.4747 263.07 73.304L263.758 74.408C263.428 74.632 263.054 74.8133 262.638 74.952C262.233 75.0907 261.833 75.16 261.438 75.16ZM91.1017 90.392C90.803 90.6267 90.4457 90.8133 90.0297 90.952C89.6137 91.0907 89.1977 91.16 88.7817 91.16C88.0564 91.16 87.4217 91.016 86.8777 90.728C86.3337 90.44 85.907 90.04 85.5977 89.528C85.299 89.0053 85.1497 88.392 85.1497 87.688C85.1497 86.984 85.3097 86.3707 85.6297 85.848C85.9604 85.3253 86.387 84.9253 86.9097 84.648C87.443 84.36 88.0137 84.216 88.6217 84.216C89.155 84.216 89.6297 84.2907 90.0457 84.44C90.4724 84.5893 90.835 84.792 91.1337 85.048L90.3977 86.008C90.2057 85.8587 89.971 85.7253 89.6937 85.608C89.4164 85.4907 89.1017 85.432 88.7497 85.432C88.3657 85.432 88.0084 85.5333 87.6777 85.736C87.3577 85.928 87.1017 86.1947 86.9097 86.536C86.7284 86.8773 86.6377 87.2613 86.6377 87.688C86.6377 88.0933 86.7337 88.472 86.9257 88.824C87.1177 89.1653 87.3844 89.4373 87.7257 89.64C88.067 89.832 88.4564 89.928 88.8937 89.928C89.1817 89.928 89.443 89.8853 89.6777 89.8C89.923 89.7147 90.1417 89.5973 90.3337 89.448L91.1017 90.392ZM92.4466 87.624C92.4466 86.9627 92.6012 86.3653 92.9106 85.832C93.2306 85.2987 93.6679 84.8773 94.2226 84.568C94.7772 84.2587 95.4066 84.104 96.1106 84.104C96.8359 84.104 97.4706 84.2587 98.0146 84.568C98.5586 84.8773 98.9799 85.2987 99.2786 85.832C99.5772 86.3653 99.7266 86.9627 99.7266 87.624C99.7266 88.2853 99.5772 88.888 99.2786 89.432C98.9799 89.9653 98.5532 90.3867 97.9986 90.696C97.4546 91.0053 96.8199 91.16 96.0946 91.16C95.3906 91.16 94.7612 91.016 94.2066 90.728C93.6626 90.4293 93.2306 90.0187 92.9106 89.496C92.6012 88.9627 92.4466 88.3387 92.4466 87.624ZM93.9346 87.64C93.9346 88.0667 94.0306 88.456 94.2226 88.808C94.4146 89.1493 94.6706 89.4213 94.9906 89.624C95.3212 89.8267 95.6839 89.928 96.0786 89.928C96.4946 89.928 96.8626 89.8267 97.1826 89.624C97.5132 89.4213 97.7692 89.1493 97.9506 88.808C98.1319 88.456 98.2226 88.0667 98.2226 87.64C98.2226 87.2133 98.1319 86.8293 97.9506 86.488C97.7692 86.136 97.5132 85.8587 97.1826 85.656C96.8626 85.4427 96.4946 85.336 96.0786 85.336C95.6732 85.336 95.3052 85.4427 94.9746 85.656C94.6546 85.8693 94.3986 86.152 94.2066 86.504C94.0252 86.8453 93.9346 87.224 93.9346 87.64ZM103.069 84.376L103.197 85.864L103.133 85.736C103.379 85.2347 103.725 84.84 104.173 84.552C104.632 84.264 105.155 84.12 105.741 84.12C106.115 84.12 106.445 84.1787 106.733 84.296C107.021 84.4133 107.256 84.584 107.437 84.808C107.629 85.0213 107.752 85.288 107.805 85.608L107.725 85.656C107.981 85.176 108.333 84.8027 108.781 84.536C109.24 84.2587 109.72 84.12 110.221 84.12C110.872 84.12 111.384 84.3067 111.757 84.68C112.141 85.0427 112.339 85.5173 112.349 86.104V91H110.861V86.632C110.851 86.2907 110.765 86.008 110.605 85.784C110.456 85.5493 110.189 85.4213 109.805 85.4C109.421 85.4 109.075 85.5173 108.765 85.752C108.467 85.9867 108.232 86.2907 108.061 86.664C107.891 87.0267 107.8 87.4213 107.789 87.848V91H106.301V86.632C106.291 86.2907 106.2 86.008 106.029 85.784C105.869 85.5493 105.597 85.4213 105.213 85.4C104.819 85.4 104.472 85.5173 104.173 85.752C103.875 85.9867 103.64 86.2907 103.469 86.664C103.309 87.0373 103.229 87.4373 103.229 87.864V91H101.741V84.376H103.069ZM122.695 91.16C122.087 91.16 121.532 91.016 121.031 90.728C120.54 90.4293 120.151 90.0133 119.863 89.48C119.575 88.936 119.431 88.312 119.431 87.608C119.431 86.872 119.58 86.2427 119.879 85.72C120.188 85.1973 120.604 84.7973 121.127 84.52C121.65 84.2427 122.236 84.104 122.887 84.104C123.41 84.104 123.906 84.216 124.375 84.44C124.855 84.664 125.228 84.9733 125.495 85.368L125.431 85.896V78.616H126.903V91H125.415V89.352L125.575 89.768C125.266 90.1733 124.866 90.5093 124.375 90.776C123.884 91.032 123.324 91.16 122.695 91.16ZM123.159 89.896C123.554 89.896 123.906 89.8267 124.215 89.688C124.524 89.5387 124.78 89.336 124.983 89.08C125.186 88.824 125.33 88.52 125.415 88.168V86.92C125.33 86.6 125.175 86.3227 124.951 86.088C124.738 85.8427 124.476 85.6507 124.167 85.512C123.868 85.3627 123.532 85.288 123.159 85.288C122.754 85.288 122.38 85.3893 122.039 85.592C121.708 85.784 121.442 86.0507 121.239 86.392C121.036 86.7333 120.935 87.128 120.935 87.576C120.935 88.0133 121.036 88.408 121.239 88.76C121.442 89.1013 121.714 89.3787 122.055 89.592C122.396 89.7947 122.764 89.896 123.159 89.896ZM131.587 91.256C130.99 91.256 130.494 91.0747 130.099 90.712C129.715 90.3387 129.513 89.8587 129.491 89.272V84.376H130.979V88.744C131.001 89.1067 131.102 89.4 131.283 89.624C131.475 89.848 131.774 89.9653 132.179 89.976C132.553 89.976 132.883 89.8693 133.171 89.656C133.47 89.432 133.71 89.1333 133.891 88.76C134.073 88.376 134.163 87.944 134.163 87.464V84.376H135.651V91H134.291L134.163 89.368L134.243 89.656C134.115 89.9653 133.918 90.2427 133.651 90.488C133.395 90.7227 133.091 90.9093 132.739 91.048C132.387 91.1867 132.003 91.256 131.587 91.256ZM139.554 84.376L139.698 86.296L139.618 86.04C139.788 85.6347 140.034 85.2933 140.354 85.016C140.684 84.728 141.026 84.5093 141.378 84.36C141.74 84.2 142.055 84.12 142.322 84.12L142.242 85.592C141.74 85.56 141.298 85.656 140.914 85.88C140.54 86.104 140.242 86.4027 140.018 86.776C139.804 87.1493 139.698 87.5493 139.698 87.976V91H138.226V84.376H139.554ZM146.837 91.16C146.218 91.16 145.653 91.0267 145.141 90.76C144.64 90.4933 144.24 90.104 143.941 89.592C143.653 89.0693 143.509 88.4347 143.509 87.688C143.509 86.952 143.664 86.3173 143.973 85.784C144.282 85.24 144.693 84.824 145.205 84.536C145.728 84.248 146.298 84.104 146.917 84.104C147.536 84.104 148.058 84.248 148.485 84.536C148.912 84.8133 149.237 85.144 149.461 85.528L149.365 85.784L149.509 84.376H150.885V91H149.397V89.272L149.557 89.656C149.514 89.7627 149.418 89.9013 149.269 90.072C149.13 90.232 148.938 90.3973 148.693 90.568C148.458 90.7387 148.186 90.8827 147.877 91C147.568 91.1067 147.221 91.16 146.837 91.16ZM147.237 89.928C147.61 89.928 147.946 89.8587 148.245 89.72C148.544 89.5813 148.789 89.3893 148.981 89.144C149.184 88.888 149.322 88.584 149.397 88.232V86.936C149.312 86.616 149.162 86.3387 148.949 86.104C148.736 85.8587 148.48 85.672 148.181 85.544C147.882 85.4053 147.552 85.336 147.189 85.336C146.794 85.336 146.432 85.432 146.101 85.624C145.77 85.816 145.504 86.0827 145.301 86.424C145.109 86.7653 145.013 87.1653 145.013 87.624C145.013 88.0507 145.114 88.44 145.317 88.792C145.52 89.144 145.792 89.4213 146.133 89.624C146.474 89.8267 146.842 89.928 147.237 89.928ZM158.836 90.392C158.537 90.6267 158.18 90.8133 157.764 90.952C157.348 91.0907 156.932 91.16 156.516 91.16C155.791 91.16 155.156 91.016 154.612 90.728C154.068 90.44 153.641 90.04 153.332 89.528C153.033 89.0053 152.884 88.392 152.884 87.688C152.884 86.984 153.044 86.3707 153.364 85.848C153.695 85.3253 154.121 84.9253 154.644 84.648C155.177 84.36 155.748 84.216 156.356 84.216C156.889 84.216 157.364 84.2907 157.78 84.44C158.207 84.5893 158.569 84.792 158.868 85.048L158.132 86.008C157.94 85.8587 157.705 85.7253 157.428 85.608C157.151 85.4907 156.836 85.432 156.484 85.432C156.1 85.432 155.743 85.5333 155.412 85.736C155.092 85.928 154.836 86.1947 154.644 86.536C154.463 86.8773 154.372 87.2613 154.372 87.688C154.372 88.0933 154.468 88.472 154.66 88.824C154.852 89.1653 155.119 89.4373 155.46 89.64C155.801 89.832 156.191 89.928 156.628 89.928C156.916 89.928 157.177 89.8853 157.412 89.8C157.657 89.7147 157.876 89.5973 158.068 89.448L158.836 90.392ZM154.532 93.432C154.649 93.5493 154.799 93.6453 154.98 93.72C155.161 93.8053 155.369 93.848 155.604 93.848C155.881 93.848 156.132 93.784 156.356 93.656C156.58 93.5387 156.692 93.3627 156.692 93.128C156.692 92.9467 156.617 92.776 156.468 92.616C156.319 92.4667 156.047 92.392 155.652 92.392C155.481 92.392 155.3 92.4133 155.108 92.456C154.916 92.4987 154.751 92.5467 154.612 92.6L154.34 91.88L155.46 90.84L156.596 90.904L155.444 92.248L155.092 91.88C155.209 91.8267 155.353 91.784 155.524 91.752C155.695 91.7307 155.86 91.7147 156.02 91.704C156.585 91.6933 157.049 91.8053 157.412 92.04C157.775 92.2747 157.956 92.6267 157.956 93.096C157.956 93.4587 157.849 93.752 157.636 93.976C157.433 94.2107 157.167 94.3813 156.836 94.488C156.505 94.6053 156.143 94.664 155.748 94.664C155.353 94.664 155.012 94.6 154.724 94.472C154.447 94.3547 154.223 94.216 154.052 94.056L154.532 93.432ZM163.509 91.16C162.89 91.16 162.325 91.0267 161.813 90.76C161.312 90.4933 160.912 90.104 160.613 89.592C160.325 89.0693 160.181 88.4347 160.181 87.688C160.181 86.952 160.336 86.3173 160.645 85.784C160.954 85.24 161.365 84.824 161.877 84.536C162.4 84.248 162.97 84.104 163.589 84.104C164.208 84.104 164.73 84.248 165.157 84.536C165.584 84.8133 165.909 85.144 166.133 85.528L166.037 85.784L166.181 84.376H167.557V91H166.069V89.272L166.229 89.656C166.186 89.7627 166.09 89.9013 165.941 90.072C165.802 90.232 165.61 90.3973 165.365 90.568C165.13 90.7387 164.858 90.8827 164.549 91C164.24 91.1067 163.893 91.16 163.509 91.16ZM163.909 89.928C164.282 89.928 164.618 89.8587 164.917 89.72C165.216 89.5813 165.461 89.3893 165.653 89.144C165.856 88.888 165.994 88.584 166.069 88.232V86.936C165.984 86.616 165.834 86.3387 165.621 86.104C165.408 85.8587 165.152 85.672 164.853 85.544C164.554 85.4053 164.224 85.336 163.861 85.336C163.466 85.336 163.104 85.432 162.773 85.624C162.442 85.816 162.176 86.0827 161.973 86.424C161.781 86.7653 161.685 87.1653 161.685 87.624C161.685 88.0507 161.786 88.44 161.989 88.792C162.192 89.144 162.464 89.4213 162.805 89.624C163.146 89.8267 163.514 89.928 163.909 89.928ZM165.573 83.448C165.232 83.448 164.949 83.3733 164.725 83.224C164.512 83.064 164.309 82.8987 164.117 82.728C163.989 82.6107 163.861 82.504 163.733 82.408C163.605 82.3013 163.461 82.248 163.301 82.248C163.173 82.248 163.056 82.3013 162.949 82.408C162.853 82.504 162.778 82.6427 162.725 82.824C162.672 83.0053 162.645 83.2187 162.645 83.464H161.845C161.813 83.048 161.856 82.6747 161.973 82.344C162.101 82.0027 162.282 81.736 162.517 81.544C162.762 81.352 163.05 81.256 163.381 81.256C163.658 81.256 163.898 81.336 164.101 81.496C164.304 81.6453 164.49 81.8 164.661 81.96C164.81 82.0987 164.954 82.2267 165.093 82.344C165.232 82.4507 165.381 82.504 165.541 82.504C165.754 82.504 165.904 82.392 165.989 82.168C166.085 81.944 166.133 81.64 166.133 81.256H166.933C166.976 81.704 166.938 82.0933 166.821 82.424C166.714 82.7547 166.549 83.0107 166.325 83.192C166.101 83.3627 165.85 83.448 165.573 83.448ZM169.556 87.624C169.556 86.9627 169.711 86.3653 170.02 85.832C170.34 85.2987 170.777 84.8773 171.332 84.568C171.887 84.2587 172.516 84.104 173.22 84.104C173.945 84.104 174.58 84.2587 175.124 84.568C175.668 84.8773 176.089 85.2987 176.388 85.832C176.687 86.3653 176.836 86.9627 176.836 87.624C176.836 88.2853 176.687 88.888 176.388 89.432C176.089 89.9653 175.663 90.3867 175.108 90.696C174.564 91.0053 173.929 91.16 173.204 91.16C172.5 91.16 171.871 91.016 171.316 90.728C170.772 90.4293 170.34 90.0187 170.02 89.496C169.711 88.9627 169.556 88.3387 169.556 87.624ZM171.044 87.64C171.044 88.0667 171.14 88.456 171.332 88.808C171.524 89.1493 171.78 89.4213 172.1 89.624C172.431 89.8267 172.793 89.928 173.188 89.928C173.604 89.928 173.972 89.8267 174.292 89.624C174.623 89.4213 174.879 89.1493 175.06 88.808C175.241 88.456 175.332 88.0667 175.332 87.64C175.332 87.2133 175.241 86.8293 175.06 86.488C174.879 86.136 174.623 85.8587 174.292 85.656C173.972 85.4427 173.604 85.336 173.188 85.336C172.783 85.336 172.415 85.4427 172.084 85.656C171.764 85.8693 171.508 86.152 171.316 86.504C171.135 86.8453 171.044 87.224 171.044 87.64ZM186.601 91.16C185.993 91.16 185.439 91.016 184.937 90.728C184.447 90.4293 184.057 90.0133 183.769 89.48C183.481 88.936 183.337 88.312 183.337 87.608C183.337 86.872 183.487 86.2427 183.785 85.72C184.095 85.1973 184.511 84.7973 185.033 84.52C185.556 84.2427 186.143 84.104 186.793 84.104C187.316 84.104 187.812 84.216 188.281 84.44C188.761 84.664 189.135 84.9733 189.401 85.368L189.337 85.896V78.616H190.809V91H189.321V89.352L189.481 89.768C189.172 90.1733 188.772 90.5093 188.281 90.776C187.791 91.032 187.231 91.16 186.601 91.16ZM187.065 89.896C187.46 89.896 187.812 89.8267 188.121 89.688C188.431 89.5387 188.687 89.336 188.889 89.08C189.092 88.824 189.236 88.52 189.321 88.168V86.92C189.236 86.6 189.081 86.3227 188.857 86.088C188.644 85.8427 188.383 85.6507 188.073 85.512C187.775 85.3627 187.439 85.288 187.065 85.288C186.66 85.288 186.287 85.3893 185.945 85.592C185.615 85.784 185.348 86.0507 185.145 86.392C184.943 86.7333 184.841 87.128 184.841 87.576C184.841 88.0133 184.943 88.408 185.145 88.76C185.348 89.1013 185.62 89.3787 185.961 89.592C186.303 89.7947 186.671 89.896 187.065 89.896ZM196.47 91.16C195.712 91.16 195.062 91.0107 194.518 90.712C193.974 90.4027 193.552 89.9867 193.254 89.464C192.966 88.9307 192.822 88.3227 192.822 87.64C192.822 86.9893 192.987 86.3973 193.318 85.864C193.648 85.3307 194.091 84.904 194.646 84.584C195.2 84.264 195.819 84.104 196.502 84.104C197.376 84.104 198.102 84.36 198.678 84.872C199.254 85.384 199.643 86.088 199.846 86.984L194.39 88.904L194.038 88.024L198.518 86.392L198.198 86.6C198.07 86.248 197.856 85.944 197.558 85.688C197.259 85.4213 196.87 85.288 196.39 85.288C195.984 85.288 195.622 85.3893 195.302 85.592C194.982 85.784 194.731 86.0507 194.55 86.392C194.368 86.7333 194.278 87.1227 194.278 87.56C194.278 88.0187 194.374 88.424 194.566 88.776C194.758 89.1173 195.019 89.3893 195.35 89.592C195.691 89.784 196.075 89.88 196.502 89.88C196.79 89.88 197.067 89.8267 197.334 89.72C197.611 89.6133 197.867 89.4747 198.102 89.304L198.79 90.408C198.459 90.632 198.086 90.8133 197.67 90.952C197.264 91.0907 196.864 91.16 196.47 91.16ZM209.109 84.344H210.469V86.616H212.693V87.912H210.469V90.184H209.109V87.912H206.869V86.616H209.109V84.344ZM215.121 80.472H217.873V91H216.321V81.96H215.121V80.472ZM224.531 91.048C223.88 91.048 223.283 90.9253 222.739 90.68C222.195 90.4347 221.726 90.0827 221.331 89.624C220.947 89.1547 220.648 88.5893 220.435 87.928C220.222 87.2667 220.115 86.5253 220.115 85.704C220.115 84.808 220.216 84.0293 220.419 83.368C220.622 82.696 220.915 82.136 221.299 81.688C221.694 81.24 222.163 80.9093 222.707 80.696C223.251 80.472 223.859 80.36 224.531 80.36C225.182 80.36 225.774 80.4827 226.307 80.728C226.851 80.9733 227.315 81.3307 227.699 81.8C228.094 82.2587 228.398 82.8187 228.611 83.48C228.835 84.1307 228.947 84.872 228.947 85.704C228.947 86.5467 228.835 87.2987 228.611 87.96C228.398 88.6213 228.094 89.1813 227.699 89.64C227.315 90.0987 226.851 90.4507 226.307 90.696C225.774 90.9307 225.182 91.048 224.531 91.048ZM224.515 89.56C225.134 89.56 225.651 89.4 226.067 89.08C226.494 88.7493 226.814 88.2907 227.027 87.704C227.24 87.1173 227.347 86.44 227.347 85.672C227.347 84.904 227.24 84.2373 227.027 83.672C226.814 83.096 226.494 82.648 226.067 82.328C225.651 82.008 225.134 81.848 224.515 81.848C223.896 81.848 223.379 82.0133 222.963 82.344C222.547 82.664 222.232 83.112 222.019 83.688C221.816 84.264 221.715 84.936 221.715 85.704C221.715 86.4613 221.816 87.1333 222.019 87.72C222.232 88.296 222.547 88.7493 222.963 89.08C223.379 89.4 223.896 89.56 224.515 89.56ZM235.866 91V78.616H237.322V85.912L237.29 85.64C237.514 85.2027 237.856 84.84 238.314 84.552C238.784 84.264 239.333 84.12 239.962 84.12C240.592 84.12 241.104 84.3067 241.498 84.68C241.904 85.0427 242.112 85.5173 242.122 86.104V91H240.618V86.632C240.608 86.2693 240.501 85.976 240.298 85.752C240.106 85.5173 239.802 85.4 239.386 85.4C239.002 85.4 238.656 85.512 238.346 85.736C238.037 85.9493 237.792 86.2427 237.61 86.616C237.44 86.9893 237.354 87.416 237.354 87.896V91H235.866ZM244.134 87.624C244.134 86.9627 244.289 86.3653 244.598 85.832C244.918 85.2987 245.355 84.8773 245.91 84.568C246.465 84.2587 247.094 84.104 247.798 84.104C248.523 84.104 249.158 84.2587 249.702 84.568C250.246 84.8773 250.667 85.2987 250.966 85.832C251.265 86.3653 251.414 86.9627 251.414 87.624C251.414 88.2853 251.265 88.888 250.966 89.432C250.667 89.9653 250.241 90.3867 249.686 90.696C249.142 91.0053 248.507 91.16 247.782 91.16C247.078 91.16 246.449 91.016 245.894 90.728C245.35 90.4293 244.918 90.0187 244.598 89.496C244.289 88.9627 244.134 88.3387 244.134 87.624ZM245.622 87.64C245.622 88.0667 245.718 88.456 245.91 88.808C246.102 89.1493 246.358 89.4213 246.678 89.624C247.009 89.8267 247.371 89.928 247.766 89.928C248.182 89.928 248.55 89.8267 248.87 89.624C249.201 89.4213 249.457 89.1493 249.638 88.808C249.819 88.456 249.91 88.0667 249.91 87.64C249.91 87.2133 249.819 86.8293 249.638 86.488C249.457 86.136 249.201 85.8587 248.87 85.656C248.55 85.4427 248.182 85.336 247.766 85.336C247.361 85.336 246.993 85.4427 246.662 85.656C246.342 85.8693 246.086 86.152 245.894 86.504C245.713 86.8453 245.622 87.224 245.622 87.64ZM254.757 84.376L254.901 86.296L254.821 86.04C254.991 85.6347 255.237 85.2933 255.557 85.016C255.887 84.728 256.229 84.5093 256.581 84.36C256.943 84.2 257.258 84.12 257.525 84.12L257.445 85.592C256.943 85.56 256.501 85.656 256.117 85.88C255.743 86.104 255.445 86.4027 255.221 86.776C255.007 87.1493 254.901 87.5493 254.901 87.976V91H253.429V84.376H254.757ZM262.04 91.16C261.422 91.16 260.856 91.0267 260.344 90.76C259.843 90.4933 259.443 90.104 259.144 89.592C258.856 89.0693 258.712 88.4347 258.712 87.688C258.712 86.952 258.867 86.3173 259.176 85.784C259.486 85.24 259.896 84.824 260.408 84.536C260.931 84.248 261.502 84.104 262.12 84.104C262.739 84.104 263.262 84.248 263.688 84.536C264.115 84.8133 264.44 85.144 264.664 85.528L264.568 85.784L264.712 84.376H266.088V91H264.6V89.272L264.76 89.656C264.718 89.7627 264.622 89.9013 264.472 90.072C264.334 90.232 264.142 90.3973 263.896 90.568C263.662 90.7387 263.39 90.8827 263.08 91C262.771 91.1067 262.424 91.16 262.04 91.16ZM262.44 89.928C262.814 89.928 263.15 89.8587 263.448 89.72C263.747 89.5813 263.992 89.3893 264.184 89.144C264.387 88.888 264.526 88.584 264.6 88.232V86.936C264.515 86.616 264.366 86.3387 264.152 86.104C263.939 85.8587 263.683 85.672 263.384 85.544C263.086 85.4053 262.755 85.336 262.392 85.336C261.998 85.336 261.635 85.432 261.304 85.624C260.974 85.816 260.707 86.0827 260.504 86.424C260.312 86.7653 260.216 87.1653 260.216 87.624C260.216 88.0507 260.318 88.44 260.52 88.792C260.723 89.144 260.995 89.4213 261.336 89.624C261.678 89.8267 262.046 89.928 262.44 89.928ZM270.519 91.128C270.05 91.128 269.591 91.048 269.143 90.888C268.706 90.7173 268.343 90.4667 268.055 90.136L268.679 89.272C268.957 89.5387 269.239 89.7413 269.527 89.88C269.826 90.008 270.119 90.072 270.407 90.072C270.621 90.072 270.818 90.0453 270.999 89.992C271.181 89.9387 271.325 89.8533 271.431 89.736C271.549 89.608 271.607 89.4373 271.607 89.224C271.607 88.9893 271.527 88.8027 271.367 88.664C271.218 88.5253 271.021 88.4133 270.775 88.328C270.541 88.2427 270.29 88.1627 270.023 88.088C269.479 87.9067 269.063 87.656 268.775 87.336C268.487 87.016 268.343 86.6267 268.343 86.168C268.343 85.816 268.429 85.4907 268.599 85.192C268.781 84.8827 269.042 84.632 269.383 84.44C269.735 84.248 270.167 84.152 270.679 84.152C271.138 84.152 271.549 84.2107 271.911 84.328C272.274 84.4347 272.615 84.616 272.935 84.872L272.343 85.8C272.151 85.5973 271.922 85.448 271.655 85.352C271.389 85.256 271.149 85.2027 270.935 85.192C270.754 85.1813 270.578 85.208 270.407 85.272C270.247 85.336 270.114 85.4267 270.007 85.544C269.901 85.6613 269.847 85.8 269.847 85.96C269.847 86.184 269.922 86.3653 270.071 86.504C270.221 86.6427 270.413 86.7547 270.647 86.84C270.893 86.9147 271.133 86.9947 271.367 87.08C271.698 87.176 271.991 87.304 272.247 87.464C272.503 87.624 272.706 87.8213 272.855 88.056C273.015 88.2907 273.095 88.584 273.095 88.936C273.095 89.3307 272.999 89.6987 272.807 90.04C272.626 90.3707 272.343 90.6373 271.959 90.84C271.586 91.032 271.106 91.128 270.519 91.128ZM274.427 90.152C274.427 89.9173 274.512 89.72 274.683 89.56C274.864 89.3893 275.061 89.304 275.275 89.304C275.467 89.304 275.648 89.3893 275.819 89.56C276 89.72 276.091 89.9173 276.091 90.152C276.091 90.408 276 90.616 275.819 90.776C275.648 90.9253 275.467 91 275.275 91C275.061 91 274.864 90.9253 274.683 90.776C274.512 90.616 274.427 90.408 274.427 90.152Z" fill="white"/>
<defs>
<clipPath id="clip0_0_1">
<rect width="56" height="45" fill="white" transform="translate(19 18)"/>
</clipPath>
</defs>
</svg>
