<svg width="200" height="157" viewBox="0 0 200 157" fill="none" xmlns="http://www.w3.org/2000/svg">
<g clip-path="url(#clip0_12_184)">
<rect width="200" height="157" rx="5" fill="#41557E"/>
<g clip-path="url(#clip1_12_184)">
<path fill-rule="evenodd" clip-rule="evenodd" d="M168.254 90.8092H157.685L146.391 80.9361V90.8092H137.229V69.6713H150.337H150.836H151.335H151.789H152.242H152.696L153.149 69.7148L153.603 69.7583L154.057 69.8017L154.51 69.8452L154.918 69.8887L155.327 69.9322L155.735 69.9757L156.143 70.0192L156.506 70.0627L156.869 70.1062L157.232 70.1497L157.595 70.1932L157.958 70.2367L158.32 70.2802L158.683 70.3237L159.001 70.3672L159.318 70.4107L159.636 70.4541L159.953 70.4976L160.225 70.5846L160.498 70.6716L160.77 70.7586L161.042 70.8456L161.314 70.9326L161.586 71.0196L161.858 71.1066L162.131 71.1935L162.357 71.2805L162.584 71.411L162.811 71.5415L163.038 71.672L163.219 71.8025L163.401 71.9329L163.582 72.0634L163.763 72.1939L163.945 72.3244L164.126 72.4549L164.308 72.5853L164.444 72.7158L164.58 72.8463L164.716 72.9768L164.852 73.1073L164.988 73.2378L165.124 73.3682L165.26 73.4987L165.396 73.6292L165.487 73.7597L165.578 73.9336L165.669 74.1076L165.759 74.2816L165.805 74.4556L165.85 74.6295L165.895 74.8035L165.941 74.9775L165.986 75.1515L166.031 75.3254L166.077 75.4994V75.6734V75.8474V75.9779V76.1083V76.2388L166.031 76.3693L165.986 76.4998L165.941 76.6303L165.895 76.7607L165.85 76.8912L165.805 77.0217L165.759 77.1522L165.714 77.2827L165.669 77.4131L165.623 77.5436L165.578 77.6741L165.487 77.8046L165.396 77.9351L165.306 78.0656L165.215 78.196L165.124 78.3265L164.988 78.457L164.852 78.5875L164.716 78.718L164.58 78.8484L164.444 78.9789L164.308 79.1094L164.172 79.2399L164.036 79.3704L163.9 79.5008L163.763 79.6313L163.627 79.7618L163.446 79.8923L163.265 80.0228L163.083 80.1098L162.902 80.1967L162.72 80.2837L162.539 80.3707L162.357 80.4577L162.176 80.5447L161.994 80.6317L161.813 80.7187L161.632 80.8057L161.45 80.8926L161.269 80.9796L161.087 81.0231L160.906 81.0666L160.724 81.1101L160.543 81.1536L160.362 81.1971L160.135 81.2406L159.908 81.2841L159.681 81.3276L159.454 81.3711L159.228 81.4146L159.001 81.4581L158.774 81.5016L158.547 81.545L158.32 81.5885L158.094 81.632L157.821 81.6755L157.549 81.719L157.277 81.7625L157.005 81.806L156.733 81.8495L156.461 81.893L168.254 90.8092ZM146.391 78.6745H147.797H148.16H148.523H148.84H149.158H149.475H149.793H150.065H150.337H150.609H150.882H151.154H151.426L151.698 78.631L151.97 78.5875L152.197 78.544L152.424 78.5005L152.651 78.457L152.877 78.4135L153.059 78.37L153.24 78.3265L153.422 78.283L153.603 78.2395L153.785 78.196L153.966 78.1525L154.147 78.109L154.329 78.0656L154.465 78.0221L154.601 77.9786L154.737 77.9351L154.873 77.8916L155.009 77.8481L155.145 77.8046L155.281 77.7611L155.417 77.7176L155.553 77.6741L155.644 77.6306L155.735 77.5871L155.826 77.5436L155.916 77.5001L156.007 77.4566L156.098 77.4131L156.189 77.3697L156.279 77.3262L156.325 77.2827L156.37 77.2392L156.415 77.1957L156.461 77.1522L156.506 77.1087L156.551 77.0652L156.597 77.0217L156.642 76.9347L156.687 76.8477L156.733 76.7607L156.778 76.6738L156.824 76.5868L156.869 76.4998L156.914 76.4128L156.96 76.3258L157.005 76.2388L157.05 76.1518V76.0648V75.9779V75.8909V75.8039V75.7169V75.6299L157.005 75.5429L156.96 75.4559L156.914 75.3689L156.869 75.282L156.824 75.195L156.778 75.108L156.733 75.021L156.687 74.934L156.642 74.847L156.597 74.76L156.551 74.673L156.506 74.5861L156.461 74.5426L156.415 74.4991L156.37 74.4556L156.279 74.4121L156.189 74.3686L156.098 74.3251L156.007 74.2816L155.916 74.2381L155.826 74.1946L155.735 74.1511L155.644 74.1076L155.508 74.0641L155.372 74.0206L155.236 73.9771L155.1 73.9336L154.964 73.8902L154.828 73.8467L154.692 73.8032L154.556 73.7597L154.42 73.7162L154.283 73.6727L154.147 73.6292L153.966 73.5857L153.785 73.5422L153.603 73.4987L153.422 73.4552L153.24 73.4117L153.059 73.3682L152.877 73.3247L152.696 73.2812L152.514 73.2378L152.288 73.1943L152.061 73.1508L151.834 73.1073L151.607 73.0638L151.335 73.0203L151.063 72.9768H150.791H150.519H150.247H149.974H149.702H149.43H149.158H148.84H148.523H148.205H147.888H146.482L146.391 78.6745Z" fill="#F5FAFF"/>
<path fill-rule="evenodd" clip-rule="evenodd" d="M113.097 79.1964H114.413H114.64H114.866H115.093H115.32H115.501H115.683H115.864H116.046H116.227L116.409 79.1529L116.59 79.1094L116.771 79.0659L116.953 79.0224L117.134 78.9789L117.316 78.9354L117.497 78.8919L117.679 78.8484L117.86 78.8049L118.041 78.7614L118.178 78.718L118.314 78.6745L118.45 78.631L118.586 78.5875L118.722 78.544L118.858 78.5005L118.994 78.457L119.13 78.4135L119.266 78.37L119.402 78.3265L119.538 78.283L119.674 78.2395L119.81 78.196L119.947 78.1525L120.083 78.109L120.173 78.0655L120.264 78.0221L120.355 77.9786L120.445 77.9351L120.536 77.8916L120.627 77.8481L120.718 77.8046L120.808 77.7611L120.854 77.7176L120.899 77.6741L120.944 77.5871L120.99 77.5001L121.035 77.4131L121.081 77.3262L121.126 77.2392L121.171 77.1522L121.217 77.0652L121.262 76.9782L121.307 76.8912L121.353 76.8042L121.398 76.7172L121.443 76.6303L121.489 76.5433L121.534 76.4563L121.579 76.3693L121.625 76.2388V76.1083V75.9778V75.8474V75.7169V75.5864V75.4994V75.4124V75.3254L121.579 75.2385L121.534 75.1515L121.489 75.0645L121.443 74.9775L121.398 74.8905L121.353 74.8035L121.307 74.7165L121.262 74.6295L121.217 74.5426L121.171 74.4556L121.126 74.3686L121.081 74.2816L121.035 74.1946L120.99 74.1511L120.944 74.1076L120.899 74.0641L120.854 74.0206L120.808 73.9771L120.718 73.9336L120.627 73.8902L120.536 73.8467L120.445 73.8032L120.355 73.7597L120.264 73.7162L120.173 73.6727L120.083 73.6292L119.947 73.5857L119.81 73.5422L119.674 73.4987L119.538 73.4552L119.402 73.4117L119.266 73.3682L119.13 73.3247L118.994 73.2812L118.858 73.2378L118.722 73.1943L118.586 73.1508L118.45 73.0638L118.314 73.0203L118.178 72.9768L118.041 72.9333L117.86 72.8898L117.679 72.8463L117.497 72.8028L117.316 72.7593L117.134 72.7158L116.953 72.6723L116.771 72.6288L116.59 72.5853L116.409 72.5418H116.227H116.046H115.864H115.728H115.547H115.365H115.139H114.912H114.685H114.458H113.143V79.1964H113.097ZM103.844 90.8092V69.6713H114.413H114.912H115.411H115.91H116.409L116.908 69.7148L117.406 69.7583L117.86 69.8017L118.314 69.8452L118.767 69.8887L119.221 69.9322L119.674 69.9757L120.128 70.0192L120.582 70.0627L120.99 70.1062L121.398 70.1497L121.806 70.1932L122.169 70.2367L122.532 70.2802L122.895 70.3237L123.258 70.3672L123.621 70.4107L123.983 70.4541L124.346 70.5411L124.664 70.6281L124.981 70.7151L125.299 70.8021L125.571 70.8891L125.843 70.9761L126.115 71.0631L126.387 71.1501L126.66 71.237L126.932 71.3675L127.204 71.498L127.431 71.6285L127.658 71.759L127.884 71.8894L128.111 72.0199L128.293 72.1504L128.474 72.2809L128.655 72.4114L128.837 72.5418L129.018 72.6723L129.2 72.8028L129.381 72.9333L129.517 73.0638L129.653 73.1943L129.789 73.3247L129.925 73.4552L130.062 73.6292L130.198 73.8032L130.334 73.9771L130.424 74.1511L130.515 74.3251L130.606 74.4991L130.697 74.673L130.742 74.847L130.787 75.021L130.833 75.195L130.878 75.3689L130.923 75.5429L130.969 75.7169L131.014 75.8909V76.0648V76.2388V76.4128V76.5868L130.969 76.7607L130.923 76.9347L130.878 77.1087L130.833 77.2827L130.787 77.4566L130.742 77.6306L130.697 77.8046L130.606 77.9786L130.515 78.1525L130.424 78.3265L130.334 78.5005L130.198 78.6745L130.062 78.8484L129.925 79.0224L129.789 79.1529L129.653 79.2834L129.517 79.4139L129.381 79.5443L129.2 79.6748L129.018 79.8053L128.837 79.9358L128.655 80.0663L128.474 80.1967L128.293 80.3272L128.111 80.4577L127.884 80.5882L127.658 80.7187L127.431 80.8491L127.204 80.9796L126.932 81.1101L126.66 81.2406L126.387 81.3711L126.115 81.5016L125.843 81.632L125.571 81.719L125.299 81.806L125.027 81.893L124.755 81.98L124.437 82.067L124.12 82.154L123.802 82.2409L123.485 82.3279L123.167 82.3714L122.804 82.4149L122.441 82.4584L122.078 82.5019L121.716 82.5454L121.353 82.5889L120.99 82.6324L120.627 82.6759L120.264 82.7194L119.901 82.7629L119.493 82.8064L119.085 82.8499L118.676 82.8933L118.268 82.9368L117.86 82.9803L117.406 83.0238H116.953H116.499H116.046H115.592H113.097V91.1137L103.844 90.8092Z" fill="#F5FAFF"/>
<path fill-rule="evenodd" clip-rule="evenodd" d="M72.501 90.8092V69.6713H96.4051V72.5853H79.4862V77.8481H96.4051V80.8926H79.4862V90.8092H72.501Z" fill="#F5FAFF"/>
<path fill-rule="evenodd" clip-rule="evenodd" d="M30.045 69.6713H36.9396V82.5019V82.6324V82.8064V82.9804V83.1543L36.985 83.3283L37.0303 83.4588V83.6328L37.0757 83.8067L37.121 83.9807L37.1664 84.1547L37.2571 84.2852L37.3025 84.4157L37.3478 84.5461L37.3932 84.6766L37.4839 84.8506L37.5746 84.9811L37.6653 85.1116L37.7561 85.242L37.8468 85.3725L37.9828 85.5465L38.0736 85.6335L38.2096 85.764L38.3004 85.851L38.4364 85.9814L38.5272 86.0684L38.6632 86.1989L38.8447 86.2859L38.9807 86.4164L39.1168 86.5034L39.2983 86.5903L39.4797 86.6773L39.6158 86.7643L39.7972 86.8513L39.9786 86.9383L40.1601 87.0253L40.3415 87.1123L40.5229 87.1993L40.7497 87.2862L40.9312 87.3297L41.1126 87.4167L41.3394 87.4602L41.5662 87.5037L41.793 87.5907L42.0198 87.6342L42.2466 87.6777L42.4734 87.7212L42.7002 87.8082L42.9723 87.8517L43.2445 87.8952L43.5166 87.9386H43.7434L44.0156 87.9821L44.2877 88.0256H44.5599L44.832 88.0691L45.1495 88.1126H45.4217L45.7392 88.1561L46.0567 88.1996H46.3742H46.6917H47.0093H47.3268H47.5989H47.9618H48.2793H48.5968H48.9143H49.1865L49.504 88.1561L49.8215 88.1126H50.0937L50.4112 88.0691L50.6833 88.0256H50.9555L51.2276 87.9821L51.4998 87.9386H51.7266L51.9987 87.8952L52.2709 87.8517L52.543 87.8082L52.7698 87.7212L52.9966 87.6777L53.2234 87.6342L53.4502 87.5907L53.677 87.5037L53.9038 87.4602L54.1306 87.4167L54.312 87.3297L54.4935 87.2862L54.7203 87.1993L54.9017 87.1123L55.0831 87.0253L55.2646 86.9383L55.446 86.8513L55.6274 86.7643L55.7635 86.6773L55.9449 86.5903L56.081 86.5034L56.2625 86.3729L56.3985 86.2859L56.5346 86.1554L56.6707 86.0684L56.8068 85.9379L56.8975 85.851L57.0336 85.7205L57.1243 85.59L57.2603 85.503L57.3511 85.3725L57.4418 85.242L57.5325 85.0681L57.6232 84.9376L57.7139 84.8071L57.8047 84.6766L57.85 84.5461L57.9407 84.3722L57.9861 84.2417L58.0314 84.1112L58.0768 83.9372L58.1675 83.7633V83.6328L58.2129 83.4588L58.2582 83.2848V83.1109L58.3036 82.9369V82.8064V82.6324V82.4584V69.6278H65.2889V82.8064V83.0674V83.3283L65.2435 83.5458L65.1981 83.8067V84.0677L65.1074 84.3287L65.0621 84.5461L65.0167 84.8071L64.926 85.0246L64.8353 85.242L64.7446 85.4595L64.6538 85.677L64.5631 85.8944L64.427 86.1119L64.3363 86.3294L64.2003 86.5034L64.0188 86.7208L63.8827 86.8948L63.7467 87.1123L63.5652 87.2862L63.3838 87.5037L63.2024 87.6342L63.0209 87.8082L62.8395 87.9821L62.6127 88.1561L62.3859 88.3301L62.1591 88.5041L61.9323 88.6345L61.7055 88.8085L61.4334 88.939L61.1612 89.0695L60.9344 89.2L60.6169 89.3304L60.3447 89.4609L60.0726 89.5914L59.7551 89.7219L59.4376 89.8089L59.1201 89.9394L58.8025 90.0263L58.4397 90.1568L58.0768 90.2438L57.7593 90.3308L57.3511 90.4178L56.9882 90.5048L56.6253 90.5918L56.2171 90.6787L55.8089 90.7657L55.4006 90.8092L54.9924 90.8527L54.5842 90.8962L54.1306 90.9832L53.7224 91.0267L53.2688 91.0702L52.7698 91.1572H52.3162L51.8173 91.2007H51.3637L50.8648 91.2442L50.3204 91.2877H49.8215L49.2772 91.3312H48.7782H48.2339H47.6896H47.1453H46.601H46.0567L45.5578 91.2877H45.0135L44.5145 91.2442L44.0156 91.2007H43.5166L43.0177 91.1572H42.5641L42.1105 91.0702L41.6569 91.0267L41.2033 90.9832L40.7951 90.8962L40.3415 90.8527L39.9333 90.8092L39.525 90.7657L39.1622 90.6787L38.7539 90.5918L38.3457 90.5048L37.9828 90.4178L37.62 90.3308L37.2571 90.2438L36.9396 90.1568L36.5767 90.0263L36.2592 89.9394L35.9417 89.8089L35.6242 89.7219L35.3067 89.5914L35.0345 89.4609L34.717 89.3304L34.4448 89.2L34.1727 89.0695L33.9459 88.939L33.6737 88.8085L33.447 88.6345L33.2202 88.5041L32.9934 88.3301L32.7212 88.1996L32.5398 88.0256L32.3583 87.8517L32.1316 87.6777L31.9501 87.5037L31.7687 87.3297L31.6326 87.1123L31.4512 86.9383L31.3151 86.7208L31.179 86.5468L31.0429 86.3729L30.9069 86.1554L30.8161 85.9379L30.6801 85.7205L30.5894 85.503L30.4986 85.2855L30.4533 85.0681L30.3626 84.8506L30.2718 84.5896L30.2265 84.3287L30.1811 84.0677L30.1358 83.8502V83.5893L30.0904 83.3283V83.1109V82.8064L30.045 69.6713Z" fill="#F5FAFF"/>
<path d="M168.344 94.4191H30V95.5499H168.344V94.4191Z" fill="#F5FAFF"/>
<path fill-rule="evenodd" clip-rule="evenodd" d="M30.045 98.2029H30.9522V100.813C30.9522 101.204 31.0883 101.509 31.3151 101.682C31.5419 101.856 31.9048 101.987 32.4037 101.987C32.8573 101.987 33.2202 101.856 33.4923 101.682C33.7191 101.509 33.8552 101.204 33.8552 100.813V98.2029H34.7624V100.9C34.7624 101.465 34.5809 101.943 34.1727 102.248C33.7645 102.552 33.1748 102.683 32.4037 102.683C31.6326 102.683 30.9976 102.552 30.6347 102.248C30.2718 101.987 30.045 101.509 30.045 100.9V98.2029ZM35.9871 102.509V97.9855L39.6158 100.639L39.8879 100.9L40.2054 101.161V98.1594H41.0672V102.683L37.3932 99.9862L37.121 99.7687L36.8489 99.5078V102.509H35.9871ZM42.3826 98.1594H43.2898V102.509H42.3826V98.1594ZM46.4649 102.683L43.9248 98.2029H44.8774L46.1474 100.508L46.3289 100.856L46.4649 101.204L46.601 100.856L46.7825 100.508L48.0525 98.2029H49.005L46.4649 102.683ZM49.5947 102.509V98.1594H52.7698V98.7684H50.5472V99.8557H52.8152V100.465H50.5472V101.856H52.8152V102.509H49.5947ZM54.7656 100.03H54.947C55.446 100.03 55.7635 99.9862 55.9449 99.8992C56.1264 99.8122 56.1717 99.6382 56.1717 99.4208C56.1717 99.1598 56.081 98.9858 55.8996 98.9423C55.7181 98.8118 55.4006 98.8118 54.947 98.8118H54.7656V100.03ZM54.7203 100.552V102.465H53.8584V98.1159H55.1738C55.5367 98.1159 55.8542 98.1594 56.081 98.1594C56.2625 98.2029 56.4439 98.2899 56.6253 98.3334C56.8068 98.4639 56.9428 98.5944 57.0336 98.7684C57.1243 98.9423 57.1696 99.1163 57.1696 99.3338C57.1696 99.6817 57.0336 99.9427 56.8521 100.16C56.6253 100.334 56.3078 100.465 55.8542 100.508L57.8047 102.465H56.7614L54.8563 100.508L54.7203 100.552ZM57.9861 101.639L58.7572 101.378C58.8025 101.552 58.9386 101.726 59.1201 101.813C59.3015 101.943 59.5737 101.987 59.8458 101.987C60.118 101.987 60.3448 101.943 60.5262 101.813C60.7076 101.682 60.753 101.552 60.753 101.335C60.753 101.074 60.4808 100.856 59.9365 100.639L59.7551 100.595C59.1201 100.378 58.7118 100.16 58.485 99.9427C58.3036 99.7687 58.1675 99.5077 58.1675 99.2468C58.1675 98.8988 58.3036 98.5944 58.6211 98.3769C58.9386 98.1594 59.3469 98.029 59.8458 98.029C60.2994 98.029 60.6169 98.0725 60.9344 98.2029C61.2066 98.3334 61.4334 98.5074 61.5241 98.7249L60.7983 98.9858L60.4355 98.6814C60.2994 98.6379 60.1633 98.5944 59.9819 98.5944C59.7097 98.5944 59.5283 98.6379 59.3922 98.7249C59.2561 98.8553 59.1654 98.9423 59.1654 99.1163C59.1654 99.3773 59.4829 99.5947 60.1633 99.8557L60.2994 99.8992C60.8891 100.073 61.2519 100.291 61.4334 100.465C61.6148 100.639 61.7509 100.9 61.7509 101.204C61.7509 101.639 61.5694 101.943 61.2519 102.161C60.8891 102.422 60.4355 102.509 59.8458 102.509C59.3469 102.509 58.9386 102.422 58.6665 102.248C58.3036 102.204 58.0768 101.943 57.9861 101.639ZM62.7034 98.1594H63.6106V102.509H62.7034V98.1594ZM65.8785 101.856H66.6496C67.1032 101.856 67.4207 101.813 67.6022 101.813C67.7836 101.769 68.0104 101.682 68.1465 101.596C68.3279 101.465 68.5093 101.291 68.6454 101.074C68.7815 100.856 68.8269 100.639 68.8269 100.334C68.8269 100.073 68.7815 99.8122 68.6454 99.5947C68.5093 99.3773 68.3733 99.2033 68.1465 99.0728C67.965 98.9423 67.7836 98.8988 67.5568 98.8553C67.33 98.8118 66.9671 98.8118 66.4682 98.8118H66.1053H65.8332L65.8785 101.856ZM64.9714 102.509V98.1594H66.196C67.0125 98.1594 67.6022 98.2029 67.9197 98.2464C68.2372 98.2899 68.5547 98.4204 68.7815 98.5509C69.099 98.7249 69.3712 98.9858 69.5526 99.2903C69.734 99.5947 69.8247 99.9427 69.8247 100.291C69.8247 100.682 69.734 101.03 69.5526 101.335C69.3712 101.639 69.099 101.9 68.7815 102.074C68.5093 102.204 68.2825 102.335 67.965 102.378C67.6475 102.422 67.1486 102.465 66.4682 102.465H66.196L64.9714 102.509ZM71.9566 100.813H73.5442L72.9545 99.8122L72.8184 99.5947L72.6824 99.3338L72.5916 99.5947L72.4556 99.8122L71.9566 100.813ZM74.4513 102.509L73.8163 101.422H71.5484L70.868 102.509H69.8701L72.637 97.9855L75.4039 102.509H74.4513ZM76.9461 101.856H77.7172C78.1708 101.856 78.4883 101.813 78.6697 101.813C78.8512 101.769 79.0779 101.682 79.214 101.596C79.3955 101.465 79.5769 101.291 79.713 101.074C79.849 100.856 79.8944 100.639 79.8944 100.334C79.8944 100.073 79.849 99.8122 79.713 99.5947C79.5769 99.3773 79.4408 99.2033 79.214 99.0728C79.0326 98.9423 78.8512 98.8988 78.6244 98.8553C78.3976 98.8118 78.0347 98.8118 77.5358 98.8118H77.1729H76.81L76.9461 101.856ZM75.9935 102.509V98.1594H77.2182C78.0347 98.1594 78.6244 98.2029 78.9419 98.2464C79.2594 98.2899 79.5769 98.4204 79.8037 98.5509C80.1212 98.7249 80.3934 98.9858 80.5748 99.2903C80.7562 99.5947 80.8469 99.9427 80.8469 100.291C80.8469 100.682 80.7562 101.03 80.5748 101.335C80.3934 101.639 80.1212 101.9 79.8037 102.074C79.5315 102.204 79.3047 102.335 78.9872 102.378C78.6697 102.422 78.1708 102.465 77.4904 102.465H77.2182L75.9935 102.509ZM81.9356 102.509V98.1594H85.1107V98.7684H82.8427V99.8557H85.1107V100.465H82.8427V101.856H85.1107V102.509H81.9356ZM88.5579 102.509V98.1594H91.7331V98.7684H89.4651V99.8557H91.7331V100.465H89.4651V102.509H88.5579ZM92.731 102.509V98.1594H95.9061V98.7684H93.6381V99.8557H95.9061V100.465H93.6381V101.856H95.9061V102.509H92.731ZM97.9019 101.856H98.673C99.1265 101.856 99.4441 101.813 99.6255 101.813C99.8069 101.769 100.034 101.682 100.17 101.596C100.351 101.465 100.533 101.291 100.669 101.074C100.805 100.856 100.85 100.639 100.85 100.334C100.85 100.073 100.805 99.8122 100.669 99.5947C100.533 99.3773 100.397 99.2033 100.17 99.0728C99.9884 98.9423 99.8069 98.8988 99.5801 98.8553C99.3533 98.8118 98.9905 98.8118 98.4915 98.8118H98.1287H97.7658L97.9019 101.856ZM96.9947 102.509V98.1594H98.2194C99.0358 98.1594 99.6255 98.2029 99.943 98.2464C100.26 98.2899 100.578 98.4204 100.805 98.5509C101.122 98.7249 101.395 98.9858 101.576 99.2903C101.757 99.5947 101.848 99.9427 101.848 100.291C101.848 100.682 101.757 101.03 101.576 101.335C101.395 101.639 101.122 101.9 100.805 102.074C100.533 102.204 100.306 102.335 99.9884 102.378C99.6709 102.422 99.1719 102.465 98.4915 102.465H98.2194L96.9947 102.509ZM102.891 102.509V98.1594H106.066V98.7684H103.799V99.8557H106.066V100.465H103.799V101.856H106.066V102.509H102.891ZM108.062 100.03H108.244C108.743 100.03 109.06 99.9862 109.242 99.8992C109.423 99.8122 109.468 99.6382 109.468 99.4208C109.468 99.1598 109.378 98.9858 109.196 98.9423C109.015 98.8118 108.697 98.8118 108.244 98.8118H108.062V100.03ZM107.971 100.552V102.465H107.11V98.1159H108.425C108.788 98.1159 109.105 98.1594 109.332 98.1594C109.559 98.2029 109.695 98.2899 109.877 98.3334C110.058 98.4639 110.194 98.5944 110.285 98.7684C110.375 98.9423 110.421 99.1163 110.421 99.3338C110.421 99.6817 110.285 99.9427 110.103 100.16C109.877 100.334 109.559 100.465 109.105 100.508L111.056 102.465H110.013L108.108 100.508L107.971 100.552ZM112.825 100.813H114.412L113.823 99.8122L113.687 99.5947L113.551 99.3338L113.46 99.5947L113.324 99.8122L112.825 100.813ZM115.365 102.509L114.73 101.422H112.462L111.782 102.509H110.784L113.551 97.9855L116.318 102.509H115.365ZM116.862 102.509V98.1594H117.769V101.856H119.855V102.509H116.862ZM123.983 101.856H124.754C125.208 101.856 125.525 101.813 125.707 101.813C125.888 101.769 126.115 101.682 126.251 101.596C126.433 101.465 126.614 101.291 126.75 101.074C126.886 100.856 126.932 100.639 126.932 100.334C126.932 100.073 126.886 99.8122 126.75 99.5947C126.614 99.3773 126.478 99.2033 126.251 99.0728C126.07 98.9423 125.888 98.8988 125.661 98.8553C125.435 98.8118 125.072 98.8118 124.573 98.8118H124.21H123.893V101.856H123.983ZM123.031 102.509V98.1594H124.255C125.072 98.1594 125.661 98.2029 125.979 98.2464C126.296 98.2899 126.614 98.4204 126.841 98.5509C127.158 98.7249 127.431 98.9858 127.612 99.2903C127.793 99.5947 127.884 99.9427 127.884 100.291C127.884 100.682 127.793 101.03 127.612 101.335C127.431 101.639 127.158 101.9 126.841 102.074C126.569 102.204 126.342 102.335 126.024 102.378C125.707 102.422 125.208 102.465 124.527 102.465H124.255L123.031 102.509ZM133.826 100.334C133.826 100.117 133.781 99.8992 133.69 99.6817C133.554 99.5077 133.418 99.3338 133.236 99.1598C133.055 98.9858 132.828 98.8988 132.556 98.8118C132.284 98.7249 132.057 98.6814 131.74 98.6814C131.467 98.6814 131.195 98.7249 130.923 98.8118C130.651 98.8988 130.424 98.9858 130.243 99.1598C130.061 99.2903 129.88 99.5077 129.789 99.6817C129.653 99.8557 129.653 100.117 129.653 100.334C129.653 100.552 129.698 100.769 129.789 100.987C129.925 101.161 130.061 101.335 130.243 101.509C130.424 101.682 130.696 101.769 130.923 101.856C131.195 101.943 131.422 101.987 131.74 101.987C132.012 101.987 132.284 101.943 132.511 101.856C132.783 101.769 132.964 101.682 133.191 101.509C133.372 101.335 133.554 101.161 133.645 100.987C133.781 100.813 133.826 100.552 133.826 100.334ZM134.779 100.334C134.779 100.639 134.688 100.943 134.552 101.204C134.416 101.465 134.189 101.726 133.871 101.943C133.599 102.161 133.236 102.335 132.874 102.422C132.511 102.552 132.102 102.596 131.74 102.596C131.331 102.596 130.923 102.552 130.56 102.422C130.197 102.291 129.88 102.161 129.562 101.943C129.29 101.726 129.063 101.465 128.882 101.204C128.746 100.943 128.655 100.639 128.655 100.334C128.655 100.03 128.746 99.7252 128.882 99.4643C129.018 99.2033 129.245 98.9423 129.562 98.7249C129.835 98.5074 130.197 98.3334 130.56 98.2464C130.923 98.116 131.331 98.0725 131.74 98.0725C132.148 98.0725 132.556 98.116 132.874 98.2464C133.236 98.3769 133.554 98.5074 133.871 98.7249C134.144 98.9423 134.37 99.2033 134.552 99.4643C134.688 99.7687 134.779 100.03 134.779 100.334ZM139.178 99.9862H139.405C139.904 99.9862 140.267 99.9427 140.448 99.8557C140.63 99.7687 140.721 99.6382 140.721 99.4208C140.721 99.2033 140.63 99.0293 140.448 98.9423C140.267 98.8553 139.95 98.8118 139.451 98.8118H139.224V99.9862H139.178ZM139.088 100.552V102.465H138.226V98.1159H139.632C140.04 98.1159 140.358 98.1594 140.539 98.1594C140.721 98.2029 140.902 98.2464 141.038 98.3334C141.22 98.4639 141.356 98.5944 141.492 98.7684C141.628 98.9423 141.628 99.1163 141.628 99.3338C141.628 99.5078 141.582 99.7252 141.492 99.8992C141.356 100.073 141.265 100.204 141.038 100.334C140.902 100.421 140.721 100.465 140.539 100.508C140.358 100.552 140.04 100.552 139.632 100.552H139.451H139.088ZM143.261 100.813H144.848L144.259 99.8122L144.123 99.5947L143.986 99.3338L143.896 99.5947L143.76 99.8122L143.261 100.813ZM145.846 102.509L145.211 101.422H142.943L142.263 102.509H141.265L144.032 97.9855L146.799 102.509H145.846ZM148.296 100.03H148.477C148.976 100.03 149.293 99.9862 149.475 99.8992C149.656 99.8122 149.702 99.6382 149.702 99.4208C149.702 99.1598 149.611 98.9858 149.43 98.9423C149.248 98.8553 148.931 98.8118 148.477 98.8118H148.296V100.03ZM148.205 100.552V102.465H147.343V98.1159H148.658C149.021 98.1159 149.339 98.1594 149.566 98.1594C149.747 98.2029 149.928 98.2899 150.11 98.3334C150.291 98.4639 150.427 98.5944 150.518 98.7684C150.609 98.9423 150.654 99.1163 150.654 99.3338C150.654 99.6817 150.518 99.9427 150.337 100.16C150.11 100.334 149.792 100.465 149.339 100.508L151.289 102.465H150.246L148.341 100.508L148.205 100.552ZM153.013 100.813H154.6L154.011 99.8122L153.875 99.5947L153.739 99.3338L153.648 99.5947L153.512 99.8122L153.013 100.813ZM155.553 102.509L154.918 101.422H152.65L151.97 102.509H150.972L153.739 97.9855L156.505 102.509H155.553ZM157.095 102.509V97.9855L160.724 100.639L160.996 100.9L161.314 101.161V98.1594H162.175V102.683L158.501 99.9862L158.229 99.7687L157.957 99.5078V102.509H157.095ZM164.67 100.813H166.258L165.668 99.8122L165.532 99.5947L165.396 99.3338L165.305 99.5947L165.169 99.8122L164.67 100.813ZM167.256 102.509L166.621 101.422H164.353L163.672 102.509H162.674L165.441 97.9855L168.208 102.509H167.256ZM164.897 97.768L165.668 96.9851H166.53L165.396 97.768H164.897Z" fill="#F5FAFF"/>
<path d="M37.1668 31.1357H33.6288V31.7447H37.1668V31.1357Z" fill="#F5FAFF"/>
<path d="M164.625 31.1357H161.087V31.7447H164.625V31.1357Z" fill="#F5FAFF"/>
<path d="M37.1668 49.403H33.6288V50.0119H37.1668V49.403Z" fill="#F5FAFF"/>
<path d="M164.625 49.403H161.087V50.0119H164.625V49.403Z" fill="#F5FAFF"/>
<path d="M43.2442 31.1357H39.7062V31.7447H43.2442V31.1357Z" fill="#F5FAFF"/>
<path d="M158.501 31.1357H154.964V31.7447H158.501V31.1357Z" fill="#F5FAFF"/>
<path d="M43.2442 49.403H39.7062V50.0119H43.2442V49.403Z" fill="#F5FAFF"/>
<path d="M158.501 49.403H154.964V50.0119H158.501V49.403Z" fill="#F5FAFF"/>
<path d="M49.3684 31.1357H45.8304V31.7447H49.3684V31.1357Z" fill="#F5FAFF"/>
<path d="M152.378 31.1357H148.84V31.7447H152.378V31.1357Z" fill="#F5FAFF"/>
<path d="M49.3684 49.403H45.8304V50.0119H49.3684V49.403Z" fill="#F5FAFF"/>
<path d="M152.378 49.403H148.84V50.0119H152.378V49.403Z" fill="#F5FAFF"/>
<path d="M55.4914 31.1357H51.9534V31.7447H55.4914V31.1357Z" fill="#F5FAFF"/>
<path d="M146.301 31.1357H142.763V31.7447H146.301V31.1357Z" fill="#F5FAFF"/>
<path d="M55.4914 49.403H51.9534V50.0119H55.4914V49.403Z" fill="#F5FAFF"/>
<path d="M146.301 49.403H142.763V50.0119H146.301V49.403Z" fill="#F5FAFF"/>
<path d="M61.7057 31.1357H58.077V31.7447H61.7057V31.1357Z" fill="#F5FAFF"/>
<path d="M140.176 31.1357H136.547V31.7447H140.176V31.1357Z" fill="#F5FAFF"/>
<path d="M61.7057 49.403H58.077V50.0119H61.7057V49.403Z" fill="#F5FAFF"/>
<path d="M140.176 49.403H136.547V50.0119H140.176V49.403Z" fill="#F5FAFF"/>
<path d="M67.693 31.1357H64.155V31.7447H67.693V31.1357Z" fill="#F5FAFF"/>
<path d="M134.099 31.1357H130.561V31.7447H134.099V31.1357Z" fill="#F5FAFF"/>
<path d="M67.693 49.403H64.155V50.0119H67.693V49.403Z" fill="#F5FAFF"/>
<path d="M134.099 49.403H130.561V50.0119H134.099V49.403Z" fill="#F5FAFF"/>
<path d="M104.842 31.2227H100.941V31.8316H104.842V31.2227Z" fill="#F5FAFF"/>
<path d="M104.207 32.0927H101.621V32.5711H104.207V32.0927Z" fill="#F5FAFF"/>
<path d="M122.487 25.7426H75.8127V26.4385H122.487V25.7426Z" fill="#F5FAFF"/>
<path fill-rule="evenodd" clip-rule="evenodd" d="M129.018 27.9608H121.443V30.3529H129.018V27.9608ZM126.886 27.2649L139.768 22.9155H119.538L123.847 24.3508V25.0467H74.4517V24.3508L78.7607 22.9155H73.0455H63.9738H58.4853L63.9738 24.7422L71.458 27.2649H126.886ZM128.882 27.2649H166.258L147.57 21.0018L128.882 27.2649ZM129.744 27.9608V30.3529H147.615H165.532V27.9608H129.744ZM99.1722 31.0053H63.9284H30V30.3094H32.1319V27.9173H30V27.2214L43.018 22.872H30V22.2631H44.8323L50.6383 20.3059H50.6836L56.4896 22.2631H63.883H72.9548H80.6205L99.1722 16H99.2176L117.633 22.2631H134.325H141.673L147.57 20.2189L153.376 22.2631H168.208V22.872H155.281L168.208 27.2214V27.9173H166.122V30.3094H168.254V31.0053H147.525H99.1722ZM99.1269 30.3094H120.808V27.9173H77.5361V30.3094H99.1269ZM121.852 24.3073L99.2629 16.6959L99.2176 16.7394L76.4928 24.3073H121.852ZM76.901 27.9608H69.2807V30.3529H76.901V27.9608ZM63.9284 30.3094H68.555V27.9173H63.9284H32.7669V30.3094H63.9284ZM63.9284 27.2649H69.4168L63.9284 25.3946L50.729 20.9583H50.6836L31.9504 27.2649H63.9284Z" fill="#F5FAFF"/>
<path d="M82.6608 31.2227H78.7599V31.8316H82.6608V31.2227Z" fill="#F5FAFF"/>
<path d="M82.0267 32.0927H79.3959V32.5711H82.0267V32.0927Z" fill="#F5FAFF"/>
<path d="M104.797 31.2227H100.896V31.8316H104.797V31.2227Z" fill="#F5FAFF"/>
<path d="M104.162 32.0927H101.531V32.5711H104.162V32.0927Z" fill="#F5FAFF"/>
<path fill-rule="evenodd" clip-rule="evenodd" d="M108.334 31.2227H112.235V31.8316H108.38V31.2227H108.334Z" fill="#F5FAFF"/>
<path d="M111.601 32.0927H108.97V32.5711H111.601V32.0927Z" fill="#F5FAFF"/>
<path d="M97.4026 31.2661H93.5471V31.875H97.4026V31.2661Z" fill="#F5FAFF"/>
<path d="M96.7678 32.136H94.1824V32.6144H96.7678V32.136Z" fill="#F5FAFF"/>
<path d="M90.0103 31.2227H86.1548V31.8316H90.0103V31.2227Z" fill="#F5FAFF"/>
<path d="M89.3749 32.136H86.7894V32.6144H89.3749V32.136Z" fill="#F5FAFF"/>
<path d="M119.584 31.2227H115.728V31.8316H119.584V31.2227Z" fill="#F5FAFF"/>
<path d="M118.948 32.0927H116.363V32.5711H118.948V32.0927Z" fill="#F5FAFF"/>
<path d="M83.2059 55.7966H78.2618V56.4055H83.2059V55.7966Z" fill="#F5FAFF"/>
<path d="M105.295 55.7966H100.351V56.4055H105.295V55.7966Z" fill="#F5FAFF"/>
<path d="M112.779 55.7966H107.835V56.4055H112.779V55.7966Z" fill="#F5FAFF"/>
<path d="M97.948 55.8402H93.0039V56.4491H97.948V55.8402Z" fill="#F5FAFF"/>
<path d="M90.5081 55.8402H85.564V56.4491H90.5081V55.8402Z" fill="#F5FAFF"/>
<path d="M120.083 55.7966H115.138V56.4055H120.083V55.7966Z" fill="#F5FAFF"/>
<path fill-rule="evenodd" clip-rule="evenodd" d="M124.709 60.929H73.5898V59.4937H124.709V60.929ZM79.5318 33.3105H81.8905V40.3129H86.9253V33.3105H89.284V40.3129H94.2735V33.3105H96.6775V40.3129H101.667V33.3105H104.026V40.3129H109.015V33.3105H111.465V40.3129H116.454V33.3105H118.722V40.2695H130.878V31.9622H133.645V40.2695H137.001V31.9622H138.408H139.768V40.2695H143.125V31.9622H145.983V40.2695H149.339V31.9622H150.7H152.061V40.2695H155.417V31.9622H156.823H158.229V40.2695H161.586V31.9622H162.947H164.353V40.2695H168.344V40.8784H164.353V49.1857H162.901H161.541V40.8784H158.184V49.1857H156.778H155.372V40.8784H152.015V49.1857H150.654H149.294V40.8784H145.937V49.1857H143.08V40.8784H139.768V49.1857H138.408H137.001V40.8784H133.645V49.1857H130.878V40.8784H118.722V50.1425H168.254V50.8384H129.653V54.3614H168.254V54.9703H129.653V58.8413H168.254V59.4502H129.653V62.9732H168.254V63.6691H129.653V65.1478H168.254V66.2352H30V65.1478H68.6004V63.6691H30V62.9732H68.6004V59.4937H30V58.8848H68.6004V55.0138H30V54.4049H68.6004V50.8819H30V50.186H79.5318V40.9219H67.3757V49.2292H64.6088V40.9219H61.2522V49.2292H58.4853V40.9219H55.1288V49.2292H52.3619V40.9219H48.96V49.2292H46.2385V40.9219H42.8819V49.2292H40.0243V40.9219H36.7131V49.2292H33.9916V40.9219H30V40.3129H33.9916V32.0057H36.7585V40.3129H40.115V32.0057H42.9726V40.3129H46.3292V32.0057H49.0507V40.3129H52.4526V32.0057H55.2195V40.3129H58.5761V32.0057H61.2976V40.3129H64.6541V32.0057H67.421V40.3129H79.5772L79.5318 33.3105ZM118.767 50.8384V55.1878H116.499V50.8384H111.51V55.1878H109.06V50.8384H104.071V55.1878H101.667V50.8384H96.6775V55.1878H94.2735V50.8384H89.284V55.1878H86.9253V50.8384H81.8905V55.1878H79.5318V50.8384H69.2807V63.0167H70.7776V60.929H72.9548V58.8848H77.4453H125.299V60.929H127.567V63.0167H128.973V50.8384H118.767ZM126.886 63.0601H71.4126V61.6249H126.886V63.0601ZM129.018 65.1913H69.2807V63.7126H129.018V65.1913ZM156.778 32.6581H156.052V48.5767H156.778H157.504V32.6581H156.778ZM162.856 48.5767H162.13V32.6581H162.856H163.582V48.5767H162.856ZM150.654 32.6581H149.929V48.5767H150.654H151.38V32.6581H150.654ZM143.805 48.5767H145.211V32.6581H143.805V48.5767ZM138.408 32.6581H137.682V48.5767H138.408H139.133V32.6581H138.408ZM131.604 48.5767H133.01V32.6581H131.604V48.5767ZM66.6499 48.5767H65.2438V32.6581H66.6499V48.5767ZM60.5265 48.5767H59.1204V32.6581H60.5265V48.5767ZM52.9969 32.6581H54.4031V48.5767H52.9969V32.6581ZM48.325 48.5767H46.9188V32.6581H48.325V48.5767ZM42.2469 48.5767H40.8408V32.6581H42.2469V48.5767ZM34.672 32.6581H36.1234V48.5767H34.672V32.6581ZM80.2576 34.0499H81.1648V54.5789H80.2576V34.0499ZM87.6057 34.0499H88.5583V54.5789H87.6057V34.0499ZM94.9538 34.0499H95.9517V54.5789H94.9538V34.0499ZM102.347 34.0499H103.3V54.5789H102.347V34.0499ZM109.741 34.0499H110.784V54.5789H109.741V34.0499ZM117.18 34.0499H118.041V54.5789H117.18V34.0499ZM81.9359 40.8784H86.9707V50.1425H81.9359V40.8784ZM89.284 40.8784H94.2735V50.1425H89.284V40.8784ZM96.6321 40.8784H101.622V50.1425H96.6321V40.8784ZM104.026 40.8784H109.015V50.1425H104.026V40.8784ZM111.465 40.8784H116.454V50.1425H111.465V40.8784Z" fill="#F5FAFF"/>
<path fill-rule="evenodd" clip-rule="evenodd" d="M77.6265 57.0145H83.7953V58.8848H77.6265V57.0145ZM78.2615 58.2758H83.1602V57.6234H78.2615V58.2758Z" fill="#F5FAFF"/>
<path fill-rule="evenodd" clip-rule="evenodd" d="M85.0201 57.0145H91.1889V58.8848H85.0201V57.0145ZM85.6552 58.2758H90.5539V57.6234H85.6552V58.2758Z" fill="#F5FAFF"/>
<path fill-rule="evenodd" clip-rule="evenodd" d="M92.3687 57.0145H98.5375V58.8848H92.3687V57.0145ZM93.0037 58.2758H97.9024V57.6234H93.0037V58.2758Z" fill="#F5FAFF"/>
<path fill-rule="evenodd" clip-rule="evenodd" d="M99.7623 57.0145H105.931V58.8848H99.7623V57.0145ZM100.397 58.2758H105.296V57.6234H100.397V58.2758Z" fill="#F5FAFF"/>
<path fill-rule="evenodd" clip-rule="evenodd" d="M107.201 57.0145H113.37V58.8848H107.201V57.0145ZM107.836 58.2758H112.735V57.6234H107.836V58.2758Z" fill="#F5FAFF"/>
<path fill-rule="evenodd" clip-rule="evenodd" d="M114.549 57.0145H120.718V58.8848H114.549V57.0145ZM115.184 58.2758H120.083V57.6234H115.184V58.2758Z" fill="#F5FAFF"/>
</g>
<path d="M51.6534 122.608C50.9814 122.24 50.2934 121.936 49.5894 121.696C48.9014 121.456 48.2534 121.336 47.6454 121.336C46.8934 121.336 46.3014 121.488 45.8694 121.792C45.4374 122.096 45.2214 122.552 45.2214 123.16C45.2214 123.576 45.3814 123.952 45.7014 124.288C46.0374 124.608 46.4614 124.896 46.9734 125.152C47.5014 125.408 48.0454 125.64 48.6054 125.848C49.1174 126.04 49.6214 126.272 50.1174 126.544C50.6294 126.8 51.0854 127.128 51.4854 127.528C51.8854 127.912 52.2054 128.4 52.4454 128.992C52.6854 129.568 52.8054 130.28 52.8054 131.128C52.8054 132.024 52.5734 132.856 52.1094 133.624C51.6454 134.392 50.9654 135.016 50.0694 135.496C49.1734 135.96 48.0694 136.192 46.7574 136.192C46.0854 136.192 45.3974 136.128 44.6934 136C44.0054 135.856 43.3254 135.648 42.6534 135.376C41.9814 135.088 41.3334 134.728 40.7094 134.296L42.2454 131.584C42.6614 131.888 43.1094 132.16 43.5894 132.4C44.0854 132.624 44.5814 132.8 45.0774 132.928C45.5734 133.056 46.0294 133.12 46.4454 133.12C46.8614 133.12 47.2774 133.064 47.6934 132.952C48.1254 132.824 48.4774 132.616 48.7494 132.328C49.0374 132.04 49.1814 131.64 49.1814 131.128C49.1814 130.776 49.0614 130.456 48.8214 130.168C48.5974 129.88 48.2854 129.616 47.8854 129.376C47.5014 129.136 47.0774 128.928 46.6134 128.752C46.0694 128.544 45.5094 128.304 44.9334 128.032C44.3574 127.76 43.8134 127.432 43.3014 127.048C42.8054 126.648 42.3974 126.16 42.0774 125.584C41.7734 124.992 41.6214 124.272 41.6214 123.424C41.6214 122.4 41.8454 121.512 42.2934 120.76C42.7574 120.008 43.4054 119.416 44.2374 118.984C45.0694 118.536 46.0294 118.288 47.1174 118.24C48.5414 118.24 49.6934 118.408 50.5734 118.744C51.4694 119.08 52.2694 119.48 52.9734 119.944L51.6534 122.608ZM55.6616 125.512H59.0216V136H55.6616V125.512ZM55.5896 121.792C55.5896 121.296 55.7816 120.888 56.1656 120.568C56.5656 120.248 56.9896 120.088 57.4376 120.088C57.8856 120.088 58.2936 120.248 58.6616 120.568C59.0456 120.888 59.2376 121.296 59.2376 121.792C59.2376 122.288 59.0456 122.696 58.6616 123.016C58.2936 123.32 57.8856 123.472 57.4376 123.472C56.9896 123.472 56.5656 123.32 56.1656 123.016C55.7816 122.696 55.5896 122.288 55.5896 121.792ZM63.4659 120.904H66.8259V125.464H69.3699V128.08H66.8259V136H63.4659V128.08H61.8339V125.464H63.4659V120.904ZM77.0872 136.288C75.8072 136.288 74.7192 136.048 73.8232 135.568C72.9432 135.088 72.2712 134.424 71.8072 133.576C71.3432 132.728 71.1112 131.752 71.1112 130.648C71.1112 129.592 71.3832 128.64 71.9272 127.792C72.4712 126.944 73.1992 126.272 74.1112 125.776C75.0232 125.264 76.0392 125.008 77.1592 125.008C78.6632 125.008 79.8952 125.448 80.8552 126.328C81.8312 127.192 82.4632 128.448 82.7512 130.096L74.5912 132.688L73.8472 130.864L79.7512 128.872L79.0552 129.184C78.9272 128.768 78.6952 128.408 78.3592 128.104C78.0392 127.784 77.5512 127.624 76.8952 127.624C76.3992 127.624 75.9592 127.744 75.5752 127.984C75.2072 128.208 74.9192 128.536 74.7112 128.968C74.5192 129.384 74.4232 129.88 74.4232 130.456C74.4232 131.112 74.5432 131.664 74.7832 132.112C75.0232 132.544 75.3512 132.872 75.7672 133.096C76.1832 133.32 76.6472 133.432 77.1592 133.432C77.5272 133.432 77.8792 133.368 78.2152 133.24C78.5672 133.112 78.9112 132.944 79.2472 132.736L80.7352 135.232C80.1752 135.552 79.5672 135.808 78.9112 136C78.2712 136.192 77.6632 136.288 77.0872 136.288ZM92.1815 130.624C92.1815 129.552 92.4295 128.592 92.9255 127.744C93.4375 126.896 94.1495 126.232 95.0615 125.752C95.9735 125.256 97.0215 125.008 98.2055 125.008C99.4055 125.008 100.446 125.256 101.326 125.752C102.206 126.232 102.878 126.896 103.342 127.744C103.822 128.592 104.062 129.552 104.062 130.624C104.062 131.696 103.822 132.664 103.342 133.528C102.878 134.376 102.206 135.048 101.326 135.544C100.446 136.04 99.3895 136.288 98.1575 136.288C97.0055 136.288 95.9735 136.064 95.0615 135.616C94.1655 135.168 93.4615 134.52 92.9495 133.672C92.4375 132.824 92.1815 131.808 92.1815 130.624ZM95.5655 130.648C95.5655 131.192 95.6775 131.688 95.9015 132.136C96.1255 132.568 96.4295 132.912 96.8135 133.168C97.1975 133.424 97.6295 133.552 98.1095 133.552C98.6375 133.552 99.0935 133.424 99.4775 133.168C99.8615 132.912 100.158 132.568 100.366 132.136C100.574 131.688 100.678 131.192 100.678 130.648C100.678 130.088 100.574 129.592 100.366 129.16C100.158 128.728 99.8615 128.384 99.4775 128.128C99.0935 127.872 98.6375 127.744 98.1095 127.744C97.6295 127.744 97.1975 127.872 96.8135 128.128C96.4295 128.384 96.1255 128.728 95.9015 129.16C95.6775 129.592 95.5655 130.088 95.5655 130.648ZM107.716 136V128.44H105.94V125.464H107.716V121.816C107.716 120.44 108.108 119.32 108.892 118.456C109.692 117.576 110.844 117.136 112.348 117.136C112.796 117.136 113.292 117.208 113.836 117.352C114.396 117.48 114.884 117.696 115.3 118L113.884 120.424C113.724 120.216 113.532 120.08 113.308 120.016C113.1 119.936 112.9 119.896 112.708 119.896C112.228 119.896 111.836 120.056 111.532 120.376C111.228 120.696 111.076 121.208 111.076 121.912V125.464H113.764V128.44H111.076V136H107.716ZM115.108 125.512H118.468V136H115.108V125.512ZM115.036 121.792C115.036 121.296 115.228 120.888 115.612 120.568C116.012 120.248 116.436 120.088 116.884 120.088C117.332 120.088 117.74 120.248 118.108 120.568C118.492 120.888 118.684 121.296 118.684 121.792C118.684 122.288 118.492 122.696 118.108 123.016C117.74 123.32 117.332 123.472 116.884 123.472C116.436 123.472 116.012 123.32 115.612 123.016C115.228 122.696 115.036 122.288 115.036 121.792ZM130.823 135.064C130.359 135.432 129.775 135.728 129.071 135.952C128.383 136.176 127.703 136.288 127.031 136.288C125.831 136.288 124.783 136.072 123.887 135.64C123.007 135.192 122.319 134.56 121.823 133.744C121.343 132.912 121.103 131.912 121.103 130.744C121.103 129.576 121.367 128.584 121.895 127.768C122.423 126.936 123.111 126.304 123.959 125.872C124.823 125.44 125.727 125.224 126.671 125.224C127.615 125.224 128.431 125.352 129.119 125.608C129.823 125.864 130.423 126.2 130.919 126.616L129.287 128.776C129.063 128.6 128.751 128.424 128.351 128.248C127.967 128.056 127.511 127.96 126.983 127.96C126.519 127.96 126.095 128.08 125.711 128.32C125.327 128.56 125.023 128.888 124.799 129.304C124.575 129.72 124.463 130.2 124.463 130.744C124.463 131.256 124.583 131.728 124.823 132.16C125.063 132.592 125.391 132.936 125.807 133.192C126.239 133.432 126.743 133.552 127.319 133.552C127.687 133.552 128.023 133.504 128.327 133.408C128.647 133.296 128.919 133.144 129.143 132.952L130.823 135.064ZM133.404 125.512H136.764V136H133.404V125.512ZM133.332 121.792C133.332 121.296 133.524 120.888 133.908 120.568C134.308 120.248 134.732 120.088 135.18 120.088C135.628 120.088 136.036 120.248 136.404 120.568C136.788 120.888 136.98 121.296 136.98 121.792C136.98 122.288 136.788 122.696 136.404 123.016C136.036 123.32 135.628 123.472 135.18 123.472C134.732 123.472 134.308 123.32 133.908 123.016C133.524 122.696 133.332 122.288 133.332 121.792ZM144.64 136.288C143.664 136.288 142.776 136.096 141.976 135.712C141.192 135.312 140.568 134.704 140.104 133.888C139.64 133.072 139.408 132.032 139.408 130.768C139.408 129.584 139.648 128.56 140.128 127.696C140.608 126.832 141.24 126.168 142.024 125.704C142.808 125.224 143.64 124.984 144.52 124.984C145.56 124.984 146.344 125.16 146.872 125.512C147.416 125.848 147.864 126.224 148.216 126.64L148.072 127.048L148.384 125.512H151.504V136H148.144V133.72L148.408 134.44C148.376 134.44 148.28 134.536 148.12 134.728C147.96 134.904 147.72 135.12 147.4 135.376C147.096 135.616 146.712 135.824 146.248 136C145.8 136.192 145.264 136.288 144.64 136.288ZM145.6 133.552C146 133.552 146.36 133.496 146.68 133.384C147 133.256 147.28 133.08 147.52 132.856C147.76 132.616 147.968 132.32 148.144 131.968V129.4C148.016 129.048 147.824 128.752 147.568 128.512C147.312 128.256 147.008 128.064 146.656 127.936C146.304 127.792 145.912 127.72 145.48 127.72C145 127.72 144.552 127.848 144.136 128.104C143.736 128.344 143.416 128.68 143.176 129.112C142.936 129.544 142.816 130.04 142.816 130.6C142.816 131.16 142.944 131.664 143.2 132.112C143.456 132.56 143.792 132.912 144.208 133.168C144.64 133.424 145.104 133.552 145.6 133.552ZM154.966 117.064H158.326V136H154.966V117.064Z" fill="white"/>
</g>
<defs>
<clipPath id="clip0_12_184">
<rect width="200" height="157" fill="white"/>
</clipPath>
<clipPath id="clip1_12_184">
<rect width="139" height="87" fill="white" transform="translate(30 16)"/>
</clipPath>
</defs>
</svg>
